G04 EAGLE Gerber X2 export*
%TF.Part,Single*%
%TF.FileFunction,Copper,L2,Bot,Mixed*%
%TF.FilePolarity,Positive*%
%TF.GenerationSoftware,Autodesk,EAGLE,9.1.3*%
%TF.CreationDate,2018-12-12T10:38:32Z*%
G75*
%MOMM*%
%FSLAX34Y34*%
%LPD*%
%AMOC8*
5,1,8,0,0,1.08239X$1,22.5*%
G01*
%ADD10C,1.524000*%
%ADD11R,1.879600X1.879600*%
%ADD12C,1.879600*%
%ADD13P,1.429621X8X22.500000*%
%ADD14C,1.320800*%
%ADD15P,1.814519X8X22.500000*%
%ADD16C,0.762000*%
%ADD17C,1.193800*%

G36*
X989098Y10164D02*
X989098Y10164D01*
X989117Y10162D01*
X989219Y10184D01*
X989321Y10200D01*
X989338Y10210D01*
X989358Y10214D01*
X989447Y10267D01*
X989538Y10316D01*
X989552Y10330D01*
X989569Y10340D01*
X989636Y10419D01*
X989708Y10494D01*
X989716Y10512D01*
X989729Y10527D01*
X989768Y10623D01*
X989811Y10717D01*
X989813Y10737D01*
X989821Y10755D01*
X989839Y10922D01*
X989839Y789078D01*
X989836Y789098D01*
X989838Y789117D01*
X989816Y789219D01*
X989800Y789321D01*
X989790Y789338D01*
X989786Y789358D01*
X989733Y789447D01*
X989684Y789538D01*
X989670Y789552D01*
X989660Y789569D01*
X989581Y789636D01*
X989506Y789708D01*
X989488Y789716D01*
X989473Y789729D01*
X989377Y789768D01*
X989283Y789811D01*
X989263Y789813D01*
X989245Y789821D01*
X989078Y789839D01*
X10922Y789839D01*
X10902Y789836D01*
X10883Y789838D01*
X10781Y789816D01*
X10679Y789800D01*
X10662Y789790D01*
X10642Y789786D01*
X10553Y789733D01*
X10462Y789684D01*
X10448Y789670D01*
X10431Y789660D01*
X10364Y789581D01*
X10292Y789506D01*
X10284Y789488D01*
X10271Y789473D01*
X10232Y789377D01*
X10189Y789283D01*
X10187Y789263D01*
X10179Y789245D01*
X10161Y789078D01*
X10161Y10922D01*
X10164Y10902D01*
X10162Y10883D01*
X10184Y10781D01*
X10200Y10679D01*
X10210Y10662D01*
X10214Y10642D01*
X10267Y10553D01*
X10316Y10462D01*
X10330Y10448D01*
X10340Y10431D01*
X10419Y10364D01*
X10494Y10292D01*
X10512Y10284D01*
X10527Y10271D01*
X10623Y10232D01*
X10717Y10189D01*
X10737Y10187D01*
X10755Y10179D01*
X10922Y10161D01*
X989078Y10161D01*
X989098Y10164D01*
G37*
%LPC*%
G36*
X376476Y14477D02*
X376476Y14477D01*
X370077Y20876D01*
X370077Y29924D01*
X373328Y33175D01*
X373339Y33191D01*
X373355Y33203D01*
X373411Y33290D01*
X373471Y33374D01*
X373477Y33393D01*
X373488Y33410D01*
X373513Y33511D01*
X373543Y33609D01*
X373543Y33629D01*
X373548Y33649D01*
X373540Y33752D01*
X373537Y33855D01*
X373530Y33874D01*
X373529Y33894D01*
X373488Y33989D01*
X373453Y34086D01*
X373440Y34102D01*
X373432Y34120D01*
X373328Y34251D01*
X304449Y103129D01*
X304391Y103171D01*
X304339Y103221D01*
X304292Y103243D01*
X304250Y103273D01*
X304181Y103294D01*
X304116Y103324D01*
X304064Y103330D01*
X304014Y103345D01*
X303943Y103343D01*
X303872Y103351D01*
X303821Y103340D01*
X303769Y103339D01*
X303701Y103314D01*
X303631Y103299D01*
X303587Y103272D01*
X303538Y103255D01*
X303482Y103210D01*
X303420Y103173D01*
X303386Y103133D01*
X303346Y103101D01*
X303307Y103041D01*
X303260Y102986D01*
X303241Y102938D01*
X303213Y102894D01*
X303195Y102824D01*
X303168Y102758D01*
X303160Y102687D01*
X303152Y102655D01*
X303154Y102632D01*
X303150Y102591D01*
X303150Y99907D01*
X301854Y96780D01*
X299460Y94386D01*
X296333Y93090D01*
X292947Y93090D01*
X289820Y94386D01*
X287426Y96780D01*
X286130Y99907D01*
X286130Y100813D01*
X286116Y100903D01*
X286108Y100994D01*
X286096Y101024D01*
X286091Y101056D01*
X286048Y101137D01*
X286012Y101220D01*
X285986Y101253D01*
X285975Y101273D01*
X285952Y101295D01*
X285907Y101351D01*
X106376Y280883D01*
X105409Y283217D01*
X105409Y367023D01*
X106376Y369357D01*
X117632Y380614D01*
X117685Y380688D01*
X117745Y380757D01*
X117757Y380787D01*
X117776Y380813D01*
X117803Y380900D01*
X117837Y380985D01*
X117841Y381026D01*
X117848Y381048D01*
X117847Y381081D01*
X117855Y381152D01*
X117855Y384788D01*
X120426Y387359D01*
X120479Y387433D01*
X120539Y387502D01*
X120551Y387532D01*
X120570Y387559D01*
X120597Y387646D01*
X120631Y387730D01*
X120635Y387771D01*
X120642Y387794D01*
X120641Y387826D01*
X120649Y387897D01*
X120649Y408534D01*
X120635Y408624D01*
X120627Y408715D01*
X120615Y408745D01*
X120610Y408777D01*
X120567Y408858D01*
X120531Y408941D01*
X120505Y408974D01*
X120494Y408994D01*
X120471Y409016D01*
X120426Y409072D01*
X75896Y453603D01*
X74929Y455937D01*
X74929Y600703D01*
X75896Y603037D01*
X209707Y736849D01*
X209760Y736923D01*
X209820Y736992D01*
X209832Y737022D01*
X209851Y737048D01*
X209878Y737135D01*
X209912Y737220D01*
X209916Y737261D01*
X209923Y737283D01*
X209922Y737316D01*
X209930Y737387D01*
X209930Y738293D01*
X211226Y741420D01*
X213620Y743814D01*
X216747Y745110D01*
X220133Y745110D01*
X223260Y743814D01*
X225654Y741420D01*
X226950Y738293D01*
X226950Y735609D01*
X226951Y735598D01*
X226951Y735593D01*
X226957Y735562D01*
X226961Y735538D01*
X226963Y735466D01*
X226981Y735417D01*
X226989Y735366D01*
X227023Y735303D01*
X227048Y735235D01*
X227080Y735195D01*
X227105Y735149D01*
X227156Y735099D01*
X227201Y735043D01*
X227245Y735015D01*
X227283Y734979D01*
X227348Y734949D01*
X227408Y734910D01*
X227459Y734898D01*
X227506Y734876D01*
X227577Y734868D01*
X227647Y734850D01*
X227699Y734854D01*
X227750Y734849D01*
X227821Y734864D01*
X227892Y734869D01*
X227940Y734890D01*
X227991Y734901D01*
X228052Y734938D01*
X228118Y734966D01*
X228174Y735010D01*
X228202Y735027D01*
X228217Y735045D01*
X228249Y735071D01*
X243977Y750798D01*
X244045Y750893D01*
X244115Y750987D01*
X244117Y750993D01*
X244121Y750998D01*
X244155Y751109D01*
X244191Y751221D01*
X244191Y751227D01*
X244193Y751233D01*
X244190Y751350D01*
X244189Y751467D01*
X244187Y751474D01*
X244187Y751479D01*
X244180Y751497D01*
X244142Y751628D01*
X243839Y752359D01*
X243839Y771641D01*
X245386Y775376D01*
X248244Y778234D01*
X251979Y779781D01*
X256021Y779781D01*
X259756Y778234D01*
X262614Y775376D01*
X264161Y771641D01*
X264161Y752359D01*
X262614Y748624D01*
X259756Y745766D01*
X256021Y744219D01*
X255676Y744219D01*
X255586Y744205D01*
X255495Y744197D01*
X255465Y744185D01*
X255433Y744180D01*
X255352Y744137D01*
X255269Y744101D01*
X255236Y744075D01*
X255216Y744064D01*
X255194Y744041D01*
X255138Y743996D01*
X227117Y715976D01*
X224783Y715009D01*
X221386Y715009D01*
X221296Y714995D01*
X221205Y714987D01*
X221175Y714975D01*
X221143Y714970D01*
X221062Y714927D01*
X220979Y714891D01*
X220946Y714865D01*
X220926Y714854D01*
X220904Y714831D01*
X220848Y714786D01*
X106100Y600038D01*
X106058Y599980D01*
X106008Y599928D01*
X105986Y599881D01*
X105956Y599839D01*
X105935Y599770D01*
X105905Y599705D01*
X105899Y599653D01*
X105884Y599603D01*
X105886Y599532D01*
X105878Y599461D01*
X105889Y599410D01*
X105890Y599358D01*
X105915Y599290D01*
X105930Y599220D01*
X105957Y599176D01*
X105974Y599127D01*
X106019Y599071D01*
X106056Y599009D01*
X106096Y598975D01*
X106128Y598935D01*
X106188Y598896D01*
X106243Y598849D01*
X106291Y598830D01*
X106335Y598802D01*
X106405Y598784D01*
X106471Y598757D01*
X106542Y598749D01*
X106574Y598741D01*
X106597Y598743D01*
X106638Y598739D01*
X110277Y598739D01*
X110277Y588323D01*
X99861Y588323D01*
X99861Y591962D01*
X99850Y592033D01*
X99848Y592105D01*
X99830Y592154D01*
X99822Y592205D01*
X99788Y592268D01*
X99763Y592336D01*
X99731Y592376D01*
X99706Y592422D01*
X99654Y592472D01*
X99610Y592528D01*
X99566Y592556D01*
X99528Y592592D01*
X99463Y592622D01*
X99403Y592661D01*
X99352Y592673D01*
X99305Y592695D01*
X99234Y592703D01*
X99164Y592721D01*
X99112Y592717D01*
X99061Y592722D01*
X98990Y592707D01*
X98919Y592702D01*
X98871Y592681D01*
X98820Y592670D01*
X98759Y592633D01*
X98693Y592605D01*
X98637Y592560D01*
X98609Y592544D01*
X98594Y592526D01*
X98562Y592500D01*
X98014Y591952D01*
X97960Y591878D01*
X97901Y591809D01*
X97889Y591779D01*
X97870Y591753D01*
X97843Y591666D01*
X97809Y591581D01*
X97805Y591540D01*
X97798Y591518D01*
X97799Y591485D01*
X97791Y591414D01*
X97791Y500786D01*
X97805Y500696D01*
X97813Y500605D01*
X97825Y500575D01*
X97830Y500543D01*
X97873Y500462D01*
X97909Y500379D01*
X97935Y500346D01*
X97946Y500326D01*
X97969Y500304D01*
X98014Y500248D01*
X116556Y481706D01*
X116614Y481664D01*
X116666Y481614D01*
X116713Y481592D01*
X116755Y481562D01*
X116824Y481541D01*
X116889Y481511D01*
X116941Y481505D01*
X116991Y481490D01*
X117062Y481492D01*
X117133Y481484D01*
X117184Y481495D01*
X117236Y481496D01*
X117304Y481521D01*
X117374Y481536D01*
X117419Y481563D01*
X117467Y481580D01*
X117523Y481625D01*
X117585Y481662D01*
X117619Y481702D01*
X117659Y481734D01*
X117698Y481794D01*
X117745Y481849D01*
X117764Y481897D01*
X117792Y481941D01*
X117810Y482011D01*
X117837Y482077D01*
X117845Y482148D01*
X117853Y482180D01*
X117851Y482203D01*
X117855Y482244D01*
X117855Y486388D01*
X123212Y491745D01*
X130788Y491745D01*
X136145Y486388D01*
X136145Y478812D01*
X130788Y473455D01*
X126644Y473455D01*
X126573Y473444D01*
X126501Y473442D01*
X126452Y473424D01*
X126401Y473416D01*
X126338Y473382D01*
X126270Y473357D01*
X126230Y473325D01*
X126184Y473300D01*
X126134Y473248D01*
X126078Y473204D01*
X126050Y473160D01*
X126014Y473122D01*
X125984Y473057D01*
X125945Y472997D01*
X125933Y472946D01*
X125911Y472899D01*
X125903Y472828D01*
X125885Y472758D01*
X125889Y472706D01*
X125884Y472655D01*
X125899Y472584D01*
X125904Y472513D01*
X125925Y472465D01*
X125936Y472414D01*
X125973Y472353D01*
X126001Y472287D01*
X126045Y472231D01*
X126062Y472203D01*
X126080Y472188D01*
X126106Y472156D01*
X132384Y465877D01*
X133351Y463543D01*
X133351Y438697D01*
X133365Y438607D01*
X133373Y438516D01*
X133385Y438486D01*
X133390Y438454D01*
X133433Y438374D01*
X133469Y438290D01*
X133495Y438258D01*
X133506Y438237D01*
X133529Y438215D01*
X133574Y438159D01*
X136145Y435588D01*
X136145Y428012D01*
X130788Y422655D01*
X126644Y422655D01*
X126573Y422644D01*
X126501Y422642D01*
X126452Y422624D01*
X126401Y422616D01*
X126338Y422582D01*
X126270Y422557D01*
X126230Y422525D01*
X126184Y422500D01*
X126134Y422448D01*
X126078Y422404D01*
X126050Y422360D01*
X126014Y422322D01*
X125984Y422257D01*
X125945Y422197D01*
X125933Y422146D01*
X125911Y422099D01*
X125903Y422028D01*
X125885Y421958D01*
X125889Y421906D01*
X125884Y421855D01*
X125899Y421784D01*
X125904Y421713D01*
X125925Y421665D01*
X125936Y421614D01*
X125973Y421553D01*
X126001Y421487D01*
X126045Y421431D01*
X126062Y421403D01*
X126080Y421388D01*
X126106Y421356D01*
X132384Y415077D01*
X133351Y412743D01*
X133351Y387897D01*
X133365Y387807D01*
X133373Y387716D01*
X133385Y387686D01*
X133390Y387654D01*
X133433Y387574D01*
X133469Y387490D01*
X133495Y387458D01*
X133506Y387437D01*
X133529Y387415D01*
X133574Y387359D01*
X136145Y384788D01*
X136145Y377212D01*
X130788Y371855D01*
X127152Y371855D01*
X127062Y371841D01*
X126971Y371833D01*
X126941Y371821D01*
X126909Y371816D01*
X126828Y371773D01*
X126745Y371737D01*
X126712Y371711D01*
X126692Y371700D01*
X126670Y371677D01*
X126614Y371632D01*
X118334Y363352D01*
X118281Y363278D01*
X118221Y363209D01*
X118209Y363179D01*
X118190Y363153D01*
X118163Y363066D01*
X118129Y362981D01*
X118125Y362940D01*
X118118Y362918D01*
X118119Y362885D01*
X118111Y362814D01*
X118111Y323381D01*
X118122Y323310D01*
X118124Y323239D01*
X118142Y323190D01*
X118150Y323138D01*
X118184Y323075D01*
X118209Y323008D01*
X118241Y322967D01*
X118266Y322921D01*
X118318Y322872D01*
X118362Y322816D01*
X118406Y322787D01*
X118444Y322752D01*
X118509Y322721D01*
X118569Y322683D01*
X118620Y322670D01*
X118667Y322648D01*
X118738Y322640D01*
X118808Y322623D01*
X118860Y322627D01*
X118911Y322621D01*
X118982Y322636D01*
X119053Y322642D01*
X119101Y322662D01*
X119152Y322673D01*
X119213Y322710D01*
X119279Y322738D01*
X119335Y322783D01*
X119363Y322799D01*
X119378Y322817D01*
X119410Y322843D01*
X123212Y326645D01*
X124308Y326645D01*
X124398Y326659D01*
X124489Y326667D01*
X124519Y326679D01*
X124551Y326684D01*
X124632Y326727D01*
X124715Y326763D01*
X124748Y326789D01*
X124768Y326800D01*
X124790Y326823D01*
X124846Y326868D01*
X199603Y401624D01*
X201937Y402591D01*
X234943Y402591D01*
X237277Y401624D01*
X249224Y389677D01*
X250191Y387343D01*
X250191Y241706D01*
X250205Y241616D01*
X250213Y241525D01*
X250225Y241495D01*
X250230Y241463D01*
X250273Y241382D01*
X250309Y241299D01*
X250335Y241266D01*
X250346Y241246D01*
X250369Y241224D01*
X250414Y241168D01*
X358770Y132812D01*
X358844Y132759D01*
X358913Y132699D01*
X358943Y132687D01*
X358969Y132668D01*
X359056Y132641D01*
X359141Y132607D01*
X359182Y132603D01*
X359204Y132596D01*
X359237Y132597D01*
X359308Y132589D01*
X369571Y132589D01*
X369571Y122266D01*
X368298Y122467D01*
X368027Y122555D01*
X368011Y122558D01*
X367997Y122564D01*
X367890Y122576D01*
X367784Y122593D01*
X367768Y122590D01*
X367753Y122592D01*
X367648Y122569D01*
X367542Y122550D01*
X367528Y122543D01*
X367512Y122539D01*
X367420Y122484D01*
X367326Y122433D01*
X367315Y122421D01*
X367301Y122413D01*
X367231Y122332D01*
X367158Y122253D01*
X367152Y122238D01*
X367141Y122226D01*
X367101Y122126D01*
X367057Y122029D01*
X367055Y122013D01*
X367049Y121998D01*
X367031Y121831D01*
X367031Y92359D01*
X367033Y92346D01*
X367032Y92336D01*
X367043Y92285D01*
X367045Y92269D01*
X367053Y92178D01*
X367065Y92148D01*
X367070Y92116D01*
X367113Y92036D01*
X367149Y91952D01*
X367175Y91920D01*
X367186Y91899D01*
X367209Y91877D01*
X367254Y91821D01*
X367894Y91180D01*
X369190Y88053D01*
X369190Y84667D01*
X368118Y82079D01*
X368107Y82035D01*
X368088Y81993D01*
X368079Y81916D01*
X368062Y81840D01*
X368066Y81794D01*
X368061Y81749D01*
X368077Y81672D01*
X368085Y81595D01*
X368103Y81553D01*
X368113Y81508D01*
X368153Y81441D01*
X368185Y81370D01*
X368216Y81336D01*
X368239Y81297D01*
X368298Y81246D01*
X368351Y81189D01*
X368391Y81167D01*
X368426Y81137D01*
X368498Y81108D01*
X368567Y81071D01*
X368612Y81062D01*
X368654Y81045D01*
X368790Y81030D01*
X368809Y81027D01*
X368814Y81028D01*
X368821Y81027D01*
X373469Y81027D01*
X377857Y79209D01*
X381215Y75851D01*
X383033Y71463D01*
X383033Y66713D01*
X381215Y62325D01*
X377857Y58967D01*
X373469Y57149D01*
X370230Y57149D01*
X370159Y57138D01*
X370087Y57136D01*
X370038Y57118D01*
X369987Y57110D01*
X369924Y57076D01*
X369856Y57051D01*
X369816Y57019D01*
X369770Y56994D01*
X369720Y56942D01*
X369664Y56898D01*
X369636Y56854D01*
X369600Y56816D01*
X369570Y56751D01*
X369531Y56691D01*
X369519Y56640D01*
X369497Y56593D01*
X369489Y56522D01*
X369471Y56452D01*
X369475Y56400D01*
X369470Y56349D01*
X369485Y56278D01*
X369490Y56207D01*
X369511Y56159D01*
X369522Y56108D01*
X369559Y56047D01*
X369587Y55981D01*
X369631Y55925D01*
X369648Y55897D01*
X369666Y55882D01*
X369692Y55850D01*
X386384Y39157D01*
X387351Y36823D01*
X387351Y34812D01*
X387365Y34722D01*
X387373Y34631D01*
X387385Y34601D01*
X387390Y34569D01*
X387433Y34488D01*
X387469Y34404D01*
X387495Y34372D01*
X387506Y34352D01*
X387529Y34329D01*
X387574Y34273D01*
X391923Y29924D01*
X391923Y20876D01*
X385524Y14477D01*
X376476Y14477D01*
G37*
%LPD*%
%LPC*%
G36*
X452676Y14477D02*
X452676Y14477D01*
X446277Y20876D01*
X446277Y29924D01*
X450626Y34273D01*
X450679Y34347D01*
X450739Y34417D01*
X450751Y34447D01*
X450770Y34473D01*
X450797Y34560D01*
X450831Y34645D01*
X450835Y34686D01*
X450842Y34708D01*
X450841Y34740D01*
X450849Y34812D01*
X450849Y148583D01*
X451816Y150917D01*
X664088Y363190D01*
X664130Y363248D01*
X664180Y363300D01*
X664202Y363347D01*
X664232Y363389D01*
X664253Y363458D01*
X664283Y363523D01*
X664289Y363575D01*
X664304Y363625D01*
X664302Y363696D01*
X664310Y363767D01*
X664299Y363818D01*
X664298Y363870D01*
X664273Y363938D01*
X664258Y364008D01*
X664231Y364052D01*
X664214Y364101D01*
X664169Y364157D01*
X664132Y364219D01*
X664092Y364253D01*
X664060Y364293D01*
X664000Y364332D01*
X663945Y364379D01*
X663897Y364398D01*
X663853Y364426D01*
X663783Y364444D01*
X663717Y364471D01*
X663646Y364479D01*
X663614Y364487D01*
X663591Y364485D01*
X663550Y364489D01*
X653186Y364489D01*
X653096Y364475D01*
X653005Y364467D01*
X652975Y364455D01*
X652943Y364450D01*
X652862Y364407D01*
X652779Y364371D01*
X652746Y364345D01*
X652726Y364334D01*
X652704Y364311D01*
X652648Y364266D01*
X427615Y139234D01*
X427548Y139140D01*
X427477Y139045D01*
X427475Y139039D01*
X427472Y139034D01*
X427438Y138924D01*
X427401Y138812D01*
X427401Y138805D01*
X427399Y138799D01*
X427403Y138683D01*
X427404Y138566D01*
X427406Y138558D01*
X427406Y138553D01*
X427412Y138536D01*
X427450Y138405D01*
X428245Y136487D01*
X428245Y131737D01*
X426427Y127349D01*
X423069Y123991D01*
X418681Y122173D01*
X413931Y122173D01*
X409543Y123991D01*
X406185Y127349D01*
X404367Y131737D01*
X404367Y136487D01*
X406185Y140875D01*
X409543Y144233D01*
X413931Y146051D01*
X416154Y146051D01*
X416244Y146065D01*
X416335Y146073D01*
X416365Y146085D01*
X416397Y146090D01*
X416478Y146133D01*
X416561Y146169D01*
X416594Y146195D01*
X416614Y146206D01*
X416636Y146229D01*
X416692Y146274D01*
X646643Y376224D01*
X648977Y377191D01*
X682854Y377191D01*
X682944Y377205D01*
X683035Y377213D01*
X683065Y377225D01*
X683097Y377230D01*
X683178Y377273D01*
X683261Y377309D01*
X683294Y377335D01*
X683314Y377346D01*
X683336Y377369D01*
X683392Y377414D01*
X714634Y408656D01*
X714676Y408714D01*
X714726Y408766D01*
X714748Y408813D01*
X714778Y408855D01*
X714799Y408924D01*
X714829Y408989D01*
X714835Y409041D01*
X714850Y409091D01*
X714848Y409162D01*
X714856Y409233D01*
X714845Y409284D01*
X714844Y409336D01*
X714819Y409404D01*
X714804Y409474D01*
X714777Y409519D01*
X714760Y409567D01*
X714715Y409623D01*
X714678Y409685D01*
X714638Y409719D01*
X714606Y409759D01*
X714546Y409798D01*
X714491Y409845D01*
X714443Y409864D01*
X714399Y409892D01*
X714329Y409910D01*
X714263Y409937D01*
X714192Y409945D01*
X714160Y409953D01*
X714137Y409951D01*
X714096Y409955D01*
X707412Y409955D01*
X702301Y415066D01*
X702227Y415119D01*
X702158Y415179D01*
X702128Y415191D01*
X702101Y415210D01*
X702014Y415237D01*
X701930Y415271D01*
X701889Y415275D01*
X701866Y415282D01*
X701834Y415281D01*
X701763Y415289D01*
X618497Y415289D01*
X616163Y416256D01*
X535564Y496854D01*
X535490Y496907D01*
X535421Y496967D01*
X535391Y496979D01*
X535365Y496998D01*
X535278Y497025D01*
X535193Y497059D01*
X535152Y497063D01*
X535130Y497070D01*
X535097Y497069D01*
X535026Y497077D01*
X528876Y497077D01*
X522477Y503476D01*
X522477Y512524D01*
X528876Y518923D01*
X537924Y518923D01*
X544323Y512524D01*
X544323Y506374D01*
X544337Y506284D01*
X544345Y506193D01*
X544357Y506163D01*
X544362Y506131D01*
X544405Y506051D01*
X544441Y505967D01*
X544467Y505934D01*
X544478Y505914D01*
X544501Y505892D01*
X544546Y505836D01*
X546578Y503804D01*
X546636Y503762D01*
X546688Y503712D01*
X546735Y503690D01*
X546777Y503660D01*
X546846Y503639D01*
X546911Y503609D01*
X546963Y503603D01*
X547013Y503588D01*
X547084Y503590D01*
X547155Y503582D01*
X547206Y503593D01*
X547258Y503594D01*
X547326Y503619D01*
X547396Y503634D01*
X547441Y503661D01*
X547489Y503678D01*
X547545Y503723D01*
X547607Y503760D01*
X547641Y503800D01*
X547681Y503832D01*
X547720Y503892D01*
X547767Y503947D01*
X547786Y503995D01*
X547814Y504039D01*
X547832Y504109D01*
X547859Y504175D01*
X547867Y504246D01*
X547875Y504278D01*
X547873Y504301D01*
X547877Y504342D01*
X547877Y512524D01*
X554276Y518923D01*
X563324Y518923D01*
X569723Y512524D01*
X569723Y503476D01*
X563324Y497077D01*
X555142Y497077D01*
X555071Y497066D01*
X554999Y497064D01*
X554950Y497046D01*
X554899Y497038D01*
X554836Y497004D01*
X554768Y496979D01*
X554728Y496947D01*
X554682Y496922D01*
X554632Y496870D01*
X554576Y496826D01*
X554548Y496782D01*
X554512Y496744D01*
X554482Y496679D01*
X554443Y496619D01*
X554431Y496568D01*
X554409Y496521D01*
X554401Y496450D01*
X554383Y496380D01*
X554387Y496328D01*
X554382Y496277D01*
X554397Y496206D01*
X554402Y496135D01*
X554423Y496087D01*
X554434Y496036D01*
X554471Y495975D01*
X554499Y495909D01*
X554543Y495853D01*
X554560Y495825D01*
X554578Y495810D01*
X554604Y495778D01*
X622168Y428214D01*
X622242Y428161D01*
X622311Y428101D01*
X622341Y428089D01*
X622367Y428070D01*
X622454Y428043D01*
X622539Y428009D01*
X622580Y428005D01*
X622602Y427998D01*
X622635Y427999D01*
X622706Y427991D01*
X706843Y427991D01*
X706933Y428005D01*
X707024Y428013D01*
X707054Y428025D01*
X707086Y428030D01*
X707166Y428073D01*
X707250Y428109D01*
X707282Y428135D01*
X707303Y428146D01*
X707325Y428169D01*
X707381Y428214D01*
X707412Y428245D01*
X714096Y428245D01*
X714167Y428256D01*
X714239Y428258D01*
X714288Y428276D01*
X714339Y428284D01*
X714402Y428318D01*
X714470Y428343D01*
X714510Y428375D01*
X714556Y428400D01*
X714606Y428452D01*
X714662Y428496D01*
X714690Y428540D01*
X714726Y428578D01*
X714756Y428643D01*
X714795Y428703D01*
X714807Y428754D01*
X714829Y428801D01*
X714837Y428872D01*
X714855Y428942D01*
X714851Y428994D01*
X714856Y429045D01*
X714841Y429116D01*
X714836Y429187D01*
X714815Y429235D01*
X714804Y429286D01*
X714767Y429347D01*
X714739Y429413D01*
X714694Y429469D01*
X714678Y429497D01*
X714660Y429512D01*
X714634Y429544D01*
X713872Y430306D01*
X713798Y430359D01*
X713729Y430419D01*
X713699Y430431D01*
X713673Y430450D01*
X713586Y430477D01*
X713501Y430511D01*
X713460Y430515D01*
X713438Y430522D01*
X713405Y430521D01*
X713334Y430529D01*
X679457Y430529D01*
X677123Y431496D01*
X611764Y496854D01*
X611690Y496907D01*
X611621Y496967D01*
X611591Y496979D01*
X611565Y496998D01*
X611478Y497025D01*
X611393Y497059D01*
X611352Y497063D01*
X611330Y497070D01*
X611297Y497069D01*
X611226Y497077D01*
X605076Y497077D01*
X598677Y503476D01*
X598677Y512524D01*
X605076Y518923D01*
X614124Y518923D01*
X620523Y512524D01*
X620523Y506374D01*
X620537Y506284D01*
X620545Y506193D01*
X620557Y506163D01*
X620562Y506131D01*
X620605Y506051D01*
X620641Y505967D01*
X620667Y505934D01*
X620678Y505914D01*
X620701Y505892D01*
X620746Y505836D01*
X622778Y503804D01*
X622836Y503762D01*
X622888Y503712D01*
X622935Y503690D01*
X622977Y503660D01*
X623046Y503639D01*
X623111Y503609D01*
X623163Y503603D01*
X623213Y503588D01*
X623284Y503590D01*
X623355Y503582D01*
X623406Y503593D01*
X623458Y503594D01*
X623526Y503619D01*
X623596Y503634D01*
X623641Y503661D01*
X623689Y503678D01*
X623745Y503723D01*
X623807Y503760D01*
X623841Y503800D01*
X623881Y503832D01*
X623920Y503892D01*
X623967Y503947D01*
X623986Y503995D01*
X624014Y504039D01*
X624032Y504109D01*
X624059Y504175D01*
X624067Y504246D01*
X624075Y504278D01*
X624073Y504301D01*
X624077Y504342D01*
X624077Y512524D01*
X630476Y518923D01*
X639524Y518923D01*
X645923Y512524D01*
X645923Y503476D01*
X639524Y497077D01*
X631342Y497077D01*
X631271Y497066D01*
X631199Y497064D01*
X631150Y497046D01*
X631099Y497038D01*
X631036Y497004D01*
X630968Y496979D01*
X630928Y496947D01*
X630882Y496922D01*
X630832Y496870D01*
X630776Y496826D01*
X630748Y496782D01*
X630712Y496744D01*
X630682Y496679D01*
X630643Y496619D01*
X630631Y496568D01*
X630609Y496521D01*
X630601Y496450D01*
X630583Y496380D01*
X630587Y496328D01*
X630582Y496277D01*
X630597Y496206D01*
X630602Y496135D01*
X630623Y496087D01*
X630634Y496036D01*
X630671Y495975D01*
X630699Y495909D01*
X630743Y495853D01*
X630760Y495825D01*
X630778Y495810D01*
X630804Y495778D01*
X683128Y443454D01*
X683202Y443401D01*
X683271Y443341D01*
X683301Y443329D01*
X683327Y443310D01*
X683414Y443283D01*
X683499Y443249D01*
X683540Y443245D01*
X683562Y443238D01*
X683595Y443239D01*
X683666Y443231D01*
X717543Y443231D01*
X719877Y442264D01*
X728950Y433192D01*
X729008Y433150D01*
X729060Y433100D01*
X729107Y433078D01*
X729149Y433048D01*
X729218Y433027D01*
X729283Y432997D01*
X729335Y432991D01*
X729385Y432976D01*
X729456Y432978D01*
X729527Y432970D01*
X729578Y432981D01*
X729630Y432982D01*
X729698Y433007D01*
X729768Y433022D01*
X729813Y433049D01*
X729861Y433066D01*
X729917Y433111D01*
X729979Y433148D01*
X730013Y433188D01*
X730053Y433220D01*
X730092Y433280D01*
X730139Y433335D01*
X730158Y433383D01*
X730186Y433427D01*
X730204Y433497D01*
X730231Y433563D01*
X730239Y433634D01*
X730247Y433666D01*
X730245Y433689D01*
X730249Y433730D01*
X730249Y729744D01*
X730230Y729859D01*
X730213Y729975D01*
X730211Y729980D01*
X730210Y729986D01*
X730155Y730089D01*
X730102Y730194D01*
X730097Y730198D01*
X730094Y730204D01*
X730010Y730284D01*
X729926Y730366D01*
X729920Y730370D01*
X729916Y730373D01*
X729899Y730381D01*
X729779Y730447D01*
X727923Y731216D01*
X726029Y733110D01*
X703712Y755426D01*
X703638Y755479D01*
X703569Y755539D01*
X703539Y755551D01*
X703513Y755570D01*
X703426Y755597D01*
X703341Y755631D01*
X703300Y755635D01*
X703278Y755642D01*
X703245Y755641D01*
X703174Y755649D01*
X671322Y755649D01*
X671302Y755646D01*
X671283Y755648D01*
X671181Y755626D01*
X671079Y755610D01*
X671062Y755600D01*
X671042Y755596D01*
X670953Y755543D01*
X670862Y755494D01*
X670848Y755480D01*
X670831Y755470D01*
X670764Y755391D01*
X670692Y755316D01*
X670684Y755298D01*
X670671Y755283D01*
X670632Y755187D01*
X670589Y755093D01*
X670587Y755073D01*
X670579Y755055D01*
X670561Y754888D01*
X670561Y752359D01*
X669014Y748624D01*
X666156Y745766D01*
X662421Y744219D01*
X658379Y744219D01*
X654644Y745766D01*
X651786Y748624D01*
X650239Y752359D01*
X650239Y771641D01*
X651786Y775376D01*
X654644Y778234D01*
X658379Y779781D01*
X662421Y779781D01*
X666156Y778234D01*
X669014Y775376D01*
X670561Y771641D01*
X670561Y769112D01*
X670563Y769098D01*
X670562Y769088D01*
X670563Y769082D01*
X670562Y769073D01*
X670584Y768971D01*
X670600Y768869D01*
X670610Y768852D01*
X670614Y768832D01*
X670667Y768743D01*
X670716Y768652D01*
X670730Y768638D01*
X670740Y768621D01*
X670819Y768554D01*
X670894Y768482D01*
X670912Y768474D01*
X670927Y768461D01*
X671023Y768422D01*
X671117Y768379D01*
X671137Y768377D01*
X671155Y768369D01*
X671322Y768351D01*
X707383Y768351D01*
X709717Y767384D01*
X711611Y765490D01*
X725140Y751962D01*
X725198Y751920D01*
X725250Y751870D01*
X725297Y751848D01*
X725339Y751818D01*
X725408Y751797D01*
X725473Y751767D01*
X725525Y751761D01*
X725575Y751746D01*
X725646Y751748D01*
X725717Y751740D01*
X725768Y751751D01*
X725820Y751752D01*
X725888Y751777D01*
X725958Y751792D01*
X726002Y751819D01*
X726051Y751836D01*
X726107Y751881D01*
X726169Y751918D01*
X726203Y751958D01*
X726243Y751990D01*
X726282Y752050D01*
X726329Y752105D01*
X726348Y752153D01*
X726376Y752197D01*
X726394Y752267D01*
X726421Y752333D01*
X726429Y752404D01*
X726437Y752436D01*
X726435Y752459D01*
X726439Y752500D01*
X726439Y771641D01*
X727986Y775376D01*
X730844Y778234D01*
X734579Y779781D01*
X738621Y779781D01*
X742356Y778234D01*
X745214Y775376D01*
X746761Y771641D01*
X746761Y752500D01*
X746772Y752429D01*
X746774Y752357D01*
X746792Y752308D01*
X746800Y752257D01*
X746834Y752194D01*
X746859Y752126D01*
X746891Y752086D01*
X746916Y752040D01*
X746967Y751990D01*
X747012Y751934D01*
X747056Y751906D01*
X747094Y751870D01*
X747159Y751840D01*
X747219Y751801D01*
X747270Y751789D01*
X747317Y751767D01*
X747388Y751759D01*
X747458Y751741D01*
X747510Y751745D01*
X747561Y751740D01*
X747632Y751755D01*
X747703Y751760D01*
X747751Y751781D01*
X747802Y751792D01*
X747863Y751829D01*
X747929Y751857D01*
X747985Y751901D01*
X748013Y751918D01*
X748028Y751936D01*
X748060Y751962D01*
X751616Y755518D01*
X751669Y755592D01*
X751729Y755661D01*
X751741Y755691D01*
X751760Y755717D01*
X751787Y755804D01*
X751821Y755889D01*
X751825Y755930D01*
X751832Y755952D01*
X751831Y755985D01*
X751839Y756056D01*
X751839Y771641D01*
X753386Y775376D01*
X756244Y778234D01*
X759979Y779781D01*
X764021Y779781D01*
X767756Y778234D01*
X770614Y775376D01*
X772161Y771641D01*
X772161Y752359D01*
X770614Y748624D01*
X767756Y745766D01*
X764021Y744219D01*
X759979Y744219D01*
X759248Y744522D01*
X759134Y744549D01*
X759021Y744577D01*
X759015Y744577D01*
X759008Y744578D01*
X758892Y744567D01*
X758776Y744558D01*
X758770Y744556D01*
X758764Y744555D01*
X758656Y744507D01*
X758549Y744462D01*
X758544Y744457D01*
X758539Y744455D01*
X758525Y744442D01*
X758418Y744357D01*
X745277Y731216D01*
X743421Y730447D01*
X743321Y730385D01*
X743221Y730326D01*
X743217Y730321D01*
X743212Y730317D01*
X743137Y730227D01*
X743061Y730139D01*
X743059Y730133D01*
X743055Y730128D01*
X743013Y730020D01*
X742969Y729910D01*
X742968Y729903D01*
X742967Y729898D01*
X742966Y729880D01*
X742951Y729744D01*
X742951Y405137D01*
X741984Y402803D01*
X694477Y355296D01*
X692143Y354329D01*
X673506Y354329D01*
X673416Y354315D01*
X673325Y354307D01*
X673295Y354295D01*
X673263Y354290D01*
X673182Y354247D01*
X673099Y354211D01*
X673066Y354185D01*
X673046Y354174D01*
X673024Y354151D01*
X672968Y354106D01*
X506471Y187609D01*
X506429Y187551D01*
X506379Y187499D01*
X506357Y187452D01*
X506327Y187410D01*
X506306Y187341D01*
X506276Y187276D01*
X506270Y187224D01*
X506255Y187174D01*
X506257Y187103D01*
X506249Y187032D01*
X506260Y186981D01*
X506261Y186929D01*
X506286Y186861D01*
X506301Y186791D01*
X506328Y186747D01*
X506345Y186698D01*
X506390Y186642D01*
X506427Y186580D01*
X506467Y186546D01*
X506499Y186506D01*
X506559Y186467D01*
X506614Y186420D01*
X506662Y186401D01*
X506706Y186373D01*
X506776Y186355D01*
X506842Y186328D01*
X506913Y186320D01*
X506945Y186312D01*
X506968Y186314D01*
X507009Y186310D01*
X509693Y186310D01*
X512820Y185014D01*
X515214Y182620D01*
X516510Y179493D01*
X516510Y176107D01*
X515214Y172980D01*
X514574Y172339D01*
X514521Y172265D01*
X514461Y172196D01*
X514449Y172166D01*
X514430Y172139D01*
X514403Y172052D01*
X514369Y171968D01*
X514365Y171927D01*
X514358Y171904D01*
X514359Y171872D01*
X514351Y171801D01*
X514351Y114706D01*
X514365Y114616D01*
X514373Y114525D01*
X514385Y114495D01*
X514390Y114463D01*
X514433Y114382D01*
X514469Y114299D01*
X514495Y114266D01*
X514506Y114246D01*
X514529Y114224D01*
X514574Y114168D01*
X561056Y67686D01*
X561114Y67644D01*
X561166Y67594D01*
X561213Y67572D01*
X561255Y67542D01*
X561324Y67521D01*
X561389Y67491D01*
X561441Y67485D01*
X561491Y67470D01*
X561562Y67472D01*
X561633Y67464D01*
X561684Y67475D01*
X561736Y67476D01*
X561804Y67501D01*
X561874Y67516D01*
X561919Y67543D01*
X561967Y67560D01*
X562023Y67605D01*
X562085Y67642D01*
X562119Y67682D01*
X562159Y67714D01*
X562198Y67774D01*
X562245Y67829D01*
X562264Y67877D01*
X562292Y67921D01*
X562310Y67991D01*
X562337Y68057D01*
X562345Y68128D01*
X562353Y68160D01*
X562351Y68183D01*
X562355Y68224D01*
X562355Y71463D01*
X564173Y75851D01*
X567531Y79209D01*
X571919Y81027D01*
X576669Y81027D01*
X581057Y79209D01*
X584415Y75851D01*
X586233Y71463D01*
X586233Y66713D01*
X584415Y62325D01*
X581057Y58967D01*
X576669Y57149D01*
X571919Y57149D01*
X567531Y58967D01*
X566450Y60048D01*
X566392Y60090D01*
X566340Y60139D01*
X566293Y60161D01*
X566251Y60191D01*
X566182Y60212D01*
X566117Y60243D01*
X566065Y60248D01*
X566015Y60264D01*
X565944Y60262D01*
X565873Y60270D01*
X565822Y60259D01*
X565770Y60257D01*
X565702Y60233D01*
X565632Y60218D01*
X565587Y60191D01*
X565539Y60173D01*
X565483Y60128D01*
X565421Y60091D01*
X565387Y60052D01*
X565347Y60019D01*
X565308Y59959D01*
X565261Y59904D01*
X565242Y59856D01*
X565214Y59812D01*
X565196Y59743D01*
X565169Y59676D01*
X565161Y59605D01*
X565153Y59574D01*
X565155Y59550D01*
X565151Y59510D01*
X565151Y34812D01*
X565165Y34722D01*
X565173Y34631D01*
X565185Y34601D01*
X565190Y34569D01*
X565233Y34488D01*
X565269Y34404D01*
X565295Y34372D01*
X565306Y34352D01*
X565329Y34329D01*
X565374Y34273D01*
X569723Y29924D01*
X569723Y20876D01*
X563324Y14477D01*
X554276Y14477D01*
X547877Y20876D01*
X547877Y29924D01*
X552226Y34273D01*
X552279Y34347D01*
X552339Y34417D01*
X552351Y34447D01*
X552370Y34473D01*
X552397Y34560D01*
X552431Y34645D01*
X552435Y34686D01*
X552442Y34708D01*
X552441Y34740D01*
X552449Y34812D01*
X552449Y58014D01*
X552435Y58104D01*
X552427Y58195D01*
X552415Y58225D01*
X552410Y58257D01*
X552367Y58338D01*
X552331Y58421D01*
X552305Y58454D01*
X552294Y58474D01*
X552271Y58496D01*
X552226Y58552D01*
X502616Y108163D01*
X501649Y110497D01*
X501649Y171801D01*
X501635Y171891D01*
X501627Y171982D01*
X501615Y172012D01*
X501610Y172044D01*
X501567Y172124D01*
X501531Y172208D01*
X501505Y172240D01*
X501494Y172261D01*
X501471Y172283D01*
X501426Y172339D01*
X500786Y172980D01*
X499490Y176107D01*
X499490Y178791D01*
X499479Y178862D01*
X499477Y178934D01*
X499459Y178983D01*
X499451Y179034D01*
X499417Y179097D01*
X499392Y179165D01*
X499360Y179205D01*
X499335Y179251D01*
X499283Y179301D01*
X499239Y179357D01*
X499195Y179385D01*
X499157Y179421D01*
X499092Y179451D01*
X499032Y179490D01*
X498981Y179502D01*
X498934Y179524D01*
X498863Y179532D01*
X498793Y179550D01*
X498741Y179546D01*
X498690Y179551D01*
X498619Y179536D01*
X498548Y179531D01*
X498500Y179510D01*
X498449Y179499D01*
X498388Y179462D01*
X498322Y179434D01*
X498266Y179390D01*
X498238Y179373D01*
X498223Y179355D01*
X498191Y179329D01*
X463774Y144912D01*
X463721Y144838D01*
X463661Y144769D01*
X463649Y144739D01*
X463630Y144713D01*
X463603Y144626D01*
X463569Y144541D01*
X463565Y144500D01*
X463558Y144478D01*
X463559Y144445D01*
X463551Y144374D01*
X463551Y34812D01*
X463565Y34722D01*
X463573Y34631D01*
X463585Y34601D01*
X463590Y34569D01*
X463633Y34488D01*
X463669Y34404D01*
X463695Y34372D01*
X463706Y34352D01*
X463729Y34329D01*
X463774Y34273D01*
X468123Y29924D01*
X468123Y20876D01*
X461724Y14477D01*
X452676Y14477D01*
G37*
%LPD*%
G36*
X295702Y110121D02*
X295702Y110121D01*
X295774Y110123D01*
X295823Y110141D01*
X295874Y110149D01*
X295937Y110183D01*
X296005Y110208D01*
X296045Y110240D01*
X296091Y110265D01*
X296141Y110317D01*
X296197Y110361D01*
X296225Y110405D01*
X296261Y110443D01*
X296291Y110508D01*
X296330Y110568D01*
X296342Y110619D01*
X296364Y110666D01*
X296372Y110737D01*
X296390Y110807D01*
X296386Y110859D01*
X296391Y110910D01*
X296376Y110981D01*
X296371Y111052D01*
X296350Y111100D01*
X296339Y111151D01*
X296302Y111212D01*
X296274Y111278D01*
X296230Y111334D01*
X296213Y111362D01*
X296195Y111377D01*
X296169Y111409D01*
X225110Y182469D01*
X223216Y184363D01*
X222249Y186697D01*
X222249Y310603D01*
X222235Y310693D01*
X222227Y310784D01*
X222215Y310814D01*
X222210Y310846D01*
X222167Y310926D01*
X222131Y311010D01*
X222105Y311042D01*
X222094Y311063D01*
X222071Y311085D01*
X222026Y311141D01*
X219455Y313712D01*
X219455Y321288D01*
X222026Y323859D01*
X222079Y323933D01*
X222139Y324002D01*
X222151Y324032D01*
X222170Y324059D01*
X222197Y324146D01*
X222231Y324230D01*
X222235Y324271D01*
X222242Y324294D01*
X222241Y324326D01*
X222249Y324397D01*
X222249Y374103D01*
X222235Y374193D01*
X222227Y374284D01*
X222215Y374314D01*
X222210Y374346D01*
X222167Y374426D01*
X222131Y374510D01*
X222105Y374542D01*
X222094Y374563D01*
X222071Y374585D01*
X222026Y374641D01*
X219455Y377212D01*
X219455Y384788D01*
X223257Y388590D01*
X223299Y388648D01*
X223348Y388700D01*
X223370Y388747D01*
X223401Y388789D01*
X223422Y388858D01*
X223452Y388923D01*
X223458Y388975D01*
X223473Y389025D01*
X223471Y389096D01*
X223479Y389167D01*
X223468Y389218D01*
X223467Y389270D01*
X223442Y389338D01*
X223427Y389408D01*
X223400Y389453D01*
X223382Y389501D01*
X223337Y389557D01*
X223301Y389619D01*
X223261Y389653D01*
X223229Y389693D01*
X223168Y389732D01*
X223114Y389779D01*
X223065Y389798D01*
X223022Y389826D01*
X222952Y389844D01*
X222886Y389871D01*
X222814Y389879D01*
X222783Y389887D01*
X222760Y389885D01*
X222719Y389889D01*
X206146Y389889D01*
X206056Y389875D01*
X205965Y389867D01*
X205935Y389855D01*
X205903Y389850D01*
X205822Y389807D01*
X205739Y389771D01*
X205706Y389745D01*
X205686Y389734D01*
X205664Y389711D01*
X205608Y389666D01*
X136368Y320426D01*
X136315Y320352D01*
X136255Y320283D01*
X136243Y320253D01*
X136224Y320227D01*
X136197Y320140D01*
X136163Y320055D01*
X136159Y320014D01*
X136152Y319992D01*
X136153Y319959D01*
X136145Y319888D01*
X136145Y313712D01*
X130788Y308355D01*
X123212Y308355D01*
X119410Y312157D01*
X119352Y312199D01*
X119300Y312248D01*
X119281Y312257D01*
X119270Y312267D01*
X119243Y312278D01*
X119211Y312301D01*
X119142Y312322D01*
X119077Y312352D01*
X119051Y312355D01*
X119042Y312359D01*
X119012Y312362D01*
X118975Y312373D01*
X118923Y312372D01*
X118875Y312377D01*
X118872Y312377D01*
X118864Y312376D01*
X118833Y312379D01*
X118782Y312368D01*
X118730Y312367D01*
X118665Y312343D01*
X118629Y312337D01*
X118622Y312333D01*
X118592Y312327D01*
X118547Y312300D01*
X118499Y312282D01*
X118446Y312240D01*
X118412Y312222D01*
X118405Y312215D01*
X118381Y312201D01*
X118347Y312161D01*
X118307Y312129D01*
X118272Y312075D01*
X118242Y312044D01*
X118237Y312033D01*
X118221Y312014D01*
X118202Y311965D01*
X118174Y311922D01*
X118159Y311864D01*
X118139Y311821D01*
X118137Y311805D01*
X118129Y311786D01*
X118121Y311714D01*
X118113Y311683D01*
X118115Y311660D01*
X118111Y311619D01*
X118111Y287426D01*
X118125Y287336D01*
X118133Y287245D01*
X118145Y287215D01*
X118150Y287183D01*
X118193Y287102D01*
X118229Y287019D01*
X118255Y286986D01*
X118266Y286966D01*
X118289Y286944D01*
X118334Y286888D01*
X294889Y110333D01*
X294963Y110280D01*
X295032Y110220D01*
X295062Y110208D01*
X295088Y110189D01*
X295175Y110162D01*
X295260Y110128D01*
X295301Y110124D01*
X295323Y110117D01*
X295356Y110118D01*
X295427Y110110D01*
X295631Y110110D01*
X295702Y110121D01*
G37*
%LPC*%
G36*
X224812Y473455D02*
X224812Y473455D01*
X219455Y478812D01*
X219455Y482448D01*
X219441Y482538D01*
X219433Y482629D01*
X219421Y482659D01*
X219416Y482691D01*
X219373Y482772D01*
X219337Y482855D01*
X219311Y482888D01*
X219300Y482908D01*
X219277Y482930D01*
X219232Y482986D01*
X136856Y565363D01*
X135889Y567697D01*
X135889Y574100D01*
X135886Y574120D01*
X135888Y574139D01*
X135866Y574241D01*
X135850Y574343D01*
X135840Y574360D01*
X135836Y574380D01*
X135783Y574469D01*
X135734Y574560D01*
X135720Y574574D01*
X135710Y574591D01*
X135631Y574658D01*
X135556Y574730D01*
X135538Y574738D01*
X135523Y574751D01*
X135427Y574790D01*
X135333Y574833D01*
X135313Y574835D01*
X135295Y574843D01*
X135128Y574861D01*
X134825Y574861D01*
X130437Y576679D01*
X127079Y580037D01*
X125261Y584425D01*
X125261Y589175D01*
X127079Y593563D01*
X130437Y596921D01*
X134825Y598739D01*
X139575Y598739D01*
X141327Y598013D01*
X141441Y597986D01*
X141554Y597958D01*
X141560Y597958D01*
X141566Y597957D01*
X141683Y597968D01*
X141799Y597977D01*
X141805Y597979D01*
X141811Y597980D01*
X141919Y598028D01*
X142026Y598073D01*
X142032Y598078D01*
X142036Y598080D01*
X142050Y598093D01*
X142157Y598178D01*
X153883Y609904D01*
X156217Y610871D01*
X276454Y610871D01*
X276544Y610885D01*
X276635Y610893D01*
X276665Y610905D01*
X276697Y610910D01*
X276778Y610953D01*
X276861Y610989D01*
X276894Y611015D01*
X276914Y611026D01*
X276936Y611049D01*
X276992Y611094D01*
X409011Y743112D01*
X409015Y743118D01*
X409022Y743123D01*
X409087Y743219D01*
X409154Y743312D01*
X409156Y743319D01*
X409161Y743326D01*
X409193Y743437D01*
X409226Y743547D01*
X409226Y743555D01*
X409228Y743562D01*
X409223Y743678D01*
X409220Y743793D01*
X409217Y743800D01*
X409217Y743808D01*
X409175Y743915D01*
X409136Y744024D01*
X409131Y744030D01*
X409128Y744037D01*
X409054Y744126D01*
X408982Y744216D01*
X408975Y744220D01*
X408970Y744226D01*
X408872Y744286D01*
X408775Y744349D01*
X408767Y744351D01*
X408760Y744355D01*
X408648Y744381D01*
X408536Y744409D01*
X408529Y744408D01*
X408521Y744410D01*
X408353Y744402D01*
X407923Y744334D01*
X407923Y760477D01*
X416561Y760477D01*
X416561Y753580D01*
X416378Y752427D01*
X416378Y752419D01*
X416376Y752411D01*
X416379Y752296D01*
X416379Y752181D01*
X416382Y752173D01*
X416382Y752165D01*
X416422Y752057D01*
X416459Y751948D01*
X416464Y751942D01*
X416467Y751934D01*
X416539Y751844D01*
X416609Y751753D01*
X416615Y751749D01*
X416620Y751742D01*
X416717Y751680D01*
X416813Y751616D01*
X416820Y751614D01*
X416827Y751609D01*
X416939Y751581D01*
X417050Y751551D01*
X417058Y751551D01*
X417066Y751549D01*
X417180Y751558D01*
X417295Y751565D01*
X417303Y751568D01*
X417311Y751568D01*
X417416Y751613D01*
X417524Y751656D01*
X417530Y751662D01*
X417537Y751665D01*
X417668Y751769D01*
X418043Y752144D01*
X420377Y753111D01*
X473163Y753111D01*
X473253Y753125D01*
X473344Y753133D01*
X473374Y753145D01*
X473406Y753150D01*
X473486Y753193D01*
X473570Y753229D01*
X473602Y753255D01*
X473623Y753266D01*
X473645Y753289D01*
X473701Y753334D01*
X478812Y758445D01*
X486388Y758445D01*
X491745Y753088D01*
X491745Y745512D01*
X486388Y740155D01*
X478812Y740155D01*
X478781Y740186D01*
X478707Y740239D01*
X478638Y740299D01*
X478608Y740311D01*
X478581Y740330D01*
X478494Y740357D01*
X478410Y740391D01*
X478369Y740395D01*
X478346Y740402D01*
X478314Y740401D01*
X478243Y740409D01*
X424586Y740409D01*
X424496Y740395D01*
X424405Y740387D01*
X424375Y740375D01*
X424343Y740370D01*
X424262Y740327D01*
X424179Y740291D01*
X424146Y740265D01*
X424126Y740254D01*
X424104Y740231D01*
X424048Y740186D01*
X282997Y599136D01*
X280663Y598169D01*
X271552Y598169D01*
X271482Y598158D01*
X271410Y598156D01*
X271361Y598138D01*
X271310Y598130D01*
X271246Y598096D01*
X271179Y598071D01*
X271138Y598039D01*
X271092Y598014D01*
X271043Y597962D01*
X270987Y597918D01*
X270959Y597874D01*
X270923Y597836D01*
X270893Y597771D01*
X270854Y597711D01*
X270841Y597660D01*
X270819Y597613D01*
X270811Y597542D01*
X270794Y597472D01*
X270798Y597420D01*
X270792Y597369D01*
X270807Y597298D01*
X270813Y597227D01*
X270833Y597179D01*
X270844Y597128D01*
X270881Y597067D01*
X270909Y597001D01*
X270954Y596945D01*
X270971Y596917D01*
X270988Y596902D01*
X271014Y596870D01*
X274321Y593563D01*
X276139Y589175D01*
X276139Y584425D01*
X274321Y580037D01*
X270894Y576610D01*
X270852Y576552D01*
X270803Y576500D01*
X270781Y576453D01*
X270751Y576411D01*
X270730Y576342D01*
X270699Y576277D01*
X270694Y576225D01*
X270678Y576175D01*
X270680Y576104D01*
X270672Y576033D01*
X270683Y575982D01*
X270685Y575930D01*
X270709Y575862D01*
X270724Y575792D01*
X270751Y575747D01*
X270769Y575699D01*
X270814Y575643D01*
X270851Y575581D01*
X270890Y575547D01*
X270923Y575507D01*
X270983Y575468D01*
X271038Y575421D01*
X271086Y575402D01*
X271130Y575374D01*
X271199Y575356D01*
X271266Y575329D01*
X271337Y575321D01*
X271368Y575313D01*
X271392Y575315D01*
X271432Y575311D01*
X280663Y575311D01*
X282997Y574344D01*
X284891Y572450D01*
X338196Y519146D01*
X338270Y519093D01*
X338339Y519033D01*
X338369Y519021D01*
X338395Y519002D01*
X338482Y518975D01*
X338567Y518941D01*
X338608Y518937D01*
X338630Y518930D01*
X338663Y518931D01*
X338734Y518923D01*
X344884Y518923D01*
X351283Y512524D01*
X351283Y503476D01*
X344884Y497077D01*
X335836Y497077D01*
X329437Y503476D01*
X329437Y509626D01*
X329423Y509716D01*
X329415Y509807D01*
X329403Y509837D01*
X329398Y509869D01*
X329355Y509950D01*
X329319Y510033D01*
X329293Y510066D01*
X329282Y510086D01*
X329259Y510108D01*
X329214Y510164D01*
X327182Y512196D01*
X327124Y512238D01*
X327072Y512288D01*
X327025Y512310D01*
X326983Y512340D01*
X326914Y512361D01*
X326849Y512391D01*
X326797Y512397D01*
X326747Y512412D01*
X326676Y512410D01*
X326605Y512418D01*
X326554Y512407D01*
X326502Y512406D01*
X326434Y512381D01*
X326364Y512366D01*
X326319Y512339D01*
X326271Y512322D01*
X326215Y512277D01*
X326153Y512240D01*
X326119Y512200D01*
X326079Y512168D01*
X326040Y512108D01*
X325993Y512053D01*
X325974Y512005D01*
X325946Y511961D01*
X325928Y511891D01*
X325901Y511825D01*
X325893Y511754D01*
X325885Y511722D01*
X325887Y511699D01*
X325883Y511658D01*
X325883Y503476D01*
X319484Y497077D01*
X310436Y497077D01*
X304037Y503476D01*
X304037Y512524D01*
X310436Y518923D01*
X318618Y518923D01*
X318689Y518934D01*
X318761Y518936D01*
X318810Y518954D01*
X318861Y518962D01*
X318924Y518996D01*
X318992Y519021D01*
X319032Y519053D01*
X319078Y519078D01*
X319128Y519130D01*
X319184Y519174D01*
X319212Y519218D01*
X319248Y519256D01*
X319278Y519321D01*
X319317Y519381D01*
X319329Y519432D01*
X319351Y519479D01*
X319359Y519550D01*
X319377Y519620D01*
X319373Y519672D01*
X319378Y519723D01*
X319363Y519794D01*
X319358Y519865D01*
X319337Y519913D01*
X319326Y519964D01*
X319289Y520025D01*
X319261Y520091D01*
X319217Y520147D01*
X319200Y520175D01*
X319182Y520190D01*
X319156Y520222D01*
X276992Y562386D01*
X276918Y562439D01*
X276849Y562499D01*
X276819Y562511D01*
X276793Y562530D01*
X276706Y562557D01*
X276621Y562591D01*
X276580Y562595D01*
X276558Y562602D01*
X276525Y562601D01*
X276454Y562609D01*
X257817Y562609D01*
X255483Y563576D01*
X243672Y575387D01*
X243577Y575455D01*
X243483Y575525D01*
X243477Y575527D01*
X243472Y575530D01*
X243361Y575565D01*
X243249Y575601D01*
X243243Y575601D01*
X243237Y575603D01*
X243120Y575600D01*
X243003Y575599D01*
X242996Y575597D01*
X242991Y575596D01*
X242974Y575590D01*
X242842Y575552D01*
X241175Y574861D01*
X236425Y574861D01*
X232037Y576679D01*
X228679Y580037D01*
X226861Y584425D01*
X226861Y589175D01*
X228679Y593563D01*
X231986Y596870D01*
X232028Y596928D01*
X232077Y596980D01*
X232099Y597027D01*
X232129Y597069D01*
X232150Y597138D01*
X232181Y597203D01*
X232186Y597255D01*
X232202Y597305D01*
X232200Y597376D01*
X232208Y597447D01*
X232197Y597498D01*
X232195Y597550D01*
X232171Y597618D01*
X232156Y597688D01*
X232129Y597733D01*
X232111Y597781D01*
X232066Y597837D01*
X232029Y597899D01*
X231990Y597933D01*
X231957Y597973D01*
X231897Y598012D01*
X231842Y598059D01*
X231794Y598078D01*
X231750Y598106D01*
X231681Y598124D01*
X231614Y598151D01*
X231543Y598159D01*
X231512Y598167D01*
X231488Y598165D01*
X231448Y598169D01*
X220406Y598169D01*
X220398Y598168D01*
X220390Y598169D01*
X220277Y598148D01*
X220163Y598130D01*
X220156Y598126D01*
X220148Y598124D01*
X220047Y598068D01*
X219946Y598014D01*
X219940Y598009D01*
X219933Y598005D01*
X219856Y597920D01*
X219776Y597836D01*
X219773Y597829D01*
X219768Y597823D01*
X219722Y597718D01*
X219673Y597613D01*
X219672Y597605D01*
X219669Y597598D01*
X219658Y597483D01*
X219646Y597369D01*
X219647Y597361D01*
X219647Y597353D01*
X219673Y597241D01*
X219698Y597128D01*
X219702Y597121D01*
X219704Y597114D01*
X219765Y597016D01*
X219824Y596917D01*
X219830Y596912D01*
X219834Y596905D01*
X219958Y596792D01*
X221178Y595906D01*
X222506Y594578D01*
X223611Y593057D01*
X224464Y591383D01*
X225045Y589596D01*
X225246Y588323D01*
X214162Y588323D01*
X214142Y588320D01*
X214123Y588322D01*
X214021Y588300D01*
X213919Y588283D01*
X213902Y588274D01*
X213882Y588270D01*
X213793Y588217D01*
X213702Y588168D01*
X213688Y588154D01*
X213671Y588144D01*
X213604Y588065D01*
X213533Y587990D01*
X213524Y587972D01*
X213511Y587957D01*
X213473Y587861D01*
X213429Y587767D01*
X213427Y587747D01*
X213419Y587729D01*
X213401Y587562D01*
X213401Y586799D01*
X213399Y586799D01*
X213399Y587562D01*
X213396Y587582D01*
X213398Y587601D01*
X213376Y587703D01*
X213359Y587805D01*
X213350Y587822D01*
X213346Y587842D01*
X213293Y587931D01*
X213244Y588022D01*
X213230Y588036D01*
X213220Y588053D01*
X213141Y588120D01*
X213066Y588191D01*
X213048Y588200D01*
X213033Y588213D01*
X212937Y588252D01*
X212843Y588295D01*
X212823Y588297D01*
X212805Y588305D01*
X212638Y588323D01*
X201554Y588323D01*
X201755Y589596D01*
X202336Y591383D01*
X203189Y593057D01*
X204294Y594578D01*
X205622Y595906D01*
X206842Y596792D01*
X206847Y596798D01*
X206854Y596802D01*
X206933Y596885D01*
X207015Y596967D01*
X207018Y596974D01*
X207024Y596980D01*
X207072Y597084D01*
X207123Y597188D01*
X207124Y597196D01*
X207127Y597203D01*
X207140Y597317D01*
X207155Y597432D01*
X207154Y597440D01*
X207154Y597447D01*
X207130Y597560D01*
X207108Y597673D01*
X207104Y597680D01*
X207102Y597688D01*
X207043Y597786D01*
X206986Y597887D01*
X206980Y597892D01*
X206976Y597899D01*
X206889Y597973D01*
X206802Y598051D01*
X206795Y598054D01*
X206789Y598059D01*
X206682Y598102D01*
X206576Y598147D01*
X206568Y598148D01*
X206561Y598151D01*
X206394Y598169D01*
X195352Y598169D01*
X195282Y598158D01*
X195210Y598156D01*
X195161Y598138D01*
X195110Y598130D01*
X195046Y598096D01*
X194979Y598071D01*
X194938Y598039D01*
X194892Y598014D01*
X194843Y597962D01*
X194787Y597918D01*
X194759Y597874D01*
X194723Y597836D01*
X194693Y597771D01*
X194654Y597711D01*
X194641Y597660D01*
X194619Y597613D01*
X194611Y597542D01*
X194594Y597472D01*
X194598Y597420D01*
X194592Y597369D01*
X194607Y597298D01*
X194613Y597227D01*
X194633Y597179D01*
X194644Y597128D01*
X194681Y597067D01*
X194709Y597001D01*
X194754Y596945D01*
X194771Y596917D01*
X194788Y596902D01*
X194814Y596870D01*
X198121Y593563D01*
X199939Y589175D01*
X199939Y584425D01*
X198121Y580037D01*
X194763Y576679D01*
X190375Y574861D01*
X185625Y574861D01*
X181237Y576679D01*
X177879Y580037D01*
X176061Y584425D01*
X176061Y589175D01*
X177879Y593563D01*
X181186Y596870D01*
X181228Y596928D01*
X181277Y596980D01*
X181299Y597027D01*
X181329Y597069D01*
X181350Y597138D01*
X181381Y597203D01*
X181386Y597255D01*
X181402Y597305D01*
X181400Y597376D01*
X181408Y597447D01*
X181397Y597498D01*
X181395Y597550D01*
X181371Y597618D01*
X181356Y597688D01*
X181329Y597733D01*
X181311Y597781D01*
X181266Y597837D01*
X181229Y597899D01*
X181190Y597933D01*
X181157Y597973D01*
X181097Y598012D01*
X181042Y598059D01*
X180994Y598078D01*
X180950Y598106D01*
X180881Y598124D01*
X180814Y598151D01*
X180743Y598159D01*
X180712Y598167D01*
X180688Y598165D01*
X180648Y598169D01*
X169952Y598169D01*
X169882Y598158D01*
X169810Y598156D01*
X169761Y598138D01*
X169710Y598130D01*
X169646Y598096D01*
X169579Y598071D01*
X169538Y598039D01*
X169492Y598014D01*
X169443Y597962D01*
X169387Y597918D01*
X169359Y597874D01*
X169323Y597836D01*
X169293Y597771D01*
X169254Y597711D01*
X169241Y597660D01*
X169219Y597613D01*
X169211Y597542D01*
X169194Y597472D01*
X169198Y597420D01*
X169192Y597369D01*
X169207Y597298D01*
X169213Y597227D01*
X169233Y597179D01*
X169244Y597128D01*
X169281Y597067D01*
X169309Y597001D01*
X169354Y596945D01*
X169371Y596917D01*
X169388Y596902D01*
X169414Y596870D01*
X172721Y593563D01*
X174539Y589175D01*
X174539Y584425D01*
X172721Y580037D01*
X169363Y576679D01*
X164975Y574861D01*
X160225Y574861D01*
X155837Y576679D01*
X152479Y580037D01*
X150661Y584425D01*
X150661Y586882D01*
X150650Y586952D01*
X150648Y587023D01*
X150630Y587072D01*
X150622Y587125D01*
X150589Y587187D01*
X150564Y587254D01*
X150531Y587295D01*
X150506Y587342D01*
X150455Y587391D01*
X150411Y587446D01*
X150367Y587475D01*
X150328Y587512D01*
X150264Y587541D01*
X150205Y587580D01*
X150153Y587593D01*
X150105Y587615D01*
X150035Y587623D01*
X149966Y587641D01*
X149913Y587637D01*
X149861Y587642D01*
X149791Y587627D01*
X149721Y587622D01*
X149672Y587601D01*
X149620Y587590D01*
X149560Y587554D01*
X149494Y587526D01*
X149455Y587491D01*
X149409Y587464D01*
X149363Y587410D01*
X149310Y587363D01*
X149270Y587302D01*
X149249Y587277D01*
X149241Y587256D01*
X149219Y587223D01*
X149192Y587135D01*
X149157Y587049D01*
X149153Y587009D01*
X149146Y586988D01*
X149147Y586955D01*
X149139Y586882D01*
X149139Y584425D01*
X148649Y583242D01*
X148634Y583178D01*
X148609Y583118D01*
X148600Y583035D01*
X148593Y583003D01*
X148594Y582983D01*
X148591Y582951D01*
X148591Y571906D01*
X148605Y571816D01*
X148613Y571725D01*
X148625Y571695D01*
X148630Y571663D01*
X148673Y571582D01*
X148709Y571499D01*
X148735Y571466D01*
X148746Y571446D01*
X148769Y571424D01*
X148814Y571368D01*
X228214Y491968D01*
X228288Y491915D01*
X228357Y491855D01*
X228387Y491843D01*
X228413Y491824D01*
X228500Y491797D01*
X228585Y491763D01*
X228626Y491759D01*
X228648Y491752D01*
X228681Y491753D01*
X228752Y491745D01*
X232388Y491745D01*
X237745Y486388D01*
X237745Y478812D01*
X232388Y473455D01*
X224812Y473455D01*
G37*
%LPD*%
%LPC*%
G36*
X937981Y301751D02*
X937981Y301751D01*
X934620Y303143D01*
X932047Y305716D01*
X930655Y309077D01*
X930655Y325923D01*
X932047Y329284D01*
X933226Y330463D01*
X933279Y330537D01*
X933339Y330606D01*
X933351Y330636D01*
X933370Y330663D01*
X933397Y330750D01*
X933431Y330834D01*
X933435Y330875D01*
X933442Y330898D01*
X933441Y330930D01*
X933449Y331001D01*
X933449Y377183D01*
X934416Y379517D01*
X958626Y403728D01*
X958679Y403802D01*
X958739Y403871D01*
X958751Y403901D01*
X958770Y403927D01*
X958797Y404014D01*
X958831Y404099D01*
X958835Y404140D01*
X958842Y404162D01*
X958841Y404195D01*
X958849Y404266D01*
X958849Y743814D01*
X958835Y743904D01*
X958827Y743995D01*
X958815Y744025D01*
X958810Y744057D01*
X958767Y744137D01*
X958731Y744221D01*
X958705Y744254D01*
X958694Y744274D01*
X958671Y744296D01*
X958626Y744352D01*
X957878Y745101D01*
X957783Y745169D01*
X957689Y745239D01*
X957683Y745241D01*
X957678Y745245D01*
X957567Y745279D01*
X957455Y745315D01*
X957449Y745315D01*
X957443Y745317D01*
X957326Y745314D01*
X957209Y745313D01*
X957202Y745311D01*
X957197Y745311D01*
X957180Y745304D01*
X957048Y745266D01*
X954521Y744219D01*
X950479Y744219D01*
X946744Y745766D01*
X943886Y748624D01*
X942339Y752359D01*
X942339Y771641D01*
X943886Y775376D01*
X946744Y778234D01*
X950479Y779781D01*
X954521Y779781D01*
X958256Y778234D01*
X961114Y775376D01*
X962661Y771641D01*
X962661Y758596D01*
X962675Y758506D01*
X962683Y758415D01*
X962695Y758385D01*
X962700Y758353D01*
X962743Y758273D01*
X962779Y758189D01*
X962805Y758156D01*
X962816Y758136D01*
X962839Y758114D01*
X962884Y758058D01*
X966440Y754502D01*
X966498Y754460D01*
X966550Y754410D01*
X966597Y754388D01*
X966639Y754358D01*
X966708Y754337D01*
X966773Y754307D01*
X966825Y754301D01*
X966875Y754286D01*
X966946Y754288D01*
X967017Y754280D01*
X967068Y754291D01*
X967120Y754292D01*
X967188Y754317D01*
X967258Y754332D01*
X967303Y754359D01*
X967351Y754376D01*
X967407Y754421D01*
X967469Y754458D01*
X967503Y754498D01*
X967543Y754530D01*
X967582Y754590D01*
X967629Y754645D01*
X967648Y754693D01*
X967676Y754737D01*
X967694Y754807D01*
X967721Y754873D01*
X967729Y754944D01*
X967737Y754976D01*
X967735Y754999D01*
X967739Y755040D01*
X967739Y771641D01*
X969286Y775376D01*
X972144Y778234D01*
X975879Y779781D01*
X979921Y779781D01*
X983656Y778234D01*
X986514Y775376D01*
X988061Y771641D01*
X988061Y752359D01*
X986514Y748624D01*
X983656Y745766D01*
X979921Y744219D01*
X975879Y744219D01*
X972603Y745576D01*
X972559Y745587D01*
X972517Y745606D01*
X972440Y745614D01*
X972364Y745632D01*
X972318Y745628D01*
X972273Y745633D01*
X972196Y745616D01*
X972119Y745609D01*
X972077Y745591D01*
X972032Y745581D01*
X971965Y745541D01*
X971894Y745509D01*
X971860Y745478D01*
X971821Y745455D01*
X971770Y745395D01*
X971713Y745343D01*
X971691Y745303D01*
X971661Y745268D01*
X971632Y745195D01*
X971595Y745127D01*
X971586Y745082D01*
X971569Y745040D01*
X971554Y744904D01*
X971551Y744885D01*
X971552Y744880D01*
X971551Y744873D01*
X971551Y400057D01*
X970584Y397723D01*
X946374Y373512D01*
X946321Y373438D01*
X946261Y373369D01*
X946249Y373339D01*
X946230Y373313D01*
X946203Y373226D01*
X946169Y373141D01*
X946165Y373100D01*
X946158Y373078D01*
X946159Y373045D01*
X946151Y372974D01*
X946151Y331001D01*
X946165Y330911D01*
X946173Y330820D01*
X946185Y330790D01*
X946190Y330758D01*
X946233Y330678D01*
X946269Y330594D01*
X946295Y330562D01*
X946306Y330541D01*
X946329Y330519D01*
X946374Y330463D01*
X947553Y329284D01*
X948945Y325923D01*
X948945Y309077D01*
X947553Y305716D01*
X944980Y303143D01*
X941619Y301751D01*
X937981Y301751D01*
G37*
%LPD*%
%LPC*%
G36*
X912581Y403351D02*
X912581Y403351D01*
X909220Y404743D01*
X906647Y407316D01*
X905255Y410677D01*
X905255Y427523D01*
X906647Y430884D01*
X909220Y433457D01*
X912581Y434849D01*
X915772Y434849D01*
X915843Y434860D01*
X915915Y434862D01*
X915964Y434880D01*
X916015Y434888D01*
X916078Y434922D01*
X916146Y434947D01*
X916186Y434979D01*
X916232Y435004D01*
X916282Y435056D01*
X916338Y435100D01*
X916366Y435144D01*
X916402Y435182D01*
X916432Y435247D01*
X916471Y435307D01*
X916483Y435358D01*
X916505Y435405D01*
X916513Y435476D01*
X916531Y435546D01*
X916527Y435598D01*
X916532Y435649D01*
X916517Y435720D01*
X916512Y435791D01*
X916491Y435839D01*
X916480Y435890D01*
X916443Y435951D01*
X916415Y436017D01*
X916371Y436073D01*
X916354Y436101D01*
X916336Y436116D01*
X916310Y436148D01*
X886592Y465866D01*
X886518Y465919D01*
X886449Y465979D01*
X886419Y465991D01*
X886393Y466010D01*
X886306Y466037D01*
X886221Y466071D01*
X886180Y466075D01*
X886158Y466082D01*
X886125Y466081D01*
X886054Y466089D01*
X882657Y466089D01*
X880323Y467056D01*
X848056Y499323D01*
X847089Y501657D01*
X847089Y744452D01*
X847070Y744567D01*
X847053Y744683D01*
X847051Y744688D01*
X847050Y744695D01*
X846995Y744797D01*
X846942Y744902D01*
X846937Y744907D01*
X846934Y744912D01*
X846850Y744992D01*
X846766Y745074D01*
X846760Y745078D01*
X846756Y745081D01*
X846739Y745089D01*
X846619Y745155D01*
X845144Y745766D01*
X842286Y748624D01*
X840739Y752359D01*
X840739Y771641D01*
X842286Y775376D01*
X845144Y778234D01*
X848879Y779781D01*
X852921Y779781D01*
X856656Y778234D01*
X859514Y775376D01*
X861061Y771641D01*
X861061Y752359D01*
X859849Y749433D01*
X859834Y749369D01*
X859809Y749308D01*
X859800Y749225D01*
X859793Y749193D01*
X859794Y749174D01*
X859791Y749141D01*
X859791Y505866D01*
X859805Y505776D01*
X859813Y505685D01*
X859825Y505655D01*
X859830Y505623D01*
X859873Y505542D01*
X859909Y505459D01*
X859935Y505426D01*
X859946Y505406D01*
X859969Y505384D01*
X860014Y505328D01*
X878654Y486687D01*
X878673Y486674D01*
X878687Y486656D01*
X878773Y486602D01*
X878854Y486544D01*
X878876Y486537D01*
X878895Y486524D01*
X878993Y486501D01*
X879089Y486471D01*
X879112Y486472D01*
X879134Y486466D01*
X879234Y486475D01*
X879335Y486478D01*
X879357Y486485D01*
X879380Y486487D01*
X879471Y486527D01*
X879566Y486562D01*
X879584Y486576D01*
X879605Y486586D01*
X879679Y486653D01*
X879758Y486716D01*
X879770Y486735D01*
X879788Y486751D01*
X879837Y486838D01*
X879891Y486923D01*
X879897Y486945D01*
X879908Y486965D01*
X879927Y487064D01*
X879951Y487161D01*
X879949Y487184D01*
X879954Y487207D01*
X879939Y487374D01*
X879855Y487795D01*
X879855Y493777D01*
X887477Y493777D01*
X887477Y479552D01*
X887480Y479532D01*
X887478Y479513D01*
X887500Y479411D01*
X887517Y479309D01*
X887526Y479292D01*
X887530Y479272D01*
X887583Y479183D01*
X887632Y479092D01*
X887646Y479078D01*
X887656Y479061D01*
X887735Y478994D01*
X887810Y478922D01*
X887828Y478914D01*
X887843Y478901D01*
X887939Y478862D01*
X888033Y478819D01*
X888053Y478817D01*
X888071Y478809D01*
X888238Y478791D01*
X889762Y478791D01*
X889782Y478794D01*
X889801Y478792D01*
X889903Y478814D01*
X890005Y478830D01*
X890022Y478840D01*
X890042Y478844D01*
X890131Y478897D01*
X890222Y478946D01*
X890236Y478960D01*
X890253Y478970D01*
X890320Y479049D01*
X890391Y479124D01*
X890400Y479142D01*
X890413Y479157D01*
X890452Y479253D01*
X890495Y479347D01*
X890497Y479367D01*
X890505Y479385D01*
X890523Y479552D01*
X890523Y493777D01*
X898145Y493777D01*
X898145Y487795D01*
X897793Y486029D01*
X897104Y484364D01*
X896103Y482866D01*
X894830Y481593D01*
X893332Y480592D01*
X891667Y479903D01*
X891366Y479843D01*
X891345Y479835D01*
X891322Y479833D01*
X891230Y479792D01*
X891136Y479756D01*
X891118Y479742D01*
X891097Y479733D01*
X891023Y479665D01*
X890945Y479601D01*
X890933Y479582D01*
X890916Y479566D01*
X890868Y479478D01*
X890814Y479393D01*
X890809Y479371D01*
X890797Y479351D01*
X890780Y479252D01*
X890756Y479154D01*
X890758Y479131D01*
X890754Y479109D01*
X890768Y479009D01*
X890777Y478909D01*
X890786Y478888D01*
X890790Y478865D01*
X890835Y478775D01*
X890875Y478684D01*
X890891Y478667D01*
X890901Y478646D01*
X890944Y478604D01*
X890946Y478600D01*
X890961Y478588D01*
X890973Y478576D01*
X891040Y478501D01*
X891060Y478490D01*
X891077Y478474D01*
X891124Y478448D01*
X891133Y478440D01*
X891152Y478432D01*
X891224Y478393D01*
X892597Y477824D01*
X894491Y475930D01*
X935918Y434503D01*
X936012Y434435D01*
X936107Y434365D01*
X936113Y434363D01*
X936118Y434359D01*
X936229Y434325D01*
X936341Y434289D01*
X936347Y434289D01*
X936353Y434287D01*
X936470Y434290D01*
X936587Y434291D01*
X936594Y434293D01*
X936599Y434293D01*
X936616Y434300D01*
X936748Y434338D01*
X937981Y434849D01*
X941619Y434849D01*
X944980Y433457D01*
X947553Y430884D01*
X948945Y427523D01*
X948945Y410677D01*
X947553Y407316D01*
X944980Y404743D01*
X941619Y403351D01*
X937981Y403351D01*
X934620Y404743D01*
X932047Y407316D01*
X930655Y410677D01*
X930655Y421488D01*
X930641Y421578D01*
X930633Y421669D01*
X930621Y421699D01*
X930616Y421731D01*
X930573Y421812D01*
X930537Y421895D01*
X930511Y421928D01*
X930500Y421948D01*
X930477Y421970D01*
X930432Y422026D01*
X924844Y427614D01*
X924786Y427656D01*
X924734Y427706D01*
X924687Y427728D01*
X924645Y427758D01*
X924576Y427779D01*
X924511Y427809D01*
X924459Y427815D01*
X924409Y427830D01*
X924338Y427828D01*
X924267Y427836D01*
X924216Y427825D01*
X924164Y427824D01*
X924096Y427799D01*
X924026Y427784D01*
X923982Y427757D01*
X923933Y427740D01*
X923877Y427695D01*
X923815Y427658D01*
X923781Y427618D01*
X923741Y427586D01*
X923702Y427526D01*
X923655Y427471D01*
X923636Y427423D01*
X923608Y427379D01*
X923590Y427309D01*
X923563Y427243D01*
X923555Y427172D01*
X923547Y427140D01*
X923549Y427117D01*
X923545Y427076D01*
X923545Y410677D01*
X922153Y407316D01*
X919580Y404743D01*
X916219Y403351D01*
X912581Y403351D01*
G37*
%LPD*%
G36*
X358484Y67475D02*
X358484Y67475D01*
X358536Y67476D01*
X358604Y67501D01*
X358674Y67516D01*
X358718Y67543D01*
X358767Y67560D01*
X358823Y67605D01*
X358885Y67642D01*
X358919Y67682D01*
X358959Y67714D01*
X358998Y67774D01*
X359045Y67829D01*
X359064Y67877D01*
X359092Y67921D01*
X359110Y67991D01*
X359137Y68057D01*
X359145Y68128D01*
X359153Y68160D01*
X359151Y68183D01*
X359155Y68224D01*
X359155Y71463D01*
X360973Y75851D01*
X361673Y76551D01*
X361715Y76609D01*
X361764Y76661D01*
X361786Y76708D01*
X361816Y76750D01*
X361837Y76819D01*
X361868Y76884D01*
X361873Y76936D01*
X361889Y76986D01*
X361887Y77057D01*
X361895Y77128D01*
X361884Y77179D01*
X361882Y77231D01*
X361858Y77299D01*
X361843Y77369D01*
X361816Y77414D01*
X361798Y77462D01*
X361753Y77518D01*
X361716Y77580D01*
X361677Y77614D01*
X361644Y77654D01*
X361584Y77693D01*
X361529Y77740D01*
X361481Y77759D01*
X361437Y77787D01*
X361368Y77805D01*
X361301Y77832D01*
X361230Y77840D01*
X361199Y77848D01*
X361175Y77846D01*
X361135Y77850D01*
X358987Y77850D01*
X355860Y79146D01*
X353466Y81540D01*
X352170Y84667D01*
X352170Y88053D01*
X353466Y91180D01*
X354106Y91821D01*
X354159Y91895D01*
X354219Y91964D01*
X354231Y91994D01*
X354250Y92021D01*
X354277Y92108D01*
X354311Y92192D01*
X354315Y92233D01*
X354322Y92256D01*
X354321Y92288D01*
X354329Y92359D01*
X354329Y118974D01*
X354315Y119064D01*
X354307Y119155D01*
X354295Y119185D01*
X354290Y119217D01*
X354247Y119298D01*
X354211Y119381D01*
X354185Y119414D01*
X354174Y119434D01*
X354151Y119456D01*
X354106Y119512D01*
X238456Y235163D01*
X237489Y237497D01*
X237489Y311619D01*
X237486Y311637D01*
X237488Y311655D01*
X237477Y311706D01*
X237476Y311761D01*
X237458Y311810D01*
X237450Y311862D01*
X237439Y311881D01*
X237436Y311896D01*
X237412Y311935D01*
X237391Y311992D01*
X237359Y312033D01*
X237334Y312079D01*
X237316Y312097D01*
X237310Y312107D01*
X237278Y312134D01*
X237238Y312184D01*
X237194Y312213D01*
X237156Y312248D01*
X237130Y312261D01*
X237123Y312267D01*
X237088Y312281D01*
X237031Y312317D01*
X236980Y312330D01*
X236933Y312352D01*
X236902Y312355D01*
X236895Y312359D01*
X236846Y312364D01*
X236792Y312377D01*
X236752Y312374D01*
X236728Y312377D01*
X236725Y312377D01*
X236718Y312376D01*
X236689Y312379D01*
X236618Y312364D01*
X236547Y312358D01*
X236507Y312341D01*
X236482Y312337D01*
X236472Y312332D01*
X236448Y312327D01*
X236387Y312290D01*
X236321Y312262D01*
X236283Y312232D01*
X236265Y312222D01*
X236254Y312211D01*
X236237Y312201D01*
X236222Y312183D01*
X236190Y312157D01*
X235174Y311141D01*
X235121Y311067D01*
X235061Y310998D01*
X235049Y310968D01*
X235030Y310941D01*
X235003Y310854D01*
X234969Y310770D01*
X234965Y310729D01*
X234958Y310706D01*
X234959Y310674D01*
X234951Y310603D01*
X234951Y190906D01*
X234965Y190816D01*
X234973Y190725D01*
X234985Y190695D01*
X234990Y190663D01*
X235033Y190582D01*
X235069Y190499D01*
X235095Y190466D01*
X235106Y190446D01*
X235129Y190424D01*
X235174Y190368D01*
X357856Y67686D01*
X357914Y67644D01*
X357966Y67594D01*
X358013Y67572D01*
X358055Y67542D01*
X358124Y67521D01*
X358189Y67491D01*
X358241Y67485D01*
X358291Y67470D01*
X358362Y67472D01*
X358433Y67464D01*
X358484Y67475D01*
G37*
%LPC*%
G36*
X478076Y497077D02*
X478076Y497077D01*
X471677Y503476D01*
X471677Y512524D01*
X478076Y518923D01*
X484226Y518923D01*
X484316Y518937D01*
X484407Y518945D01*
X484437Y518957D01*
X484469Y518962D01*
X484550Y519005D01*
X484633Y519041D01*
X484666Y519067D01*
X484686Y519078D01*
X484708Y519101D01*
X484764Y519146D01*
X555203Y589584D01*
X557537Y590551D01*
X704303Y590551D01*
X704393Y590565D01*
X704484Y590573D01*
X704514Y590585D01*
X704546Y590590D01*
X704626Y590633D01*
X704710Y590669D01*
X704742Y590695D01*
X704763Y590706D01*
X704785Y590729D01*
X704841Y590774D01*
X707412Y593345D01*
X714988Y593345D01*
X720345Y587988D01*
X720345Y580412D01*
X714988Y575055D01*
X707412Y575055D01*
X704841Y577626D01*
X704767Y577679D01*
X704698Y577739D01*
X704668Y577751D01*
X704641Y577770D01*
X704554Y577797D01*
X704470Y577831D01*
X704429Y577835D01*
X704406Y577842D01*
X704374Y577841D01*
X704303Y577849D01*
X561746Y577849D01*
X561656Y577835D01*
X561565Y577827D01*
X561535Y577815D01*
X561503Y577810D01*
X561422Y577767D01*
X561339Y577731D01*
X561306Y577705D01*
X561286Y577694D01*
X561264Y577671D01*
X561208Y577626D01*
X503804Y520222D01*
X503762Y520164D01*
X503712Y520112D01*
X503690Y520065D01*
X503660Y520023D01*
X503639Y519954D01*
X503609Y519889D01*
X503603Y519837D01*
X503588Y519787D01*
X503590Y519716D01*
X503582Y519645D01*
X503593Y519594D01*
X503594Y519542D01*
X503619Y519474D01*
X503634Y519404D01*
X503661Y519359D01*
X503678Y519311D01*
X503723Y519255D01*
X503760Y519193D01*
X503800Y519159D01*
X503832Y519119D01*
X503892Y519080D01*
X503947Y519033D01*
X503995Y519014D01*
X504039Y518986D01*
X504109Y518968D01*
X504175Y518941D01*
X504246Y518933D01*
X504278Y518925D01*
X504301Y518927D01*
X504342Y518923D01*
X512524Y518923D01*
X518923Y512524D01*
X518923Y503476D01*
X512524Y497077D01*
X503476Y497077D01*
X497077Y503476D01*
X497077Y511658D01*
X497066Y511729D01*
X497064Y511801D01*
X497046Y511849D01*
X497038Y511901D01*
X497004Y511964D01*
X496979Y512032D01*
X496947Y512072D01*
X496922Y512118D01*
X496870Y512168D01*
X496826Y512224D01*
X496782Y512252D01*
X496744Y512288D01*
X496679Y512318D01*
X496619Y512357D01*
X496568Y512369D01*
X496521Y512391D01*
X496450Y512399D01*
X496380Y512417D01*
X496328Y512413D01*
X496277Y512418D01*
X496206Y512403D01*
X496135Y512398D01*
X496087Y512377D01*
X496036Y512366D01*
X495975Y512329D01*
X495909Y512301D01*
X495853Y512256D01*
X495825Y512240D01*
X495810Y512222D01*
X495778Y512196D01*
X493746Y510164D01*
X493693Y510090D01*
X493633Y510021D01*
X493621Y509991D01*
X493602Y509965D01*
X493575Y509877D01*
X493541Y509793D01*
X493537Y509752D01*
X493530Y509730D01*
X493531Y509697D01*
X493523Y509626D01*
X493523Y503476D01*
X487124Y497077D01*
X478076Y497077D01*
G37*
%LPD*%
%LPC*%
G36*
X453412Y460755D02*
X453412Y460755D01*
X448055Y466112D01*
X448055Y473688D01*
X450626Y476259D01*
X450679Y476333D01*
X450739Y476402D01*
X450751Y476432D01*
X450770Y476459D01*
X450797Y476546D01*
X450807Y476573D01*
X450821Y476602D01*
X450822Y476608D01*
X450831Y476630D01*
X450835Y476671D01*
X450842Y476694D01*
X450841Y476726D01*
X450849Y476797D01*
X450849Y479654D01*
X450835Y479744D01*
X450827Y479835D01*
X450815Y479865D01*
X450810Y479897D01*
X450767Y479978D01*
X450731Y480061D01*
X450705Y480094D01*
X450694Y480114D01*
X450671Y480136D01*
X450626Y480192D01*
X438470Y492349D01*
X436576Y494243D01*
X435609Y496577D01*
X435609Y560063D01*
X436576Y562397D01*
X449633Y575454D01*
X449689Y575533D01*
X449752Y575608D01*
X449761Y575633D01*
X449776Y575654D01*
X449805Y575747D01*
X449840Y575838D01*
X449841Y575864D01*
X449849Y575889D01*
X449846Y575986D01*
X449850Y576083D01*
X449843Y576109D01*
X449842Y576135D01*
X449809Y576226D01*
X449782Y576320D01*
X449767Y576341D01*
X449758Y576366D01*
X449697Y576442D01*
X449641Y576522D01*
X449620Y576537D01*
X449604Y576558D01*
X449522Y576610D01*
X449444Y576668D01*
X449419Y576677D01*
X449397Y576691D01*
X449303Y576714D01*
X449210Y576745D01*
X449184Y576744D01*
X449159Y576751D01*
X449062Y576743D01*
X448964Y576742D01*
X448933Y576733D01*
X448913Y576732D01*
X448883Y576719D01*
X448803Y576696D01*
X444375Y574861D01*
X439625Y574861D01*
X435237Y576679D01*
X431879Y580037D01*
X430061Y584425D01*
X430061Y589175D01*
X431879Y593563D01*
X435237Y596921D01*
X439625Y598739D01*
X444375Y598739D01*
X448763Y596921D01*
X452121Y593563D01*
X453939Y589175D01*
X453939Y584425D01*
X452104Y579997D01*
X452082Y579902D01*
X452054Y579809D01*
X452054Y579783D01*
X452048Y579757D01*
X452057Y579661D01*
X452060Y579563D01*
X452069Y579539D01*
X452071Y579513D01*
X452111Y579424D01*
X452144Y579332D01*
X452161Y579312D01*
X452171Y579288D01*
X452237Y579216D01*
X452298Y579140D01*
X452320Y579126D01*
X452338Y579107D01*
X452423Y579060D01*
X452505Y579007D01*
X452530Y579001D01*
X452553Y578988D01*
X452649Y578971D01*
X452744Y578947D01*
X452770Y578949D01*
X452795Y578944D01*
X452892Y578959D01*
X452989Y578966D01*
X453013Y578976D01*
X453039Y578980D01*
X453125Y579024D01*
X453215Y579062D01*
X453241Y579083D01*
X453258Y579092D01*
X453281Y579115D01*
X453346Y579167D01*
X456022Y581843D01*
X456091Y581939D01*
X456160Y582032D01*
X456162Y582038D01*
X456166Y582043D01*
X456200Y582154D01*
X456236Y582266D01*
X456236Y582272D01*
X456238Y582278D01*
X456235Y582395D01*
X456234Y582512D01*
X456232Y582519D01*
X456232Y582524D01*
X456225Y582541D01*
X456187Y582673D01*
X455461Y584425D01*
X455461Y589175D01*
X457279Y593563D01*
X460637Y596921D01*
X465025Y598739D01*
X469775Y598739D01*
X474163Y596921D01*
X477521Y593563D01*
X479339Y589175D01*
X479339Y584425D01*
X477521Y580037D01*
X474163Y576679D01*
X469775Y574861D01*
X467318Y574861D01*
X467228Y574847D01*
X467137Y574839D01*
X467107Y574827D01*
X467075Y574822D01*
X466994Y574779D01*
X466911Y574743D01*
X466878Y574717D01*
X466858Y574706D01*
X466836Y574683D01*
X466780Y574638D01*
X448534Y556392D01*
X448481Y556318D01*
X448421Y556249D01*
X448409Y556219D01*
X448390Y556193D01*
X448363Y556106D01*
X448329Y556021D01*
X448325Y555980D01*
X448318Y555958D01*
X448319Y555925D01*
X448311Y555854D01*
X448311Y516396D01*
X448322Y516325D01*
X448324Y516253D01*
X448342Y516204D01*
X448350Y516153D01*
X448384Y516090D01*
X448409Y516022D01*
X448441Y515982D01*
X448466Y515935D01*
X448518Y515886D01*
X448562Y515830D01*
X448606Y515802D01*
X448644Y515766D01*
X448709Y515736D01*
X448769Y515697D01*
X448820Y515684D01*
X448867Y515662D01*
X448938Y515655D01*
X449008Y515637D01*
X449060Y515641D01*
X449111Y515635D01*
X449182Y515651D01*
X449253Y515656D01*
X449301Y515677D01*
X449352Y515688D01*
X449413Y515724D01*
X449479Y515753D01*
X449535Y515797D01*
X449563Y515814D01*
X449578Y515832D01*
X449610Y515857D01*
X452676Y518923D01*
X461724Y518923D01*
X468123Y512524D01*
X468123Y503476D01*
X461724Y497077D01*
X453542Y497077D01*
X453471Y497066D01*
X453399Y497064D01*
X453350Y497046D01*
X453299Y497038D01*
X453236Y497004D01*
X453168Y496979D01*
X453128Y496947D01*
X453082Y496922D01*
X453032Y496870D01*
X452976Y496826D01*
X452948Y496782D01*
X452912Y496744D01*
X452882Y496679D01*
X452843Y496619D01*
X452831Y496568D01*
X452809Y496521D01*
X452801Y496450D01*
X452783Y496380D01*
X452787Y496328D01*
X452782Y496277D01*
X452797Y496206D01*
X452802Y496135D01*
X452823Y496087D01*
X452834Y496036D01*
X452871Y495975D01*
X452899Y495909D01*
X452943Y495853D01*
X452960Y495825D01*
X452978Y495810D01*
X453004Y495778D01*
X462584Y486197D01*
X463551Y483863D01*
X463551Y476797D01*
X463553Y476781D01*
X463552Y476768D01*
X463566Y476703D01*
X463573Y476616D01*
X463585Y476586D01*
X463590Y476554D01*
X463603Y476530D01*
X463604Y476527D01*
X463612Y476514D01*
X463633Y476474D01*
X463669Y476390D01*
X463695Y476358D01*
X463706Y476337D01*
X463729Y476315D01*
X463774Y476259D01*
X466345Y473688D01*
X466345Y466112D01*
X460988Y460755D01*
X453412Y460755D01*
G37*
%LPD*%
G36*
X117184Y430695D02*
X117184Y430695D01*
X117236Y430696D01*
X117304Y430721D01*
X117374Y430736D01*
X117419Y430763D01*
X117467Y430780D01*
X117523Y430825D01*
X117585Y430862D01*
X117619Y430902D01*
X117659Y430934D01*
X117698Y430994D01*
X117745Y431049D01*
X117764Y431097D01*
X117792Y431141D01*
X117810Y431211D01*
X117837Y431277D01*
X117845Y431348D01*
X117853Y431380D01*
X117851Y431403D01*
X117855Y431444D01*
X117855Y435588D01*
X120426Y438159D01*
X120479Y438233D01*
X120539Y438302D01*
X120551Y438332D01*
X120570Y438359D01*
X120597Y438446D01*
X120631Y438530D01*
X120635Y438571D01*
X120642Y438594D01*
X120641Y438626D01*
X120649Y438697D01*
X120649Y459334D01*
X120635Y459424D01*
X120627Y459515D01*
X120615Y459545D01*
X120610Y459577D01*
X120567Y459658D01*
X120531Y459741D01*
X120505Y459774D01*
X120494Y459794D01*
X120471Y459816D01*
X120426Y459872D01*
X88930Y491368D01*
X88872Y491410D01*
X88820Y491460D01*
X88773Y491482D01*
X88731Y491512D01*
X88662Y491533D01*
X88597Y491563D01*
X88545Y491569D01*
X88495Y491584D01*
X88424Y491582D01*
X88353Y491590D01*
X88302Y491579D01*
X88250Y491578D01*
X88182Y491553D01*
X88112Y491538D01*
X88067Y491511D01*
X88019Y491494D01*
X87963Y491449D01*
X87901Y491412D01*
X87867Y491372D01*
X87827Y491340D01*
X87788Y491280D01*
X87741Y491225D01*
X87722Y491177D01*
X87694Y491133D01*
X87676Y491063D01*
X87649Y490997D01*
X87641Y490926D01*
X87633Y490894D01*
X87635Y490871D01*
X87631Y490830D01*
X87631Y460146D01*
X87645Y460056D01*
X87653Y459965D01*
X87665Y459935D01*
X87670Y459903D01*
X87713Y459822D01*
X87749Y459739D01*
X87775Y459706D01*
X87786Y459686D01*
X87809Y459664D01*
X87854Y459608D01*
X116556Y430906D01*
X116614Y430864D01*
X116666Y430814D01*
X116713Y430792D01*
X116755Y430762D01*
X116824Y430741D01*
X116889Y430711D01*
X116941Y430705D01*
X116991Y430690D01*
X117062Y430692D01*
X117133Y430684D01*
X117184Y430695D01*
G37*
%LPC*%
G36*
X632979Y744219D02*
X632979Y744219D01*
X629244Y745766D01*
X626386Y748624D01*
X624839Y752359D01*
X624839Y771641D01*
X626386Y775376D01*
X629244Y778234D01*
X632979Y779781D01*
X637021Y779781D01*
X640756Y778234D01*
X643614Y775376D01*
X645161Y771641D01*
X645161Y752359D01*
X643614Y748624D01*
X640756Y745766D01*
X637021Y744219D01*
X632979Y744219D01*
G37*
%LPD*%
%LPC*%
G36*
X378979Y744219D02*
X378979Y744219D01*
X375244Y745766D01*
X372386Y748624D01*
X370839Y752359D01*
X370839Y771641D01*
X372386Y775376D01*
X375244Y778234D01*
X378979Y779781D01*
X383021Y779781D01*
X386756Y778234D01*
X389614Y775376D01*
X391161Y771641D01*
X391161Y752359D01*
X389614Y748624D01*
X386756Y745766D01*
X383021Y744219D01*
X378979Y744219D01*
G37*
%LPD*%
%LPC*%
G36*
X874279Y744219D02*
X874279Y744219D01*
X870544Y745766D01*
X867686Y748624D01*
X866139Y752359D01*
X866139Y771641D01*
X867686Y775376D01*
X870544Y778234D01*
X874279Y779781D01*
X878321Y779781D01*
X882056Y778234D01*
X884914Y775376D01*
X886461Y771641D01*
X886461Y752359D01*
X884914Y748624D01*
X882056Y745766D01*
X878321Y744219D01*
X874279Y744219D01*
G37*
%LPD*%
%LPC*%
G36*
X23379Y744219D02*
X23379Y744219D01*
X19644Y745766D01*
X16786Y748624D01*
X15239Y752359D01*
X15239Y771641D01*
X16786Y775376D01*
X19644Y778234D01*
X23379Y779781D01*
X27421Y779781D01*
X31156Y778234D01*
X34014Y775376D01*
X35561Y771641D01*
X35561Y752359D01*
X34014Y748624D01*
X31156Y745766D01*
X27421Y744219D01*
X23379Y744219D01*
G37*
%LPD*%
%LPC*%
G36*
X124979Y744219D02*
X124979Y744219D01*
X121244Y745766D01*
X118386Y748624D01*
X116839Y752359D01*
X116839Y771641D01*
X118386Y775376D01*
X121244Y778234D01*
X124979Y779781D01*
X129021Y779781D01*
X132756Y778234D01*
X135614Y775376D01*
X137161Y771641D01*
X137161Y752359D01*
X135614Y748624D01*
X132756Y745766D01*
X129021Y744219D01*
X124979Y744219D01*
G37*
%LPD*%
%LPC*%
G36*
X912581Y301751D02*
X912581Y301751D01*
X909220Y303143D01*
X906647Y305716D01*
X905255Y309077D01*
X905255Y325923D01*
X906647Y329284D01*
X909220Y331857D01*
X912581Y333249D01*
X916219Y333249D01*
X919580Y331857D01*
X922153Y329284D01*
X923545Y325923D01*
X923545Y309077D01*
X922153Y305716D01*
X919580Y303143D01*
X916219Y301751D01*
X912581Y301751D01*
G37*
%LPD*%
%LPC*%
G36*
X912581Y479551D02*
X912581Y479551D01*
X909220Y480943D01*
X906647Y483516D01*
X905255Y486877D01*
X905255Y503723D01*
X906647Y507084D01*
X909220Y509657D01*
X912581Y511049D01*
X916219Y511049D01*
X919580Y509657D01*
X922153Y507084D01*
X923545Y503723D01*
X923545Y486877D01*
X922153Y483516D01*
X919580Y480943D01*
X916219Y479551D01*
X912581Y479551D01*
G37*
%LPD*%
%LPC*%
G36*
X937981Y479551D02*
X937981Y479551D01*
X934620Y480943D01*
X932047Y483516D01*
X930655Y486877D01*
X930655Y503723D01*
X932047Y507084D01*
X934620Y509657D01*
X937981Y511049D01*
X941619Y511049D01*
X944980Y509657D01*
X947553Y507084D01*
X948945Y503723D01*
X948945Y486877D01*
X947553Y483516D01*
X944980Y480943D01*
X941619Y479551D01*
X937981Y479551D01*
G37*
%LPD*%
%LPC*%
G36*
X937981Y568451D02*
X937981Y568451D01*
X934620Y569843D01*
X932047Y572416D01*
X930655Y575777D01*
X930655Y592623D01*
X932047Y595984D01*
X934620Y598557D01*
X937981Y599949D01*
X941619Y599949D01*
X944980Y598557D01*
X947553Y595984D01*
X948945Y592623D01*
X948945Y575777D01*
X947553Y572416D01*
X944980Y569843D01*
X941619Y568451D01*
X937981Y568451D01*
G37*
%LPD*%
%LPC*%
G36*
X912581Y568451D02*
X912581Y568451D01*
X909220Y569843D01*
X906647Y572416D01*
X905255Y575777D01*
X905255Y592623D01*
X906647Y595984D01*
X909220Y598557D01*
X912581Y599949D01*
X916219Y599949D01*
X919580Y598557D01*
X922153Y595984D01*
X923545Y592623D01*
X923545Y575777D01*
X922153Y572416D01*
X919580Y569843D01*
X916219Y568451D01*
X912581Y568451D01*
G37*
%LPD*%
%LPC*%
G36*
X617131Y122173D02*
X617131Y122173D01*
X612743Y123991D01*
X609385Y127349D01*
X607567Y131737D01*
X607567Y136487D01*
X609385Y140875D01*
X612743Y144233D01*
X617131Y146051D01*
X621881Y146051D01*
X626269Y144233D01*
X629627Y140875D01*
X631445Y136487D01*
X631445Y131737D01*
X629627Y127349D01*
X626269Y123991D01*
X621881Y122173D01*
X617131Y122173D01*
G37*
%LPD*%
%LPC*%
G36*
X413931Y57149D02*
X413931Y57149D01*
X409543Y58967D01*
X406185Y62325D01*
X404367Y66713D01*
X404367Y71463D01*
X406185Y75851D01*
X409543Y79209D01*
X413931Y81027D01*
X418681Y81027D01*
X423069Y79209D01*
X426427Y75851D01*
X428245Y71463D01*
X428245Y66713D01*
X426427Y62325D01*
X423069Y58967D01*
X418681Y57149D01*
X413931Y57149D01*
G37*
%LPD*%
%LPC*%
G36*
X223431Y57149D02*
X223431Y57149D01*
X219043Y58967D01*
X215685Y62325D01*
X213867Y66713D01*
X213867Y71463D01*
X215685Y75851D01*
X219043Y79209D01*
X223431Y81027D01*
X228181Y81027D01*
X232569Y79209D01*
X235927Y75851D01*
X237745Y71463D01*
X237745Y66713D01*
X235927Y62325D01*
X232569Y58967D01*
X228181Y57149D01*
X223431Y57149D01*
G37*
%LPD*%
%LPC*%
G36*
X178219Y57149D02*
X178219Y57149D01*
X173831Y58967D01*
X170473Y62325D01*
X168655Y66713D01*
X168655Y71463D01*
X170473Y75851D01*
X173831Y79209D01*
X178219Y81027D01*
X182969Y81027D01*
X187357Y79209D01*
X190715Y75851D01*
X192533Y71463D01*
X192533Y66713D01*
X190715Y62325D01*
X187357Y58967D01*
X182969Y57149D01*
X178219Y57149D01*
G37*
%LPD*%
%LPC*%
G36*
X312625Y574861D02*
X312625Y574861D01*
X308237Y576679D01*
X304879Y580037D01*
X303061Y584425D01*
X303061Y589175D01*
X304879Y593563D01*
X308237Y596921D01*
X312625Y598739D01*
X317375Y598739D01*
X321763Y596921D01*
X325121Y593563D01*
X326939Y589175D01*
X326939Y584425D01*
X325121Y580037D01*
X321763Y576679D01*
X317375Y574861D01*
X312625Y574861D01*
G37*
%LPD*%
%LPC*%
G36*
X287225Y574861D02*
X287225Y574861D01*
X282837Y576679D01*
X279479Y580037D01*
X277661Y584425D01*
X277661Y589175D01*
X279479Y593563D01*
X282837Y596921D01*
X287225Y598739D01*
X291975Y598739D01*
X296363Y596921D01*
X299721Y593563D01*
X301539Y589175D01*
X301539Y584425D01*
X299721Y580037D01*
X296363Y576679D01*
X291975Y574861D01*
X287225Y574861D01*
G37*
%LPD*%
%LPC*%
G36*
X338025Y574861D02*
X338025Y574861D01*
X333637Y576679D01*
X330279Y580037D01*
X328461Y584425D01*
X328461Y589175D01*
X330279Y593563D01*
X333637Y596921D01*
X338025Y598739D01*
X342775Y598739D01*
X347163Y596921D01*
X350521Y593563D01*
X352339Y589175D01*
X352339Y584425D01*
X350521Y580037D01*
X347163Y576679D01*
X342775Y574861D01*
X338025Y574861D01*
G37*
%LPD*%
%LPC*%
G36*
X414225Y574861D02*
X414225Y574861D01*
X409837Y576679D01*
X406479Y580037D01*
X404661Y584425D01*
X404661Y589175D01*
X406479Y593563D01*
X409837Y596921D01*
X414225Y598739D01*
X418975Y598739D01*
X423363Y596921D01*
X426721Y593563D01*
X428539Y589175D01*
X428539Y584425D01*
X426721Y580037D01*
X423363Y576679D01*
X418975Y574861D01*
X414225Y574861D01*
G37*
%LPD*%
%LPC*%
G36*
X363425Y574861D02*
X363425Y574861D01*
X359037Y576679D01*
X355679Y580037D01*
X353861Y584425D01*
X353861Y589175D01*
X355679Y593563D01*
X359037Y596921D01*
X363425Y598739D01*
X368175Y598739D01*
X372563Y596921D01*
X375921Y593563D01*
X377739Y589175D01*
X377739Y584425D01*
X375921Y580037D01*
X372563Y576679D01*
X368175Y574861D01*
X363425Y574861D01*
G37*
%LPD*%
%LPC*%
G36*
X388825Y574861D02*
X388825Y574861D01*
X384437Y576679D01*
X381079Y580037D01*
X379261Y584425D01*
X379261Y589175D01*
X381079Y593563D01*
X384437Y596921D01*
X388825Y598739D01*
X393575Y598739D01*
X397963Y596921D01*
X401321Y593563D01*
X403139Y589175D01*
X403139Y584425D01*
X401321Y580037D01*
X397963Y576679D01*
X393575Y574861D01*
X388825Y574861D01*
G37*
%LPD*%
%LPC*%
G36*
X223431Y122173D02*
X223431Y122173D01*
X219043Y123991D01*
X215685Y127349D01*
X213867Y131737D01*
X213867Y136487D01*
X215685Y140875D01*
X219043Y144233D01*
X223431Y146051D01*
X228181Y146051D01*
X232569Y144233D01*
X235927Y140875D01*
X237745Y136487D01*
X237745Y131737D01*
X235927Y127349D01*
X232569Y123991D01*
X228181Y122173D01*
X223431Y122173D01*
G37*
%LPD*%
%LPC*%
G36*
X617131Y57149D02*
X617131Y57149D01*
X612743Y58967D01*
X609385Y62325D01*
X607567Y66713D01*
X607567Y71463D01*
X609385Y75851D01*
X612743Y79209D01*
X617131Y81027D01*
X621881Y81027D01*
X626269Y79209D01*
X629627Y75851D01*
X631445Y71463D01*
X631445Y66713D01*
X629627Y62325D01*
X626269Y58967D01*
X621881Y57149D01*
X617131Y57149D01*
G37*
%LPD*%
%LPC*%
G36*
X630476Y14477D02*
X630476Y14477D01*
X624077Y20876D01*
X624077Y29924D01*
X630476Y36323D01*
X639524Y36323D01*
X645923Y29924D01*
X645923Y20876D01*
X639524Y14477D01*
X630476Y14477D01*
G37*
%LPD*%
%LPC*%
G36*
X605076Y14477D02*
X605076Y14477D01*
X598677Y20876D01*
X598677Y29924D01*
X605076Y36323D01*
X614124Y36323D01*
X620523Y29924D01*
X620523Y20876D01*
X614124Y14477D01*
X605076Y14477D01*
G37*
%LPD*%
%LPC*%
G36*
X579676Y14477D02*
X579676Y14477D01*
X573277Y20876D01*
X573277Y29924D01*
X579676Y36323D01*
X588724Y36323D01*
X595123Y29924D01*
X595123Y20876D01*
X588724Y14477D01*
X579676Y14477D01*
G37*
%LPD*%
%LPC*%
G36*
X528876Y14477D02*
X528876Y14477D01*
X522477Y20876D01*
X522477Y29924D01*
X528876Y36323D01*
X537924Y36323D01*
X544323Y29924D01*
X544323Y20876D01*
X537924Y14477D01*
X528876Y14477D01*
G37*
%LPD*%
%LPC*%
G36*
X503476Y14477D02*
X503476Y14477D01*
X497077Y20876D01*
X497077Y29924D01*
X503476Y36323D01*
X512524Y36323D01*
X518923Y29924D01*
X518923Y20876D01*
X512524Y14477D01*
X503476Y14477D01*
G37*
%LPD*%
%LPC*%
G36*
X351076Y14477D02*
X351076Y14477D01*
X344677Y20876D01*
X344677Y29924D01*
X351076Y36323D01*
X360124Y36323D01*
X366523Y29924D01*
X366523Y20876D01*
X360124Y14477D01*
X351076Y14477D01*
G37*
%LPD*%
%LPC*%
G36*
X386636Y497077D02*
X386636Y497077D01*
X380237Y503476D01*
X380237Y512524D01*
X386636Y518923D01*
X395684Y518923D01*
X402083Y512524D01*
X402083Y503476D01*
X395684Y497077D01*
X386636Y497077D01*
G37*
%LPD*%
%LPC*%
G36*
X325676Y14477D02*
X325676Y14477D01*
X319277Y20876D01*
X319277Y29924D01*
X325676Y36323D01*
X334724Y36323D01*
X341123Y29924D01*
X341123Y20876D01*
X334724Y14477D01*
X325676Y14477D01*
G37*
%LPD*%
%LPC*%
G36*
X361236Y497077D02*
X361236Y497077D01*
X354837Y503476D01*
X354837Y512524D01*
X361236Y518923D01*
X370284Y518923D01*
X376683Y512524D01*
X376683Y503476D01*
X370284Y497077D01*
X361236Y497077D01*
G37*
%LPD*%
%LPC*%
G36*
X412036Y497077D02*
X412036Y497077D01*
X405637Y503476D01*
X405637Y512524D01*
X412036Y518923D01*
X421084Y518923D01*
X427483Y512524D01*
X427483Y503476D01*
X421084Y497077D01*
X412036Y497077D01*
G37*
%LPD*%
%LPC*%
G36*
X234236Y497077D02*
X234236Y497077D01*
X227837Y503476D01*
X227837Y512524D01*
X234236Y518923D01*
X243284Y518923D01*
X249683Y512524D01*
X249683Y503476D01*
X243284Y497077D01*
X234236Y497077D01*
G37*
%LPD*%
%LPC*%
G36*
X285036Y497077D02*
X285036Y497077D01*
X278637Y503476D01*
X278637Y512524D01*
X285036Y518923D01*
X294084Y518923D01*
X300483Y512524D01*
X300483Y503476D01*
X294084Y497077D01*
X285036Y497077D01*
G37*
%LPD*%
%LPC*%
G36*
X579676Y497077D02*
X579676Y497077D01*
X573277Y503476D01*
X573277Y512524D01*
X579676Y518923D01*
X588724Y518923D01*
X595123Y512524D01*
X595123Y503476D01*
X588724Y497077D01*
X579676Y497077D01*
G37*
%LPD*%
%LPC*%
G36*
X504212Y765555D02*
X504212Y765555D01*
X498855Y770912D01*
X498855Y778488D01*
X504212Y783845D01*
X511788Y783845D01*
X517145Y778488D01*
X517145Y770912D01*
X511788Y765555D01*
X504212Y765555D01*
G37*
%LPD*%
%LPC*%
G36*
X809012Y575055D02*
X809012Y575055D01*
X803655Y580412D01*
X803655Y587988D01*
X809012Y593345D01*
X816588Y593345D01*
X821945Y587988D01*
X821945Y580412D01*
X816588Y575055D01*
X809012Y575055D01*
G37*
%LPD*%
%LPC*%
G36*
X351812Y460755D02*
X351812Y460755D01*
X346455Y466112D01*
X346455Y473688D01*
X351812Y479045D01*
X359388Y479045D01*
X364745Y473688D01*
X364745Y466112D01*
X359388Y460755D01*
X351812Y460755D01*
G37*
%LPD*%
%LPC*%
G36*
X707412Y486155D02*
X707412Y486155D01*
X702055Y491512D01*
X702055Y499088D01*
X707412Y504445D01*
X714988Y504445D01*
X720345Y499088D01*
X720345Y491512D01*
X714988Y486155D01*
X707412Y486155D01*
G37*
%LPD*%
%LPC*%
G36*
X809012Y486155D02*
X809012Y486155D01*
X803655Y491512D01*
X803655Y499088D01*
X809012Y504445D01*
X816588Y504445D01*
X821945Y499088D01*
X821945Y491512D01*
X816588Y486155D01*
X809012Y486155D01*
G37*
%LPD*%
%LPC*%
G36*
X707412Y308355D02*
X707412Y308355D01*
X702055Y313712D01*
X702055Y321288D01*
X707412Y326645D01*
X714988Y326645D01*
X720345Y321288D01*
X720345Y313712D01*
X714988Y308355D01*
X707412Y308355D01*
G37*
%LPD*%
%LPC*%
G36*
X809012Y308355D02*
X809012Y308355D01*
X803655Y313712D01*
X803655Y321288D01*
X809012Y326645D01*
X816588Y326645D01*
X821945Y321288D01*
X821945Y313712D01*
X816588Y308355D01*
X809012Y308355D01*
G37*
%LPD*%
%LPC*%
G36*
X224812Y422655D02*
X224812Y422655D01*
X219455Y428012D01*
X219455Y435588D01*
X224812Y440945D01*
X232388Y440945D01*
X237745Y435588D01*
X237745Y428012D01*
X232388Y422655D01*
X224812Y422655D01*
G37*
%LPD*%
%LPC*%
G36*
X809012Y409955D02*
X809012Y409955D01*
X803655Y415312D01*
X803655Y422888D01*
X809012Y428245D01*
X816588Y428245D01*
X821945Y422888D01*
X821945Y415312D01*
X816588Y409955D01*
X809012Y409955D01*
G37*
%LPD*%
G36*
X236818Y322632D02*
X236818Y322632D01*
X236870Y322633D01*
X236938Y322658D01*
X237008Y322673D01*
X237052Y322700D01*
X237101Y322718D01*
X237157Y322763D01*
X237219Y322799D01*
X237253Y322839D01*
X237293Y322871D01*
X237332Y322932D01*
X237379Y322986D01*
X237398Y323034D01*
X237426Y323078D01*
X237444Y323148D01*
X237471Y323214D01*
X237479Y323286D01*
X237487Y323317D01*
X237485Y323340D01*
X237489Y323381D01*
X237489Y375119D01*
X237478Y375190D01*
X237476Y375261D01*
X237458Y375310D01*
X237450Y375362D01*
X237416Y375425D01*
X237391Y375492D01*
X237359Y375533D01*
X237334Y375579D01*
X237283Y375628D01*
X237238Y375684D01*
X237194Y375713D01*
X237156Y375748D01*
X237091Y375779D01*
X237031Y375817D01*
X236980Y375830D01*
X236933Y375852D01*
X236862Y375860D01*
X236792Y375877D01*
X236740Y375873D01*
X236689Y375879D01*
X236618Y375864D01*
X236547Y375858D01*
X236499Y375838D01*
X236448Y375827D01*
X236387Y375790D01*
X236321Y375762D01*
X236265Y375717D01*
X236237Y375701D01*
X236222Y375683D01*
X236190Y375657D01*
X235174Y374641D01*
X235121Y374567D01*
X235061Y374498D01*
X235049Y374468D01*
X235030Y374441D01*
X235003Y374354D01*
X234969Y374270D01*
X234965Y374229D01*
X234958Y374206D01*
X234959Y374174D01*
X234951Y374103D01*
X234951Y324397D01*
X234965Y324307D01*
X234973Y324216D01*
X234985Y324186D01*
X234990Y324154D01*
X235033Y324074D01*
X235069Y323990D01*
X235095Y323958D01*
X235106Y323937D01*
X235129Y323915D01*
X235174Y323859D01*
X236190Y322843D01*
X236248Y322801D01*
X236300Y322752D01*
X236347Y322730D01*
X236389Y322699D01*
X236458Y322678D01*
X236523Y322648D01*
X236575Y322642D01*
X236625Y322627D01*
X236696Y322629D01*
X236767Y322621D01*
X236818Y322632D01*
G37*
%LPC*%
G36*
X280923Y763523D02*
X280923Y763523D01*
X280923Y779666D01*
X281779Y779531D01*
X283300Y779036D01*
X284725Y778310D01*
X286019Y777370D01*
X287150Y776239D01*
X288090Y774945D01*
X288816Y773520D01*
X289311Y771999D01*
X289561Y770420D01*
X289561Y763523D01*
X280923Y763523D01*
G37*
%LPD*%
%LPC*%
G36*
X153923Y763523D02*
X153923Y763523D01*
X153923Y779666D01*
X154779Y779531D01*
X156300Y779036D01*
X157725Y778310D01*
X159019Y777370D01*
X160150Y776239D01*
X161090Y774945D01*
X161816Y773520D01*
X162311Y771999D01*
X162561Y770420D01*
X162561Y763523D01*
X153923Y763523D01*
G37*
%LPD*%
%LPC*%
G36*
X52323Y763523D02*
X52323Y763523D01*
X52323Y779666D01*
X53179Y779531D01*
X54700Y779036D01*
X56125Y778310D01*
X57419Y777370D01*
X58550Y776239D01*
X59490Y774945D01*
X60216Y773520D01*
X60711Y771999D01*
X60961Y770420D01*
X60961Y763523D01*
X52323Y763523D01*
G37*
%LPD*%
%LPC*%
G36*
X407923Y763523D02*
X407923Y763523D01*
X407923Y779666D01*
X408779Y779531D01*
X410300Y779036D01*
X411725Y778310D01*
X413019Y777370D01*
X414150Y776239D01*
X415090Y774945D01*
X415816Y773520D01*
X416311Y771999D01*
X416561Y770420D01*
X416561Y763523D01*
X407923Y763523D01*
G37*
%LPD*%
%LPC*%
G36*
X280923Y760477D02*
X280923Y760477D01*
X289561Y760477D01*
X289561Y753580D01*
X289311Y752001D01*
X288816Y750480D01*
X288090Y749055D01*
X287150Y747761D01*
X286019Y746630D01*
X284725Y745690D01*
X283300Y744964D01*
X281779Y744469D01*
X280923Y744334D01*
X280923Y760477D01*
G37*
%LPD*%
%LPC*%
G36*
X52323Y760477D02*
X52323Y760477D01*
X60961Y760477D01*
X60961Y753580D01*
X60711Y752001D01*
X60216Y750480D01*
X59490Y749055D01*
X58550Y747761D01*
X57419Y746630D01*
X56125Y745690D01*
X54700Y744964D01*
X53179Y744469D01*
X52323Y744334D01*
X52323Y760477D01*
G37*
%LPD*%
%LPC*%
G36*
X153923Y760477D02*
X153923Y760477D01*
X162561Y760477D01*
X162561Y753580D01*
X162311Y752001D01*
X161816Y750480D01*
X161090Y749055D01*
X160150Y747761D01*
X159019Y746630D01*
X157725Y745690D01*
X156300Y744964D01*
X154779Y744469D01*
X153923Y744334D01*
X153923Y760477D01*
G37*
%LPD*%
%LPC*%
G36*
X142239Y763523D02*
X142239Y763523D01*
X142239Y770420D01*
X142489Y771999D01*
X142984Y773520D01*
X143710Y774945D01*
X144650Y776239D01*
X145781Y777370D01*
X147075Y778310D01*
X148500Y779036D01*
X150021Y779531D01*
X150877Y779666D01*
X150877Y763523D01*
X142239Y763523D01*
G37*
%LPD*%
%LPC*%
G36*
X40639Y763523D02*
X40639Y763523D01*
X40639Y770420D01*
X40889Y771999D01*
X41384Y773520D01*
X42110Y774945D01*
X43050Y776239D01*
X44181Y777370D01*
X45475Y778310D01*
X46900Y779036D01*
X48421Y779531D01*
X49277Y779666D01*
X49277Y763523D01*
X40639Y763523D01*
G37*
%LPD*%
%LPC*%
G36*
X396239Y763523D02*
X396239Y763523D01*
X396239Y770420D01*
X396489Y771999D01*
X396984Y773520D01*
X397710Y774945D01*
X398650Y776239D01*
X399781Y777370D01*
X401075Y778310D01*
X402500Y779036D01*
X404021Y779531D01*
X404877Y779666D01*
X404877Y763523D01*
X396239Y763523D01*
G37*
%LPD*%
%LPC*%
G36*
X269239Y763523D02*
X269239Y763523D01*
X269239Y770420D01*
X269489Y771999D01*
X269984Y773520D01*
X270710Y774945D01*
X271650Y776239D01*
X272781Y777370D01*
X274075Y778310D01*
X275500Y779036D01*
X277021Y779531D01*
X277877Y779666D01*
X277877Y763523D01*
X269239Y763523D01*
G37*
%LPD*%
%LPC*%
G36*
X277021Y744469D02*
X277021Y744469D01*
X275500Y744964D01*
X274075Y745690D01*
X272781Y746630D01*
X271650Y747761D01*
X270710Y749055D01*
X269984Y750480D01*
X269489Y752001D01*
X269239Y753580D01*
X269239Y760477D01*
X277877Y760477D01*
X277877Y744334D01*
X277021Y744469D01*
G37*
%LPD*%
%LPC*%
G36*
X48421Y744469D02*
X48421Y744469D01*
X46900Y744964D01*
X45475Y745690D01*
X44181Y746630D01*
X43050Y747761D01*
X42110Y749055D01*
X41384Y750480D01*
X40889Y752001D01*
X40639Y753580D01*
X40639Y760477D01*
X49277Y760477D01*
X49277Y744334D01*
X48421Y744469D01*
G37*
%LPD*%
%LPC*%
G36*
X150021Y744469D02*
X150021Y744469D01*
X148500Y744964D01*
X147075Y745690D01*
X145781Y746630D01*
X144650Y747761D01*
X143710Y749055D01*
X142984Y750480D01*
X142489Y752001D01*
X142239Y753580D01*
X142239Y760477D01*
X150877Y760477D01*
X150877Y744334D01*
X150021Y744469D01*
G37*
%LPD*%
%LPC*%
G36*
X404021Y744469D02*
X404021Y744469D01*
X402500Y744964D01*
X401075Y745690D01*
X399781Y746630D01*
X398650Y747761D01*
X397710Y749055D01*
X396984Y750480D01*
X396489Y752001D01*
X396239Y753580D01*
X396239Y760477D01*
X404877Y760477D01*
X404877Y744334D01*
X404021Y744469D01*
G37*
%LPD*%
%LPC*%
G36*
X113323Y588323D02*
X113323Y588323D01*
X113323Y598739D01*
X121532Y598739D01*
X122179Y598566D01*
X122758Y598231D01*
X123231Y597758D01*
X123566Y597179D01*
X123739Y596532D01*
X123739Y588323D01*
X113323Y588323D01*
G37*
%LPD*%
%LPC*%
G36*
X113323Y574861D02*
X113323Y574861D01*
X113323Y585277D01*
X123739Y585277D01*
X123739Y577068D01*
X123566Y576421D01*
X123231Y575842D01*
X122758Y575369D01*
X122179Y575034D01*
X121532Y574861D01*
X113323Y574861D01*
G37*
%LPD*%
%LPC*%
G36*
X102068Y574861D02*
X102068Y574861D01*
X101421Y575034D01*
X100842Y575369D01*
X100369Y575842D01*
X100034Y576421D01*
X99861Y577068D01*
X99861Y585277D01*
X110277Y585277D01*
X110277Y574861D01*
X102068Y574861D01*
G37*
%LPD*%
%LPC*%
G36*
X890523Y496823D02*
X890523Y496823D01*
X890523Y510925D01*
X891667Y510697D01*
X893332Y510008D01*
X894830Y509007D01*
X896103Y507734D01*
X897104Y506236D01*
X897793Y504571D01*
X898145Y502805D01*
X898145Y496823D01*
X890523Y496823D01*
G37*
%LPD*%
%LPC*%
G36*
X890523Y420623D02*
X890523Y420623D01*
X890523Y434725D01*
X891667Y434497D01*
X893332Y433808D01*
X894830Y432807D01*
X896103Y431534D01*
X897104Y430036D01*
X897793Y428371D01*
X898145Y426605D01*
X898145Y420623D01*
X890523Y420623D01*
G37*
%LPD*%
%LPC*%
G36*
X890523Y319023D02*
X890523Y319023D01*
X890523Y333125D01*
X891667Y332897D01*
X893332Y332208D01*
X894830Y331207D01*
X896103Y329934D01*
X897104Y328436D01*
X897793Y326771D01*
X898145Y325005D01*
X898145Y319023D01*
X890523Y319023D01*
G37*
%LPD*%
%LPC*%
G36*
X890523Y585723D02*
X890523Y585723D01*
X890523Y599825D01*
X891667Y599597D01*
X893332Y598908D01*
X894830Y597907D01*
X896103Y596634D01*
X897104Y595136D01*
X897793Y593471D01*
X898145Y591705D01*
X898145Y585723D01*
X890523Y585723D01*
G37*
%LPD*%
%LPC*%
G36*
X890523Y315977D02*
X890523Y315977D01*
X898145Y315977D01*
X898145Y309995D01*
X897793Y308229D01*
X897104Y306564D01*
X896103Y305066D01*
X894830Y303793D01*
X893332Y302792D01*
X891667Y302103D01*
X890523Y301875D01*
X890523Y315977D01*
G37*
%LPD*%
%LPC*%
G36*
X890523Y417577D02*
X890523Y417577D01*
X898145Y417577D01*
X898145Y411595D01*
X897793Y409829D01*
X897104Y408164D01*
X896103Y406666D01*
X894830Y405393D01*
X893332Y404392D01*
X891667Y403703D01*
X890523Y403475D01*
X890523Y417577D01*
G37*
%LPD*%
%LPC*%
G36*
X890523Y582677D02*
X890523Y582677D01*
X898145Y582677D01*
X898145Y576695D01*
X897793Y574929D01*
X897104Y573264D01*
X896103Y571766D01*
X894830Y570493D01*
X893332Y569492D01*
X891667Y568803D01*
X890523Y568575D01*
X890523Y582677D01*
G37*
%LPD*%
%LPC*%
G36*
X879855Y420623D02*
X879855Y420623D01*
X879855Y426605D01*
X880207Y428371D01*
X880896Y430036D01*
X881897Y431534D01*
X883170Y432807D01*
X884668Y433808D01*
X886333Y434497D01*
X887477Y434725D01*
X887477Y420623D01*
X879855Y420623D01*
G37*
%LPD*%
%LPC*%
G36*
X879855Y496823D02*
X879855Y496823D01*
X879855Y502805D01*
X880207Y504571D01*
X880896Y506236D01*
X881897Y507734D01*
X883170Y509007D01*
X884668Y510008D01*
X886333Y510697D01*
X887477Y510925D01*
X887477Y496823D01*
X879855Y496823D01*
G37*
%LPD*%
%LPC*%
G36*
X879855Y319023D02*
X879855Y319023D01*
X879855Y325005D01*
X880207Y326771D01*
X880896Y328436D01*
X881897Y329934D01*
X883170Y331207D01*
X884668Y332208D01*
X886333Y332897D01*
X887477Y333125D01*
X887477Y319023D01*
X879855Y319023D01*
G37*
%LPD*%
%LPC*%
G36*
X879855Y585723D02*
X879855Y585723D01*
X879855Y591705D01*
X880207Y593471D01*
X880896Y595136D01*
X881897Y596634D01*
X883170Y597907D01*
X884668Y598908D01*
X886333Y599597D01*
X887477Y599825D01*
X887477Y585723D01*
X879855Y585723D01*
G37*
%LPD*%
%LPC*%
G36*
X886333Y403703D02*
X886333Y403703D01*
X884668Y404392D01*
X883170Y405393D01*
X881897Y406666D01*
X880896Y408164D01*
X880207Y409829D01*
X879855Y411595D01*
X879855Y417577D01*
X887477Y417577D01*
X887477Y403475D01*
X886333Y403703D01*
G37*
%LPD*%
%LPC*%
G36*
X886333Y568803D02*
X886333Y568803D01*
X884668Y569492D01*
X883170Y570493D01*
X881897Y571766D01*
X880896Y573264D01*
X880207Y574929D01*
X879855Y576695D01*
X879855Y582677D01*
X887477Y582677D01*
X887477Y568575D01*
X886333Y568803D01*
G37*
%LPD*%
%LPC*%
G36*
X886333Y302103D02*
X886333Y302103D01*
X884668Y302792D01*
X883170Y303793D01*
X881897Y305066D01*
X880896Y306564D01*
X880207Y308229D01*
X879855Y309995D01*
X879855Y315977D01*
X887477Y315977D01*
X887477Y301875D01*
X886333Y302103D01*
G37*
%LPD*%
%LPC*%
G36*
X494323Y588323D02*
X494323Y588323D01*
X494323Y598646D01*
X495596Y598445D01*
X497383Y597864D01*
X499057Y597011D01*
X500578Y595906D01*
X501906Y594578D01*
X503011Y593057D01*
X503864Y591383D01*
X504445Y589596D01*
X504646Y588323D01*
X494323Y588323D01*
G37*
%LPD*%
%LPC*%
G36*
X372617Y135635D02*
X372617Y135635D01*
X372617Y145958D01*
X373890Y145757D01*
X375677Y145176D01*
X377351Y144323D01*
X378872Y143218D01*
X380200Y141890D01*
X381305Y140369D01*
X382158Y138695D01*
X382739Y136908D01*
X382940Y135635D01*
X372617Y135635D01*
G37*
%LPD*%
%LPC*%
G36*
X182117Y135635D02*
X182117Y135635D01*
X182117Y145958D01*
X183390Y145757D01*
X185177Y145176D01*
X186851Y144323D01*
X188372Y143218D01*
X189700Y141890D01*
X190805Y140369D01*
X191658Y138695D01*
X192239Y136908D01*
X192440Y135635D01*
X182117Y135635D01*
G37*
%LPD*%
%LPC*%
G36*
X575817Y135635D02*
X575817Y135635D01*
X575817Y145958D01*
X577090Y145757D01*
X578877Y145176D01*
X580551Y144323D01*
X582072Y143218D01*
X583400Y141890D01*
X584505Y140369D01*
X585358Y138695D01*
X585939Y136908D01*
X586140Y135635D01*
X575817Y135635D01*
G37*
%LPD*%
%LPC*%
G36*
X480954Y588323D02*
X480954Y588323D01*
X481155Y589596D01*
X481736Y591383D01*
X482589Y593057D01*
X483694Y594578D01*
X485022Y595906D01*
X486543Y597011D01*
X488217Y597864D01*
X490004Y598445D01*
X491277Y598646D01*
X491277Y588323D01*
X480954Y588323D01*
G37*
%LPD*%
%LPC*%
G36*
X372617Y132589D02*
X372617Y132589D01*
X382940Y132589D01*
X382739Y131316D01*
X382158Y129529D01*
X381305Y127855D01*
X380200Y126334D01*
X378872Y125006D01*
X377351Y123901D01*
X375677Y123048D01*
X373890Y122467D01*
X372617Y122266D01*
X372617Y132589D01*
G37*
%LPD*%
%LPC*%
G36*
X575817Y132589D02*
X575817Y132589D01*
X586140Y132589D01*
X585939Y131316D01*
X585358Y129529D01*
X584505Y127855D01*
X583400Y126334D01*
X582072Y125006D01*
X580551Y123901D01*
X578877Y123048D01*
X577090Y122467D01*
X575817Y122266D01*
X575817Y132589D01*
G37*
%LPD*%
%LPC*%
G36*
X494323Y585277D02*
X494323Y585277D01*
X504646Y585277D01*
X504445Y584004D01*
X503864Y582217D01*
X503011Y580543D01*
X501906Y579022D01*
X500578Y577694D01*
X499057Y576589D01*
X497383Y575736D01*
X495596Y575155D01*
X494323Y574954D01*
X494323Y585277D01*
G37*
%LPD*%
%LPC*%
G36*
X214923Y585277D02*
X214923Y585277D01*
X225246Y585277D01*
X225045Y584004D01*
X224464Y582217D01*
X223611Y580543D01*
X222506Y579022D01*
X221178Y577694D01*
X219657Y576589D01*
X217983Y575736D01*
X216196Y575155D01*
X214923Y574954D01*
X214923Y585277D01*
G37*
%LPD*%
%LPC*%
G36*
X359248Y135635D02*
X359248Y135635D01*
X359449Y136908D01*
X360030Y138695D01*
X360883Y140369D01*
X361988Y141890D01*
X363316Y143218D01*
X364837Y144323D01*
X366511Y145176D01*
X368298Y145757D01*
X369571Y145958D01*
X369571Y135635D01*
X359248Y135635D01*
G37*
%LPD*%
%LPC*%
G36*
X562448Y135635D02*
X562448Y135635D01*
X562649Y136908D01*
X563230Y138695D01*
X564083Y140369D01*
X565188Y141890D01*
X566516Y143218D01*
X568037Y144323D01*
X569711Y145176D01*
X571498Y145757D01*
X572771Y145958D01*
X572771Y135635D01*
X562448Y135635D01*
G37*
%LPD*%
%LPC*%
G36*
X168748Y135635D02*
X168748Y135635D01*
X168949Y136908D01*
X169530Y138695D01*
X170383Y140369D01*
X171488Y141890D01*
X172816Y143218D01*
X174337Y144323D01*
X176011Y145176D01*
X177798Y145757D01*
X179071Y145958D01*
X179071Y135635D01*
X168748Y135635D01*
G37*
%LPD*%
%LPC*%
G36*
X182117Y132589D02*
X182117Y132589D01*
X192440Y132589D01*
X192239Y131316D01*
X191658Y129529D01*
X190805Y127855D01*
X189700Y126334D01*
X188372Y125006D01*
X186851Y123901D01*
X185177Y123048D01*
X183390Y122467D01*
X182117Y122266D01*
X182117Y132589D01*
G37*
%LPD*%
%LPC*%
G36*
X210604Y575155D02*
X210604Y575155D01*
X208817Y575736D01*
X207143Y576589D01*
X205622Y577694D01*
X204294Y579022D01*
X203189Y580543D01*
X202336Y582217D01*
X201755Y584004D01*
X201554Y585277D01*
X211877Y585277D01*
X211877Y574954D01*
X210604Y575155D01*
G37*
%LPD*%
%LPC*%
G36*
X490004Y575155D02*
X490004Y575155D01*
X488217Y575736D01*
X486543Y576589D01*
X485022Y577694D01*
X483694Y579022D01*
X482589Y580543D01*
X481736Y582217D01*
X481155Y584004D01*
X480954Y585277D01*
X491277Y585277D01*
X491277Y574954D01*
X490004Y575155D01*
G37*
%LPD*%
%LPC*%
G36*
X571498Y122467D02*
X571498Y122467D01*
X569711Y123048D01*
X568037Y123901D01*
X566516Y125006D01*
X565188Y126334D01*
X564083Y127855D01*
X563230Y129529D01*
X562649Y131316D01*
X562448Y132589D01*
X572771Y132589D01*
X572771Y122266D01*
X571498Y122467D01*
G37*
%LPD*%
%LPC*%
G36*
X177798Y122467D02*
X177798Y122467D01*
X176011Y123048D01*
X174337Y123901D01*
X172816Y125006D01*
X171488Y126334D01*
X170383Y127855D01*
X169530Y129529D01*
X168949Y131316D01*
X168748Y132589D01*
X179071Y132589D01*
X179071Y122266D01*
X177798Y122467D01*
G37*
%LPD*%
%LPC*%
G36*
X433323Y26923D02*
X433323Y26923D01*
X433323Y36323D01*
X436324Y36323D01*
X442723Y29924D01*
X442723Y26923D01*
X433323Y26923D01*
G37*
%LPD*%
%LPC*%
G36*
X265683Y509523D02*
X265683Y509523D01*
X265683Y518923D01*
X268684Y518923D01*
X275083Y512524D01*
X275083Y509523D01*
X265683Y509523D01*
G37*
%LPD*%
%LPC*%
G36*
X407923Y26923D02*
X407923Y26923D01*
X407923Y36323D01*
X410924Y36323D01*
X417323Y29924D01*
X417323Y26923D01*
X407923Y26923D01*
G37*
%LPD*%
%LPC*%
G36*
X253237Y509523D02*
X253237Y509523D01*
X253237Y512524D01*
X259636Y518923D01*
X262637Y518923D01*
X262637Y509523D01*
X253237Y509523D01*
G37*
%LPD*%
%LPC*%
G36*
X420877Y26923D02*
X420877Y26923D01*
X420877Y29924D01*
X427276Y36323D01*
X430277Y36323D01*
X430277Y26923D01*
X420877Y26923D01*
G37*
%LPD*%
%LPC*%
G36*
X265683Y497077D02*
X265683Y497077D01*
X265683Y506477D01*
X275083Y506477D01*
X275083Y503476D01*
X268684Y497077D01*
X265683Y497077D01*
G37*
%LPD*%
%LPC*%
G36*
X395477Y26923D02*
X395477Y26923D01*
X395477Y29924D01*
X401876Y36323D01*
X404877Y36323D01*
X404877Y26923D01*
X395477Y26923D01*
G37*
%LPD*%
%LPC*%
G36*
X433323Y14477D02*
X433323Y14477D01*
X433323Y23877D01*
X442723Y23877D01*
X442723Y20876D01*
X436324Y14477D01*
X433323Y14477D01*
G37*
%LPD*%
%LPC*%
G36*
X407923Y14477D02*
X407923Y14477D01*
X407923Y23877D01*
X417323Y23877D01*
X417323Y20876D01*
X410924Y14477D01*
X407923Y14477D01*
G37*
%LPD*%
%LPC*%
G36*
X401876Y14477D02*
X401876Y14477D01*
X395477Y20876D01*
X395477Y23877D01*
X404877Y23877D01*
X404877Y14477D01*
X401876Y14477D01*
G37*
%LPD*%
%LPC*%
G36*
X259636Y497077D02*
X259636Y497077D01*
X253237Y503476D01*
X253237Y506477D01*
X262637Y506477D01*
X262637Y497077D01*
X259636Y497077D01*
G37*
%LPD*%
%LPC*%
G36*
X427276Y14477D02*
X427276Y14477D01*
X420877Y20876D01*
X420877Y23877D01*
X430277Y23877D01*
X430277Y14477D01*
X427276Y14477D01*
G37*
%LPD*%
G36*
X251590Y585849D02*
X251590Y585849D01*
X251642Y585850D01*
X251710Y585875D01*
X251780Y585890D01*
X251824Y585917D01*
X251873Y585934D01*
X251929Y585979D01*
X251991Y586016D01*
X252025Y586056D01*
X252065Y586088D01*
X252104Y586148D01*
X252151Y586203D01*
X252170Y586251D01*
X252198Y586295D01*
X252216Y586365D01*
X252243Y586431D01*
X252251Y586502D01*
X252259Y586534D01*
X252257Y586557D01*
X252261Y586598D01*
X252261Y589175D01*
X254079Y593563D01*
X257386Y596870D01*
X257428Y596928D01*
X257477Y596980D01*
X257499Y597027D01*
X257529Y597069D01*
X257550Y597138D01*
X257581Y597203D01*
X257586Y597255D01*
X257602Y597305D01*
X257600Y597376D01*
X257608Y597447D01*
X257597Y597498D01*
X257595Y597550D01*
X257571Y597618D01*
X257556Y597688D01*
X257529Y597733D01*
X257511Y597781D01*
X257466Y597837D01*
X257429Y597899D01*
X257390Y597933D01*
X257357Y597973D01*
X257297Y598012D01*
X257242Y598059D01*
X257194Y598078D01*
X257150Y598106D01*
X257081Y598124D01*
X257014Y598151D01*
X256943Y598159D01*
X256912Y598167D01*
X256888Y598165D01*
X256848Y598169D01*
X246152Y598169D01*
X246082Y598158D01*
X246010Y598156D01*
X245961Y598138D01*
X245910Y598130D01*
X245846Y598096D01*
X245779Y598071D01*
X245738Y598039D01*
X245692Y598014D01*
X245643Y597962D01*
X245587Y597918D01*
X245559Y597874D01*
X245523Y597836D01*
X245493Y597771D01*
X245454Y597711D01*
X245441Y597660D01*
X245419Y597613D01*
X245411Y597542D01*
X245394Y597472D01*
X245398Y597420D01*
X245392Y597369D01*
X245407Y597298D01*
X245413Y597227D01*
X245433Y597179D01*
X245444Y597128D01*
X245481Y597067D01*
X245509Y597001D01*
X245554Y596945D01*
X245571Y596917D01*
X245588Y596902D01*
X245614Y596870D01*
X248921Y593563D01*
X250739Y589175D01*
X250739Y586598D01*
X250753Y586508D01*
X250761Y586417D01*
X250773Y586387D01*
X250778Y586355D01*
X250821Y586274D01*
X250857Y586191D01*
X250883Y586158D01*
X250894Y586138D01*
X250917Y586116D01*
X250962Y586060D01*
X251020Y586018D01*
X251072Y585968D01*
X251119Y585946D01*
X251161Y585916D01*
X251230Y585895D01*
X251295Y585865D01*
X251347Y585859D01*
X251397Y585844D01*
X251468Y585846D01*
X251539Y585838D01*
X251590Y585849D01*
G37*
%LPC*%
G36*
X534923Y750823D02*
X534923Y750823D01*
X534923Y758445D01*
X537188Y758445D01*
X542545Y753088D01*
X542545Y750823D01*
X534923Y750823D01*
G37*
%LPD*%
%LPC*%
G36*
X524255Y750823D02*
X524255Y750823D01*
X524255Y753088D01*
X529612Y758445D01*
X531877Y758445D01*
X531877Y750823D01*
X524255Y750823D01*
G37*
%LPD*%
%LPC*%
G36*
X534923Y740155D02*
X534923Y740155D01*
X534923Y747777D01*
X542545Y747777D01*
X542545Y745512D01*
X537188Y740155D01*
X534923Y740155D01*
G37*
%LPD*%
%LPC*%
G36*
X529612Y740155D02*
X529612Y740155D01*
X524255Y745512D01*
X524255Y747777D01*
X531877Y747777D01*
X531877Y740155D01*
X529612Y740155D01*
G37*
%LPD*%
%LPC*%
G36*
X574293Y134111D02*
X574293Y134111D01*
X574293Y134113D01*
X574295Y134113D01*
X574295Y134111D01*
X574293Y134111D01*
G37*
%LPD*%
%LPC*%
G36*
X264159Y507999D02*
X264159Y507999D01*
X264159Y508001D01*
X264161Y508001D01*
X264161Y507999D01*
X264159Y507999D01*
G37*
%LPD*%
%LPC*%
G36*
X888999Y317499D02*
X888999Y317499D01*
X888999Y317501D01*
X889001Y317501D01*
X889001Y317499D01*
X888999Y317499D01*
G37*
%LPD*%
%LPC*%
G36*
X279399Y761999D02*
X279399Y761999D01*
X279399Y762001D01*
X279401Y762001D01*
X279401Y761999D01*
X279399Y761999D01*
G37*
%LPD*%
%LPC*%
G36*
X406399Y761999D02*
X406399Y761999D01*
X406399Y762001D01*
X406401Y762001D01*
X406401Y761999D01*
X406399Y761999D01*
G37*
%LPD*%
%LPC*%
G36*
X888999Y495299D02*
X888999Y495299D01*
X888999Y495301D01*
X889001Y495301D01*
X889001Y495299D01*
X888999Y495299D01*
G37*
%LPD*%
%LPC*%
G36*
X533399Y749299D02*
X533399Y749299D01*
X533399Y749301D01*
X533401Y749301D01*
X533401Y749299D01*
X533399Y749299D01*
G37*
%LPD*%
%LPC*%
G36*
X888999Y419099D02*
X888999Y419099D01*
X888999Y419101D01*
X889001Y419101D01*
X889001Y419099D01*
X888999Y419099D01*
G37*
%LPD*%
%LPC*%
G36*
X180593Y134111D02*
X180593Y134111D01*
X180593Y134113D01*
X180595Y134113D01*
X180595Y134111D01*
X180593Y134111D01*
G37*
%LPD*%
%LPC*%
G36*
X371093Y134111D02*
X371093Y134111D01*
X371093Y134113D01*
X371095Y134113D01*
X371095Y134111D01*
X371093Y134111D01*
G37*
%LPD*%
%LPC*%
G36*
X111799Y586799D02*
X111799Y586799D01*
X111799Y586801D01*
X111801Y586801D01*
X111801Y586799D01*
X111799Y586799D01*
G37*
%LPD*%
%LPC*%
G36*
X431799Y25399D02*
X431799Y25399D01*
X431799Y25401D01*
X431801Y25401D01*
X431801Y25399D01*
X431799Y25399D01*
G37*
%LPD*%
%LPC*%
G36*
X406399Y25399D02*
X406399Y25399D01*
X406399Y25401D01*
X406401Y25401D01*
X406401Y25399D01*
X406399Y25399D01*
G37*
%LPD*%
%LPC*%
G36*
X888999Y584199D02*
X888999Y584199D01*
X888999Y584201D01*
X889001Y584201D01*
X889001Y584199D01*
X888999Y584199D01*
G37*
%LPD*%
%LPC*%
G36*
X50799Y761999D02*
X50799Y761999D01*
X50799Y762001D01*
X50801Y762001D01*
X50801Y761999D01*
X50799Y761999D01*
G37*
%LPD*%
%LPC*%
G36*
X152399Y761999D02*
X152399Y761999D01*
X152399Y762001D01*
X152401Y762001D01*
X152401Y761999D01*
X152399Y761999D01*
G37*
%LPD*%
%LPC*%
G36*
X492799Y586799D02*
X492799Y586799D01*
X492799Y586801D01*
X492801Y586801D01*
X492801Y586799D01*
X492799Y586799D01*
G37*
%LPD*%
D10*
X25400Y754380D02*
X25400Y769620D01*
X50800Y769620D02*
X50800Y754380D01*
X952500Y754380D02*
X952500Y769620D01*
X977900Y769620D02*
X977900Y754380D01*
X381000Y754380D02*
X381000Y769620D01*
X406400Y769620D02*
X406400Y754380D01*
X254000Y754380D02*
X254000Y769620D01*
X279400Y769620D02*
X279400Y754380D01*
X127000Y754380D02*
X127000Y769620D01*
X152400Y769620D02*
X152400Y754380D01*
X635000Y754380D02*
X635000Y769620D01*
X660400Y769620D02*
X660400Y754380D01*
X736600Y754380D02*
X736600Y769620D01*
X762000Y769620D02*
X762000Y754380D01*
X850900Y754380D02*
X850900Y769620D01*
X876300Y769620D02*
X876300Y754380D01*
D11*
X111800Y586800D03*
D12*
X137200Y586800D03*
X162600Y586800D03*
X188000Y586800D03*
X213400Y586800D03*
X238800Y586800D03*
X264200Y586800D03*
X289600Y586800D03*
X315000Y586800D03*
X340400Y586800D03*
X365800Y586800D03*
X391200Y586800D03*
X416600Y586800D03*
X442000Y586800D03*
X467400Y586800D03*
X492800Y586800D03*
D13*
X355600Y469900D03*
X457200Y469900D03*
X482600Y749300D03*
X533400Y749300D03*
X508000Y774700D03*
X711200Y584200D03*
X812800Y584200D03*
X711200Y495300D03*
X812800Y495300D03*
X711200Y419100D03*
X812800Y419100D03*
X711200Y317500D03*
X812800Y317500D03*
X127000Y317500D03*
X228600Y317500D03*
X127000Y381000D03*
X228600Y381000D03*
X127000Y431800D03*
X228600Y431800D03*
X127000Y482600D03*
X228600Y482600D03*
D12*
X225806Y134112D03*
X225806Y69088D03*
X180594Y134112D03*
X180594Y69088D03*
X416306Y134112D03*
X416306Y69088D03*
X371094Y134112D03*
X371094Y69088D03*
X619506Y134112D03*
X619506Y69088D03*
X574294Y134112D03*
X574294Y69088D03*
D14*
X889000Y577596D02*
X889000Y590804D01*
X939800Y590804D02*
X939800Y577596D01*
X914400Y577596D02*
X914400Y590804D01*
X889000Y501904D02*
X889000Y488696D01*
X939800Y488696D02*
X939800Y501904D01*
X914400Y501904D02*
X914400Y488696D01*
X889000Y425704D02*
X889000Y412496D01*
X939800Y412496D02*
X939800Y425704D01*
X914400Y425704D02*
X914400Y412496D01*
X889000Y324104D02*
X889000Y310896D01*
X939800Y310896D02*
X939800Y324104D01*
X914400Y324104D02*
X914400Y310896D01*
D15*
X533400Y508000D03*
X508000Y25400D03*
X558800Y508000D03*
X584200Y508000D03*
X609600Y508000D03*
X635000Y508000D03*
X508000Y508000D03*
X482600Y508000D03*
X457200Y508000D03*
X416560Y508000D03*
X391160Y508000D03*
X365760Y508000D03*
X340360Y508000D03*
X314960Y508000D03*
X289560Y508000D03*
X264160Y508000D03*
X238760Y508000D03*
X533400Y25400D03*
X558800Y25400D03*
X584200Y25400D03*
X609600Y25400D03*
X635000Y25400D03*
X457200Y25400D03*
X431800Y25400D03*
X406400Y25400D03*
X381000Y25400D03*
X355600Y25400D03*
X330200Y25400D03*
D16*
X457200Y469900D02*
X457200Y482600D01*
X441960Y497840D01*
X441960Y558800D01*
X467360Y584200D01*
X467400Y586800D01*
X340360Y508000D02*
X279400Y568960D01*
X259080Y568960D01*
X243840Y584200D01*
X238800Y586800D01*
X421640Y746760D02*
X482600Y746760D01*
X421640Y746760D02*
X279400Y604520D01*
X157480Y604520D01*
X142240Y589280D01*
X482600Y746760D02*
X482600Y749300D01*
X142240Y589280D02*
X137200Y586800D01*
X228600Y381000D02*
X228600Y317500D01*
X381000Y35560D02*
X381000Y25400D01*
X381000Y35560D02*
X228600Y187960D01*
X228600Y317500D01*
X142240Y568960D02*
X142240Y584200D01*
X142240Y568960D02*
X228600Y482600D01*
X142240Y584200D02*
X137200Y586800D01*
X558800Y584200D02*
X711200Y584200D01*
X558800Y584200D02*
X482600Y508000D01*
X619760Y421640D02*
X711200Y421640D01*
X619760Y421640D02*
X533400Y508000D01*
X711200Y421640D02*
X711200Y419100D01*
X680720Y436880D02*
X609600Y508000D01*
X680720Y436880D02*
X716280Y436880D01*
X726440Y426720D01*
X726440Y411480D01*
X685800Y370840D01*
X650240Y370840D01*
X416560Y137160D01*
X416306Y134112D01*
X502920Y751840D02*
X533400Y751840D01*
X500380Y754380D02*
X487680Y767080D01*
X500380Y754380D02*
X502920Y751840D01*
X487680Y767080D02*
X411480Y767080D01*
X406400Y762000D01*
X533400Y751840D02*
X533400Y749300D01*
X350520Y762000D02*
X279400Y762000D01*
X350520Y762000D02*
X375920Y736600D01*
X386080Y736600D01*
X411480Y762000D01*
X406400Y762000D01*
X497840Y751840D02*
X497840Y589280D01*
X492800Y586800D01*
X497840Y751840D02*
X500380Y754380D01*
X96520Y762000D02*
X50800Y762000D01*
X96520Y762000D02*
X121920Y736600D01*
X132080Y736600D01*
X152400Y756920D01*
X152400Y762000D01*
X264160Y538480D02*
X264160Y508000D01*
X264160Y538480D02*
X218440Y584200D01*
X213400Y586800D01*
X279400Y751840D02*
X279400Y762000D01*
X279400Y751840D02*
X116840Y589280D01*
X111800Y586800D01*
X889000Y419100D02*
X889000Y396240D01*
X889000Y317500D01*
X939800Y441960D02*
X889000Y492760D01*
X939800Y441960D02*
X944880Y441960D01*
X955040Y431800D01*
X955040Y406400D01*
X944880Y396240D01*
X889000Y396240D01*
X889000Y492760D02*
X889000Y495300D01*
X375920Y132080D02*
X375920Y91440D01*
X396240Y71120D01*
X396240Y35560D01*
X406400Y25400D01*
X375920Y132080D02*
X371094Y134112D01*
X833120Y314960D02*
X889000Y314960D01*
X833120Y314960D02*
X670560Y152400D01*
X594360Y152400D01*
X579120Y137160D01*
X889000Y314960D02*
X889000Y317500D01*
X579120Y137160D02*
X574294Y134112D01*
X264160Y243840D02*
X264160Y508000D01*
X264160Y243840D02*
X370840Y137160D01*
X371094Y134112D01*
X660400Y762000D02*
X706120Y762000D01*
X731520Y736600D01*
X736600Y736600D02*
X741680Y736600D01*
X736600Y736600D02*
X731520Y736600D01*
X741680Y736600D02*
X762000Y756920D01*
X762000Y762000D01*
X457200Y147320D02*
X457200Y25400D01*
X457200Y147320D02*
X670560Y360680D01*
X690880Y360680D01*
X736600Y406400D01*
X736600Y736600D01*
X939800Y375920D02*
X939800Y317500D01*
X939800Y375920D02*
X965200Y401320D01*
X965200Y746760D01*
X949960Y762000D01*
X952500Y762000D01*
X889000Y472440D02*
X939800Y421640D01*
X889000Y472440D02*
X883920Y472440D01*
X853440Y502920D01*
X853440Y762000D01*
X939800Y421640D02*
X939800Y419100D01*
X853440Y762000D02*
X850900Y762000D01*
X360680Y121920D02*
X360680Y86360D01*
X360680Y121920D02*
X243840Y238760D01*
X243840Y386080D01*
X233680Y396240D01*
X203200Y396240D01*
X127000Y320040D01*
X127000Y317500D01*
D17*
X360680Y86360D03*
D16*
X127000Y381000D02*
X127000Y411480D01*
X81280Y457200D01*
X81280Y599440D01*
X218440Y736600D01*
X111760Y284480D02*
X294640Y101600D01*
X111760Y284480D02*
X111760Y365760D01*
X127000Y381000D01*
D17*
X218440Y736600D03*
X294640Y101600D03*
D16*
X127000Y431800D02*
X127000Y462280D01*
X91440Y497840D01*
X91440Y594360D01*
X218440Y721360D01*
X223520Y721360D01*
X254000Y751840D01*
X254000Y762000D01*
X558800Y60960D02*
X558800Y25400D01*
X558800Y60960D02*
X508000Y111760D01*
X508000Y177800D01*
D17*
X508000Y177800D03*
M02*
