G04 EAGLE Gerber X2 export*
%TF.Part,Single*%
%TF.FileFunction,Copper,L1,Top,Mixed*%
%TF.FilePolarity,Positive*%
%TF.GenerationSoftware,Autodesk,EAGLE,9.1.3*%
%TF.CreationDate,2018-12-12T10:38:32Z*%
G75*
%MOMM*%
%FSLAX34Y34*%
%LPD*%
%AMOC8*
5,1,8,0,0,1.08239X$1,22.5*%
G01*
%ADD10C,1.524000*%
%ADD11R,1.879600X1.879600*%
%ADD12C,1.879600*%
%ADD13P,1.429621X8X22.500000*%
%ADD14C,1.320800*%
%ADD15P,1.814519X8X22.500000*%
%ADD16C,0.762000*%
%ADD17C,1.193800*%

G36*
X989098Y10164D02*
X989098Y10164D01*
X989117Y10162D01*
X989219Y10184D01*
X989321Y10200D01*
X989338Y10210D01*
X989358Y10214D01*
X989447Y10267D01*
X989538Y10316D01*
X989552Y10330D01*
X989569Y10340D01*
X989636Y10419D01*
X989708Y10494D01*
X989716Y10512D01*
X989729Y10527D01*
X989768Y10623D01*
X989811Y10717D01*
X989813Y10737D01*
X989821Y10755D01*
X989839Y10922D01*
X989839Y789078D01*
X989836Y789098D01*
X989838Y789117D01*
X989816Y789219D01*
X989800Y789321D01*
X989790Y789338D01*
X989786Y789358D01*
X989733Y789447D01*
X989684Y789538D01*
X989670Y789552D01*
X989660Y789569D01*
X989581Y789636D01*
X989506Y789708D01*
X989488Y789716D01*
X989473Y789729D01*
X989377Y789768D01*
X989283Y789811D01*
X989263Y789813D01*
X989245Y789821D01*
X989078Y789839D01*
X10922Y789839D01*
X10902Y789836D01*
X10883Y789838D01*
X10781Y789816D01*
X10679Y789800D01*
X10662Y789790D01*
X10642Y789786D01*
X10553Y789733D01*
X10462Y789684D01*
X10448Y789670D01*
X10431Y789660D01*
X10364Y789581D01*
X10292Y789506D01*
X10284Y789488D01*
X10271Y789473D01*
X10232Y789377D01*
X10189Y789283D01*
X10187Y789263D01*
X10179Y789245D01*
X10161Y789078D01*
X10161Y10922D01*
X10164Y10902D01*
X10162Y10883D01*
X10184Y10781D01*
X10200Y10679D01*
X10210Y10662D01*
X10214Y10642D01*
X10267Y10553D01*
X10316Y10462D01*
X10330Y10448D01*
X10340Y10431D01*
X10419Y10364D01*
X10494Y10292D01*
X10512Y10284D01*
X10527Y10271D01*
X10623Y10232D01*
X10717Y10189D01*
X10737Y10187D01*
X10755Y10179D01*
X10922Y10161D01*
X989078Y10161D01*
X989098Y10164D01*
G37*
%LPC*%
G36*
X452676Y14477D02*
X452676Y14477D01*
X446277Y20876D01*
X446277Y29924D01*
X452676Y36323D01*
X460858Y36323D01*
X460929Y36334D01*
X461001Y36336D01*
X461050Y36354D01*
X461101Y36362D01*
X461164Y36396D01*
X461232Y36421D01*
X461272Y36453D01*
X461318Y36478D01*
X461368Y36529D01*
X461424Y36574D01*
X461452Y36618D01*
X461488Y36656D01*
X461518Y36721D01*
X461557Y36781D01*
X461569Y36832D01*
X461591Y36879D01*
X461599Y36950D01*
X461617Y37020D01*
X461613Y37072D01*
X461618Y37123D01*
X461603Y37194D01*
X461598Y37265D01*
X461577Y37313D01*
X461566Y37364D01*
X461529Y37425D01*
X461501Y37491D01*
X461457Y37547D01*
X461440Y37575D01*
X461422Y37590D01*
X461396Y37622D01*
X429544Y69474D01*
X429486Y69516D01*
X429434Y69566D01*
X429387Y69588D01*
X429345Y69618D01*
X429276Y69639D01*
X429211Y69669D01*
X429159Y69675D01*
X429109Y69690D01*
X429038Y69688D01*
X428967Y69696D01*
X428916Y69685D01*
X428864Y69684D01*
X428796Y69659D01*
X428726Y69644D01*
X428682Y69617D01*
X428633Y69600D01*
X428577Y69555D01*
X428515Y69518D01*
X428481Y69478D01*
X428441Y69446D01*
X428402Y69386D01*
X428355Y69331D01*
X428336Y69283D01*
X428308Y69239D01*
X428290Y69169D01*
X428263Y69103D01*
X428255Y69032D01*
X428247Y69000D01*
X428249Y68977D01*
X428245Y68936D01*
X428245Y66713D01*
X426427Y62325D01*
X423069Y58967D01*
X418681Y57149D01*
X413931Y57149D01*
X409543Y58967D01*
X406185Y62325D01*
X404367Y66713D01*
X404367Y71463D01*
X406185Y75851D01*
X409044Y78710D01*
X409086Y78768D01*
X409135Y78820D01*
X409157Y78867D01*
X409187Y78909D01*
X409208Y78978D01*
X409239Y79043D01*
X409244Y79095D01*
X409260Y79145D01*
X409258Y79216D01*
X409266Y79287D01*
X409255Y79338D01*
X409253Y79390D01*
X409229Y79458D01*
X409214Y79528D01*
X409187Y79573D01*
X409169Y79621D01*
X409124Y79677D01*
X409087Y79739D01*
X409048Y79773D01*
X409015Y79813D01*
X408955Y79852D01*
X408900Y79899D01*
X408852Y79918D01*
X408808Y79946D01*
X408739Y79964D01*
X408672Y79991D01*
X408601Y79999D01*
X408570Y80007D01*
X408546Y80005D01*
X408506Y80009D01*
X378894Y80009D01*
X378824Y79998D01*
X378752Y79996D01*
X378703Y79978D01*
X378652Y79970D01*
X378588Y79936D01*
X378521Y79911D01*
X378480Y79879D01*
X378434Y79854D01*
X378385Y79802D01*
X378329Y79758D01*
X378301Y79714D01*
X378265Y79676D01*
X378235Y79611D01*
X378196Y79551D01*
X378183Y79500D01*
X378161Y79453D01*
X378153Y79382D01*
X378136Y79312D01*
X378140Y79260D01*
X378134Y79209D01*
X378149Y79138D01*
X378155Y79067D01*
X378175Y79019D01*
X378186Y78968D01*
X378223Y78907D01*
X378251Y78841D01*
X378296Y78785D01*
X378313Y78757D01*
X378330Y78742D01*
X378356Y78710D01*
X381215Y75851D01*
X383033Y71463D01*
X383033Y66713D01*
X381215Y62325D01*
X377857Y58967D01*
X373469Y57149D01*
X368719Y57149D01*
X364331Y58967D01*
X360973Y62325D01*
X359155Y66713D01*
X359155Y71463D01*
X360973Y75851D01*
X361673Y76551D01*
X361715Y76609D01*
X361764Y76661D01*
X361786Y76708D01*
X361816Y76750D01*
X361837Y76819D01*
X361868Y76884D01*
X361873Y76936D01*
X361889Y76986D01*
X361887Y77057D01*
X361895Y77128D01*
X361884Y77179D01*
X361882Y77231D01*
X361858Y77299D01*
X361843Y77369D01*
X361816Y77414D01*
X361798Y77462D01*
X361753Y77518D01*
X361716Y77580D01*
X361677Y77614D01*
X361644Y77654D01*
X361584Y77693D01*
X361529Y77740D01*
X361481Y77759D01*
X361437Y77787D01*
X361368Y77805D01*
X361301Y77832D01*
X361230Y77840D01*
X361199Y77848D01*
X361175Y77846D01*
X361135Y77850D01*
X358987Y77850D01*
X355860Y79146D01*
X353466Y81540D01*
X352170Y84667D01*
X352170Y88053D01*
X353466Y91180D01*
X355860Y93574D01*
X356368Y93785D01*
X356451Y93836D01*
X356537Y93882D01*
X356555Y93901D01*
X356577Y93914D01*
X356639Y93989D01*
X356706Y94060D01*
X356717Y94084D01*
X356734Y94104D01*
X356769Y94195D01*
X356810Y94283D01*
X356813Y94309D01*
X356822Y94333D01*
X356826Y94431D01*
X356837Y94527D01*
X356831Y94553D01*
X356832Y94579D01*
X356805Y94673D01*
X356784Y94768D01*
X356771Y94790D01*
X356764Y94815D01*
X356708Y94895D01*
X356658Y94979D01*
X356638Y94996D01*
X356624Y95017D01*
X356546Y95075D01*
X356471Y95139D01*
X356447Y95149D01*
X356426Y95164D01*
X356334Y95194D01*
X356243Y95231D01*
X356211Y95234D01*
X356192Y95240D01*
X356159Y95240D01*
X356077Y95249D01*
X300639Y95249D01*
X300549Y95235D01*
X300458Y95227D01*
X300428Y95215D01*
X300396Y95210D01*
X300316Y95167D01*
X300232Y95131D01*
X300200Y95105D01*
X300179Y95094D01*
X300157Y95071D01*
X300101Y95026D01*
X299460Y94386D01*
X296333Y93090D01*
X292947Y93090D01*
X289820Y94386D01*
X287426Y96780D01*
X286130Y99907D01*
X286130Y103293D01*
X287426Y106420D01*
X289820Y108814D01*
X290328Y109025D01*
X290411Y109076D01*
X290497Y109122D01*
X290515Y109141D01*
X290537Y109154D01*
X290599Y109229D01*
X290666Y109300D01*
X290677Y109324D01*
X290694Y109344D01*
X290729Y109435D01*
X290770Y109523D01*
X290773Y109549D01*
X290782Y109573D01*
X290786Y109671D01*
X290797Y109767D01*
X290791Y109793D01*
X290792Y109819D01*
X290765Y109913D01*
X290744Y110008D01*
X290731Y110030D01*
X290724Y110055D01*
X290668Y110135D01*
X290618Y110219D01*
X290598Y110236D01*
X290584Y110257D01*
X290506Y110315D01*
X290431Y110379D01*
X290407Y110389D01*
X290386Y110404D01*
X290294Y110434D01*
X290203Y110471D01*
X290171Y110474D01*
X290152Y110480D01*
X290119Y110480D01*
X290037Y110489D01*
X217177Y110489D01*
X214843Y111456D01*
X194630Y131669D01*
X193670Y132628D01*
X193661Y132635D01*
X193653Y132645D01*
X193561Y132707D01*
X193471Y132772D01*
X193459Y132775D01*
X193449Y132782D01*
X193342Y132812D01*
X193236Y132844D01*
X193223Y132844D01*
X193212Y132847D01*
X193101Y132841D01*
X192990Y132838D01*
X192978Y132834D01*
X192966Y132833D01*
X192864Y132792D01*
X192759Y132753D01*
X192749Y132746D01*
X192738Y132742D01*
X192654Y132669D01*
X192567Y132600D01*
X192560Y132590D01*
X192551Y132582D01*
X192494Y132487D01*
X192434Y132393D01*
X192431Y132381D01*
X192425Y132371D01*
X192380Y132209D01*
X192239Y131316D01*
X191658Y129529D01*
X190805Y127855D01*
X189700Y126334D01*
X188372Y125006D01*
X186851Y123901D01*
X185177Y123048D01*
X183390Y122467D01*
X182117Y122266D01*
X182117Y133350D01*
X182114Y133370D01*
X182116Y133389D01*
X182094Y133491D01*
X182077Y133593D01*
X182068Y133610D01*
X182064Y133630D01*
X182011Y133719D01*
X181962Y133810D01*
X181948Y133824D01*
X181938Y133841D01*
X181859Y133908D01*
X181784Y133979D01*
X181766Y133988D01*
X181751Y134001D01*
X181655Y134039D01*
X181561Y134083D01*
X181541Y134085D01*
X181523Y134093D01*
X181356Y134111D01*
X180593Y134111D01*
X180593Y134113D01*
X181356Y134113D01*
X181376Y134116D01*
X181395Y134114D01*
X181497Y134136D01*
X181599Y134153D01*
X181616Y134162D01*
X181636Y134166D01*
X181725Y134219D01*
X181816Y134268D01*
X181830Y134282D01*
X181847Y134292D01*
X181914Y134371D01*
X181985Y134446D01*
X181994Y134464D01*
X182007Y134479D01*
X182046Y134575D01*
X182089Y134669D01*
X182091Y134689D01*
X182099Y134707D01*
X182117Y134874D01*
X182117Y145958D01*
X183390Y145757D01*
X185177Y145176D01*
X186851Y144323D01*
X188372Y143218D01*
X189700Y141890D01*
X190392Y140937D01*
X190398Y140932D01*
X190402Y140925D01*
X190485Y140846D01*
X190567Y140764D01*
X190574Y140761D01*
X190580Y140755D01*
X190684Y140707D01*
X190788Y140656D01*
X190796Y140655D01*
X190803Y140652D01*
X190917Y140639D01*
X191032Y140624D01*
X191040Y140625D01*
X191047Y140625D01*
X191160Y140649D01*
X191273Y140671D01*
X191280Y140675D01*
X191288Y140677D01*
X191386Y140736D01*
X191487Y140793D01*
X191492Y140799D01*
X191499Y140803D01*
X191574Y140891D01*
X191651Y140977D01*
X191654Y140984D01*
X191659Y140990D01*
X191702Y141097D01*
X191747Y141203D01*
X191748Y141211D01*
X191751Y141218D01*
X191769Y141385D01*
X191769Y337414D01*
X191755Y337504D01*
X191747Y337595D01*
X191735Y337625D01*
X191730Y337657D01*
X191687Y337738D01*
X191651Y337821D01*
X191625Y337854D01*
X191614Y337874D01*
X191591Y337896D01*
X191546Y337952D01*
X106376Y423123D01*
X105409Y425457D01*
X105409Y468623D01*
X106376Y470957D01*
X117632Y482214D01*
X117685Y482288D01*
X117745Y482357D01*
X117757Y482387D01*
X117776Y482413D01*
X117803Y482500D01*
X117837Y482585D01*
X117841Y482626D01*
X117848Y482648D01*
X117847Y482681D01*
X117855Y482752D01*
X117855Y486388D01*
X120426Y488959D01*
X120479Y489033D01*
X120539Y489102D01*
X120551Y489132D01*
X120570Y489159D01*
X120597Y489246D01*
X120631Y489330D01*
X120635Y489371D01*
X120642Y489394D01*
X120641Y489426D01*
X120649Y489497D01*
X120649Y540614D01*
X120635Y540704D01*
X120627Y540795D01*
X120615Y540825D01*
X120610Y540857D01*
X120567Y540938D01*
X120531Y541021D01*
X120505Y541054D01*
X120494Y541074D01*
X120471Y541096D01*
X120426Y541152D01*
X86056Y575523D01*
X85089Y577857D01*
X85089Y727703D01*
X86056Y730037D01*
X116616Y760598D01*
X116669Y760672D01*
X116729Y760741D01*
X116741Y760771D01*
X116760Y760797D01*
X116787Y760884D01*
X116821Y760969D01*
X116825Y761010D01*
X116832Y761032D01*
X116831Y761065D01*
X116839Y761136D01*
X116839Y771641D01*
X118386Y775376D01*
X121244Y778234D01*
X124979Y779781D01*
X129021Y779781D01*
X132756Y778234D01*
X135614Y775376D01*
X137161Y771641D01*
X137161Y752359D01*
X135614Y748624D01*
X132756Y745766D01*
X129021Y744219D01*
X124979Y744219D01*
X121244Y745766D01*
X121034Y745976D01*
X121018Y745988D01*
X121006Y746004D01*
X120918Y746060D01*
X120835Y746120D01*
X120815Y746126D01*
X120799Y746137D01*
X120698Y746162D01*
X120599Y746192D01*
X120579Y746192D01*
X120560Y746197D01*
X120457Y746189D01*
X120354Y746186D01*
X120335Y746179D01*
X120315Y746177D01*
X120220Y746137D01*
X120123Y746101D01*
X120107Y746089D01*
X120089Y746081D01*
X119958Y745976D01*
X98014Y724032D01*
X97961Y723958D01*
X97901Y723889D01*
X97889Y723859D01*
X97870Y723833D01*
X97843Y723746D01*
X97809Y723661D01*
X97805Y723620D01*
X97798Y723598D01*
X97799Y723565D01*
X97791Y723494D01*
X97791Y582066D01*
X97805Y581976D01*
X97813Y581885D01*
X97825Y581855D01*
X97830Y581823D01*
X97873Y581743D01*
X97909Y581659D01*
X97935Y581626D01*
X97946Y581606D01*
X97969Y581584D01*
X98014Y581528D01*
X98562Y580980D01*
X98620Y580938D01*
X98672Y580888D01*
X98719Y580866D01*
X98761Y580836D01*
X98830Y580815D01*
X98895Y580785D01*
X98947Y580779D01*
X98997Y580764D01*
X99068Y580766D01*
X99139Y580758D01*
X99190Y580769D01*
X99242Y580770D01*
X99310Y580795D01*
X99380Y580810D01*
X99425Y580837D01*
X99473Y580854D01*
X99529Y580899D01*
X99591Y580936D01*
X99625Y580976D01*
X99665Y581008D01*
X99704Y581068D01*
X99751Y581123D01*
X99770Y581171D01*
X99798Y581215D01*
X99816Y581284D01*
X99843Y581351D01*
X99851Y581422D01*
X99859Y581454D01*
X99857Y581477D01*
X99861Y581518D01*
X99861Y585277D01*
X110277Y585277D01*
X110277Y574861D01*
X106518Y574861D01*
X106447Y574850D01*
X106375Y574848D01*
X106326Y574830D01*
X106275Y574822D01*
X106212Y574788D01*
X106144Y574763D01*
X106104Y574731D01*
X106058Y574706D01*
X106008Y574654D01*
X105952Y574610D01*
X105924Y574566D01*
X105888Y574528D01*
X105858Y574463D01*
X105819Y574403D01*
X105807Y574352D01*
X105785Y574305D01*
X105777Y574234D01*
X105759Y574164D01*
X105763Y574112D01*
X105758Y574061D01*
X105773Y573990D01*
X105778Y573919D01*
X105799Y573871D01*
X105810Y573820D01*
X105847Y573759D01*
X105875Y573693D01*
X105919Y573637D01*
X105936Y573609D01*
X105954Y573594D01*
X105980Y573562D01*
X132384Y547157D01*
X133351Y544823D01*
X133351Y489497D01*
X133365Y489407D01*
X133373Y489316D01*
X133385Y489286D01*
X133390Y489254D01*
X133433Y489174D01*
X133469Y489090D01*
X133495Y489058D01*
X133506Y489037D01*
X133529Y489015D01*
X133574Y488959D01*
X136145Y486388D01*
X136145Y478812D01*
X130788Y473455D01*
X127152Y473455D01*
X127062Y473441D01*
X126971Y473433D01*
X126941Y473421D01*
X126909Y473416D01*
X126828Y473373D01*
X126745Y473337D01*
X126712Y473311D01*
X126692Y473300D01*
X126670Y473277D01*
X126614Y473232D01*
X118334Y464952D01*
X118281Y464878D01*
X118221Y464809D01*
X118209Y464779D01*
X118190Y464753D01*
X118163Y464666D01*
X118129Y464581D01*
X118125Y464540D01*
X118118Y464518D01*
X118119Y464485D01*
X118111Y464414D01*
X118111Y437681D01*
X118122Y437610D01*
X118124Y437539D01*
X118142Y437490D01*
X118150Y437438D01*
X118184Y437375D01*
X118209Y437308D01*
X118241Y437267D01*
X118266Y437221D01*
X118318Y437172D01*
X118362Y437116D01*
X118406Y437087D01*
X118444Y437052D01*
X118509Y437021D01*
X118569Y436983D01*
X118620Y436970D01*
X118667Y436948D01*
X118738Y436940D01*
X118808Y436923D01*
X118860Y436927D01*
X118911Y436921D01*
X118982Y436936D01*
X119053Y436942D01*
X119101Y436962D01*
X119152Y436973D01*
X119213Y437010D01*
X119279Y437038D01*
X119335Y437083D01*
X119363Y437099D01*
X119378Y437117D01*
X119410Y437143D01*
X123212Y440945D01*
X130788Y440945D01*
X133359Y438374D01*
X133433Y438321D01*
X133502Y438261D01*
X133532Y438249D01*
X133559Y438230D01*
X133646Y438203D01*
X133730Y438169D01*
X133771Y438165D01*
X133794Y438158D01*
X133826Y438159D01*
X133897Y438151D01*
X138423Y438151D01*
X140757Y437184D01*
X393568Y184374D01*
X393642Y184321D01*
X393711Y184261D01*
X393741Y184249D01*
X393767Y184230D01*
X393854Y184203D01*
X393939Y184169D01*
X393980Y184165D01*
X394002Y184158D01*
X394035Y184159D01*
X394106Y184151D01*
X502001Y184151D01*
X502091Y184165D01*
X502182Y184173D01*
X502212Y184185D01*
X502244Y184190D01*
X502324Y184233D01*
X502408Y184269D01*
X502440Y184295D01*
X502461Y184306D01*
X502483Y184329D01*
X502539Y184374D01*
X503180Y185014D01*
X506307Y186310D01*
X509693Y186310D01*
X512820Y185014D01*
X515214Y182620D01*
X516510Y179493D01*
X516510Y176107D01*
X515214Y172980D01*
X512820Y170586D01*
X512312Y170375D01*
X512229Y170324D01*
X512143Y170278D01*
X512125Y170259D01*
X512103Y170246D01*
X512041Y170171D01*
X511974Y170100D01*
X511963Y170076D01*
X511946Y170056D01*
X511911Y169965D01*
X511870Y169877D01*
X511867Y169851D01*
X511858Y169827D01*
X511854Y169729D01*
X511843Y169633D01*
X511849Y169607D01*
X511848Y169581D01*
X511875Y169487D01*
X511896Y169392D01*
X511909Y169370D01*
X511916Y169345D01*
X511972Y169265D01*
X512022Y169181D01*
X512042Y169164D01*
X512056Y169143D01*
X512134Y169085D01*
X512209Y169021D01*
X512233Y169011D01*
X512254Y168996D01*
X512346Y168966D01*
X512437Y168929D01*
X512469Y168926D01*
X512488Y168920D01*
X512521Y168920D01*
X512603Y168911D01*
X576174Y168911D01*
X576264Y168925D01*
X576355Y168933D01*
X576385Y168945D01*
X576417Y168950D01*
X576498Y168993D01*
X576581Y169029D01*
X576614Y169055D01*
X576634Y169066D01*
X576656Y169089D01*
X576712Y169134D01*
X714634Y307056D01*
X714676Y307114D01*
X714726Y307166D01*
X714748Y307213D01*
X714778Y307255D01*
X714799Y307324D01*
X714829Y307389D01*
X714835Y307441D01*
X714850Y307491D01*
X714848Y307562D01*
X714856Y307633D01*
X714845Y307684D01*
X714844Y307736D01*
X714819Y307804D01*
X714804Y307874D01*
X714777Y307918D01*
X714760Y307967D01*
X714715Y308023D01*
X714678Y308085D01*
X714638Y308119D01*
X714606Y308159D01*
X714546Y308198D01*
X714491Y308245D01*
X714443Y308264D01*
X714399Y308292D01*
X714329Y308310D01*
X714263Y308337D01*
X714192Y308345D01*
X714160Y308353D01*
X714137Y308351D01*
X714096Y308355D01*
X707412Y308355D01*
X702055Y313712D01*
X702055Y321288D01*
X704626Y323859D01*
X704679Y323933D01*
X704739Y324002D01*
X704751Y324032D01*
X704770Y324059D01*
X704797Y324146D01*
X704831Y324230D01*
X704835Y324271D01*
X704842Y324294D01*
X704841Y324326D01*
X704849Y324397D01*
X704849Y352654D01*
X704835Y352744D01*
X704827Y352835D01*
X704815Y352865D01*
X704810Y352897D01*
X704767Y352978D01*
X704731Y353061D01*
X704705Y353094D01*
X704694Y353114D01*
X704671Y353136D01*
X704626Y353192D01*
X560964Y496854D01*
X560890Y496907D01*
X560821Y496967D01*
X560791Y496979D01*
X560765Y496998D01*
X560678Y497025D01*
X560593Y497059D01*
X560552Y497063D01*
X560530Y497070D01*
X560497Y497069D01*
X560426Y497077D01*
X554276Y497077D01*
X547877Y503476D01*
X547877Y512524D01*
X550943Y515590D01*
X550985Y515648D01*
X551034Y515700D01*
X551056Y515747D01*
X551086Y515789D01*
X551107Y515858D01*
X551138Y515923D01*
X551143Y515975D01*
X551159Y516025D01*
X551157Y516096D01*
X551165Y516167D01*
X551154Y516218D01*
X551152Y516270D01*
X551128Y516338D01*
X551112Y516408D01*
X551086Y516453D01*
X551068Y516501D01*
X551023Y516557D01*
X550986Y516619D01*
X550947Y516653D01*
X550914Y516693D01*
X550854Y516732D01*
X550799Y516779D01*
X550751Y516798D01*
X550707Y516826D01*
X550638Y516844D01*
X550571Y516871D01*
X550500Y516879D01*
X550469Y516887D01*
X550445Y516885D01*
X550404Y516889D01*
X541796Y516889D01*
X541725Y516878D01*
X541653Y516876D01*
X541604Y516858D01*
X541553Y516850D01*
X541490Y516816D01*
X541422Y516791D01*
X541382Y516759D01*
X541335Y516734D01*
X541286Y516682D01*
X541230Y516638D01*
X541202Y516594D01*
X541166Y516556D01*
X541136Y516491D01*
X541097Y516431D01*
X541084Y516380D01*
X541062Y516333D01*
X541055Y516262D01*
X541037Y516192D01*
X541041Y516140D01*
X541035Y516089D01*
X541051Y516018D01*
X541056Y515947D01*
X541077Y515899D01*
X541088Y515848D01*
X541124Y515787D01*
X541153Y515721D01*
X541197Y515665D01*
X541214Y515637D01*
X541232Y515622D01*
X541257Y515590D01*
X544323Y512524D01*
X544323Y503476D01*
X537924Y497077D01*
X528876Y497077D01*
X522477Y503476D01*
X522477Y511658D01*
X522466Y511729D01*
X522464Y511801D01*
X522446Y511849D01*
X522438Y511901D01*
X522404Y511964D01*
X522379Y512032D01*
X522347Y512072D01*
X522322Y512118D01*
X522270Y512168D01*
X522226Y512224D01*
X522182Y512252D01*
X522144Y512288D01*
X522079Y512318D01*
X522019Y512357D01*
X521968Y512369D01*
X521921Y512391D01*
X521850Y512399D01*
X521780Y512417D01*
X521728Y512413D01*
X521677Y512418D01*
X521606Y512403D01*
X521535Y512398D01*
X521487Y512377D01*
X521436Y512366D01*
X521375Y512329D01*
X521309Y512301D01*
X521253Y512256D01*
X521225Y512240D01*
X521210Y512222D01*
X521178Y512196D01*
X519146Y510164D01*
X519093Y510090D01*
X519033Y510021D01*
X519021Y509991D01*
X519002Y509965D01*
X518975Y509877D01*
X518941Y509793D01*
X518937Y509752D01*
X518930Y509730D01*
X518931Y509697D01*
X518923Y509626D01*
X518923Y503476D01*
X512524Y497077D01*
X503476Y497077D01*
X497077Y503476D01*
X497077Y512524D01*
X503476Y518923D01*
X509626Y518923D01*
X509716Y518937D01*
X509807Y518945D01*
X509837Y518957D01*
X509869Y518962D01*
X509950Y519005D01*
X510033Y519041D01*
X510066Y519067D01*
X510086Y519078D01*
X510108Y519101D01*
X510164Y519146D01*
X519643Y528624D01*
X521977Y529591D01*
X646423Y529591D01*
X648757Y528624D01*
X672968Y504414D01*
X673042Y504361D01*
X673111Y504301D01*
X673141Y504289D01*
X673167Y504270D01*
X673254Y504243D01*
X673339Y504209D01*
X673380Y504205D01*
X673402Y504198D01*
X673435Y504199D01*
X673506Y504191D01*
X706843Y504191D01*
X706933Y504205D01*
X707024Y504213D01*
X707054Y504225D01*
X707086Y504230D01*
X707166Y504273D01*
X707250Y504309D01*
X707282Y504335D01*
X707303Y504346D01*
X707322Y504366D01*
X707324Y504367D01*
X707330Y504372D01*
X707381Y504414D01*
X707412Y504445D01*
X714988Y504445D01*
X720345Y499088D01*
X720345Y491512D01*
X714988Y486155D01*
X707412Y486155D01*
X702301Y491266D01*
X702227Y491319D01*
X702158Y491379D01*
X702128Y491391D01*
X702101Y491410D01*
X702014Y491437D01*
X701930Y491471D01*
X701889Y491475D01*
X701866Y491482D01*
X701834Y491481D01*
X701763Y491489D01*
X669297Y491489D01*
X666963Y492456D01*
X647222Y512196D01*
X647164Y512238D01*
X647112Y512288D01*
X647065Y512310D01*
X647023Y512340D01*
X646954Y512361D01*
X646889Y512391D01*
X646837Y512397D01*
X646787Y512412D01*
X646716Y512410D01*
X646645Y512418D01*
X646594Y512407D01*
X646542Y512406D01*
X646474Y512381D01*
X646404Y512366D01*
X646359Y512339D01*
X646311Y512322D01*
X646255Y512277D01*
X646193Y512240D01*
X646159Y512200D01*
X646119Y512168D01*
X646080Y512108D01*
X646033Y512053D01*
X646014Y512005D01*
X645986Y511961D01*
X645968Y511891D01*
X645941Y511825D01*
X645933Y511754D01*
X645925Y511722D01*
X645927Y511699D01*
X645923Y511658D01*
X645923Y503476D01*
X641574Y499127D01*
X641521Y499053D01*
X641461Y498983D01*
X641449Y498953D01*
X641430Y498927D01*
X641403Y498840D01*
X641369Y498755D01*
X641365Y498714D01*
X641358Y498692D01*
X641359Y498660D01*
X641351Y498588D01*
X641351Y465226D01*
X641365Y465136D01*
X641373Y465045D01*
X641385Y465015D01*
X641390Y464983D01*
X641433Y464902D01*
X641469Y464819D01*
X641495Y464786D01*
X641506Y464766D01*
X641529Y464744D01*
X641574Y464688D01*
X741984Y364277D01*
X742951Y361943D01*
X742951Y252737D01*
X741984Y250403D01*
X630815Y139234D01*
X630748Y139140D01*
X630677Y139045D01*
X630675Y139039D01*
X630672Y139034D01*
X630638Y138924D01*
X630601Y138812D01*
X630601Y138805D01*
X630599Y138799D01*
X630603Y138683D01*
X630604Y138566D01*
X630606Y138558D01*
X630606Y138553D01*
X630612Y138536D01*
X630650Y138405D01*
X631445Y136487D01*
X631445Y131737D01*
X629627Y127349D01*
X626269Y123991D01*
X621881Y122173D01*
X617131Y122173D01*
X612743Y123991D01*
X609385Y127349D01*
X607567Y131737D01*
X607567Y136487D01*
X609385Y140875D01*
X612743Y144233D01*
X617131Y146051D01*
X619354Y146051D01*
X619444Y146065D01*
X619535Y146073D01*
X619565Y146085D01*
X619597Y146090D01*
X619678Y146133D01*
X619761Y146169D01*
X619794Y146195D01*
X619814Y146206D01*
X619836Y146229D01*
X619892Y146274D01*
X730026Y256408D01*
X730079Y256482D01*
X730139Y256551D01*
X730151Y256581D01*
X730170Y256607D01*
X730197Y256694D01*
X730231Y256779D01*
X730235Y256820D01*
X730242Y256842D01*
X730241Y256875D01*
X730249Y256946D01*
X730249Y302870D01*
X730238Y302941D01*
X730236Y303013D01*
X730218Y303062D01*
X730210Y303113D01*
X730176Y303176D01*
X730151Y303244D01*
X730119Y303284D01*
X730094Y303330D01*
X730042Y303380D01*
X729998Y303436D01*
X729954Y303464D01*
X729916Y303500D01*
X729851Y303530D01*
X729791Y303569D01*
X729740Y303581D01*
X729693Y303603D01*
X729622Y303611D01*
X729552Y303629D01*
X729500Y303625D01*
X729449Y303630D01*
X729378Y303615D01*
X729307Y303610D01*
X729259Y303589D01*
X729208Y303578D01*
X729147Y303541D01*
X729081Y303513D01*
X729025Y303469D01*
X728997Y303452D01*
X728982Y303434D01*
X728950Y303408D01*
X584611Y159070D01*
X582717Y157176D01*
X580383Y156209D01*
X256946Y156209D01*
X256856Y156195D01*
X256765Y156187D01*
X256735Y156175D01*
X256703Y156170D01*
X256622Y156127D01*
X256539Y156091D01*
X256506Y156065D01*
X256486Y156054D01*
X256464Y156031D01*
X256408Y155986D01*
X237859Y137438D01*
X237791Y137344D01*
X237721Y137249D01*
X237719Y137243D01*
X237716Y137238D01*
X237681Y137127D01*
X237645Y137015D01*
X237645Y137009D01*
X237643Y137003D01*
X237646Y136887D01*
X237648Y136769D01*
X237650Y136762D01*
X237650Y136757D01*
X237656Y136740D01*
X237694Y136608D01*
X237745Y136487D01*
X237745Y131737D01*
X235927Y127349D01*
X233068Y124490D01*
X233026Y124432D01*
X232977Y124380D01*
X232955Y124333D01*
X232925Y124291D01*
X232904Y124222D01*
X232873Y124157D01*
X232868Y124105D01*
X232852Y124055D01*
X232854Y123984D01*
X232846Y123913D01*
X232857Y123862D01*
X232859Y123810D01*
X232883Y123742D01*
X232898Y123672D01*
X232925Y123627D01*
X232943Y123579D01*
X232988Y123523D01*
X233025Y123461D01*
X233064Y123427D01*
X233097Y123387D01*
X233157Y123348D01*
X233212Y123301D01*
X233260Y123282D01*
X233304Y123254D01*
X233373Y123236D01*
X233440Y123209D01*
X233511Y123201D01*
X233542Y123193D01*
X233566Y123195D01*
X233606Y123191D01*
X363472Y123191D01*
X363479Y123192D01*
X363487Y123191D01*
X363601Y123212D01*
X363714Y123230D01*
X363721Y123234D01*
X363729Y123236D01*
X363830Y123292D01*
X363932Y123346D01*
X363937Y123351D01*
X363944Y123355D01*
X364022Y123440D01*
X364101Y123524D01*
X364104Y123531D01*
X364110Y123537D01*
X364156Y123643D01*
X364205Y123747D01*
X364206Y123755D01*
X364209Y123762D01*
X364219Y123877D01*
X364232Y123991D01*
X364230Y123999D01*
X364231Y124007D01*
X364204Y124120D01*
X364180Y124232D01*
X364175Y124239D01*
X364174Y124246D01*
X364112Y124345D01*
X364053Y124443D01*
X364047Y124448D01*
X364043Y124455D01*
X363919Y124568D01*
X363316Y125006D01*
X361988Y126334D01*
X360883Y127855D01*
X360030Y129529D01*
X359449Y131316D01*
X359248Y132589D01*
X370332Y132589D01*
X370352Y132592D01*
X370371Y132590D01*
X370473Y132612D01*
X370575Y132629D01*
X370592Y132638D01*
X370612Y132642D01*
X370701Y132695D01*
X370792Y132744D01*
X370806Y132758D01*
X370823Y132768D01*
X370890Y132847D01*
X370961Y132922D01*
X370970Y132940D01*
X370983Y132955D01*
X371021Y133051D01*
X371065Y133145D01*
X371067Y133165D01*
X371075Y133183D01*
X371093Y133350D01*
X371093Y134113D01*
X371095Y134113D01*
X371095Y133350D01*
X371098Y133330D01*
X371096Y133311D01*
X371118Y133209D01*
X371135Y133107D01*
X371144Y133090D01*
X371148Y133070D01*
X371201Y132981D01*
X371250Y132890D01*
X371264Y132876D01*
X371274Y132859D01*
X371353Y132792D01*
X371428Y132721D01*
X371446Y132712D01*
X371461Y132699D01*
X371557Y132660D01*
X371651Y132617D01*
X371671Y132615D01*
X371689Y132607D01*
X371856Y132589D01*
X382940Y132589D01*
X382739Y131316D01*
X382158Y129529D01*
X381305Y127855D01*
X380200Y126334D01*
X378872Y125006D01*
X378269Y124568D01*
X378263Y124562D01*
X378256Y124558D01*
X378177Y124475D01*
X378096Y124393D01*
X378092Y124386D01*
X378087Y124380D01*
X378039Y124276D01*
X377988Y124172D01*
X377987Y124164D01*
X377983Y124157D01*
X377971Y124043D01*
X377956Y123928D01*
X377957Y123920D01*
X377956Y123913D01*
X377981Y123800D01*
X378003Y123687D01*
X378007Y123680D01*
X378008Y123672D01*
X378068Y123573D01*
X378125Y123473D01*
X378131Y123468D01*
X378135Y123461D01*
X378223Y123386D01*
X378308Y123309D01*
X378315Y123306D01*
X378322Y123301D01*
X378429Y123258D01*
X378534Y123213D01*
X378542Y123212D01*
X378550Y123209D01*
X378716Y123191D01*
X408506Y123191D01*
X408576Y123202D01*
X408648Y123204D01*
X408697Y123222D01*
X408748Y123230D01*
X408812Y123264D01*
X408879Y123289D01*
X408920Y123321D01*
X408966Y123346D01*
X409015Y123398D01*
X409071Y123442D01*
X409099Y123486D01*
X409135Y123524D01*
X409165Y123589D01*
X409204Y123649D01*
X409217Y123700D01*
X409239Y123747D01*
X409247Y123818D01*
X409264Y123888D01*
X409260Y123940D01*
X409266Y123991D01*
X409251Y124062D01*
X409245Y124133D01*
X409225Y124181D01*
X409214Y124232D01*
X409177Y124293D01*
X409149Y124359D01*
X409104Y124415D01*
X409087Y124443D01*
X409070Y124458D01*
X409044Y124490D01*
X406185Y127349D01*
X404367Y131737D01*
X404367Y136487D01*
X406185Y140875D01*
X409543Y144233D01*
X413931Y146051D01*
X418681Y146051D01*
X423069Y144233D01*
X426427Y140875D01*
X428245Y136487D01*
X428245Y131737D01*
X426427Y127349D01*
X423568Y124490D01*
X423526Y124432D01*
X423477Y124380D01*
X423455Y124333D01*
X423425Y124291D01*
X423404Y124222D01*
X423373Y124157D01*
X423368Y124105D01*
X423352Y124055D01*
X423354Y123984D01*
X423346Y123913D01*
X423357Y123862D01*
X423359Y123810D01*
X423383Y123742D01*
X423398Y123672D01*
X423425Y123627D01*
X423443Y123579D01*
X423488Y123523D01*
X423525Y123461D01*
X423564Y123427D01*
X423597Y123387D01*
X423657Y123348D01*
X423712Y123301D01*
X423760Y123282D01*
X423804Y123254D01*
X423873Y123236D01*
X423940Y123209D01*
X424011Y123201D01*
X424042Y123193D01*
X424066Y123195D01*
X424106Y123191D01*
X494023Y123191D01*
X496357Y122224D01*
X498251Y120330D01*
X582036Y36546D01*
X582110Y36493D01*
X582179Y36433D01*
X582209Y36421D01*
X582235Y36402D01*
X582322Y36375D01*
X582407Y36341D01*
X582448Y36337D01*
X582470Y36330D01*
X582503Y36331D01*
X582574Y36323D01*
X588724Y36323D01*
X595123Y29924D01*
X595123Y20876D01*
X588724Y14477D01*
X579676Y14477D01*
X573277Y20876D01*
X573277Y27026D01*
X573263Y27116D01*
X573255Y27207D01*
X573243Y27237D01*
X573238Y27269D01*
X573195Y27350D01*
X573159Y27433D01*
X573133Y27466D01*
X573122Y27486D01*
X573099Y27508D01*
X573054Y27564D01*
X571022Y29596D01*
X570964Y29638D01*
X570912Y29688D01*
X570865Y29710D01*
X570823Y29740D01*
X570754Y29761D01*
X570689Y29791D01*
X570637Y29797D01*
X570587Y29812D01*
X570516Y29810D01*
X570445Y29818D01*
X570394Y29807D01*
X570342Y29806D01*
X570274Y29781D01*
X570204Y29766D01*
X570160Y29739D01*
X570111Y29722D01*
X570055Y29677D01*
X569993Y29640D01*
X569959Y29600D01*
X569919Y29568D01*
X569880Y29508D01*
X569833Y29453D01*
X569814Y29405D01*
X569786Y29361D01*
X569768Y29291D01*
X569741Y29225D01*
X569733Y29154D01*
X569725Y29122D01*
X569727Y29099D01*
X569723Y29058D01*
X569723Y20876D01*
X563324Y14477D01*
X554276Y14477D01*
X547877Y20876D01*
X547877Y29924D01*
X554276Y36323D01*
X562458Y36323D01*
X562529Y36334D01*
X562601Y36336D01*
X562650Y36354D01*
X562701Y36362D01*
X562764Y36396D01*
X562832Y36421D01*
X562872Y36453D01*
X562918Y36478D01*
X562968Y36529D01*
X563024Y36574D01*
X563052Y36618D01*
X563088Y36656D01*
X563118Y36721D01*
X563157Y36781D01*
X563169Y36832D01*
X563191Y36879D01*
X563199Y36950D01*
X563217Y37020D01*
X563213Y37072D01*
X563218Y37123D01*
X563203Y37194D01*
X563198Y37265D01*
X563177Y37313D01*
X563166Y37364D01*
X563129Y37425D01*
X563101Y37491D01*
X563057Y37547D01*
X563040Y37575D01*
X563022Y37590D01*
X562996Y37622D01*
X490352Y110266D01*
X490278Y110319D01*
X490209Y110379D01*
X490179Y110391D01*
X490153Y110410D01*
X490066Y110437D01*
X489981Y110471D01*
X489940Y110475D01*
X489918Y110482D01*
X489885Y110481D01*
X489814Y110489D01*
X299243Y110489D01*
X299147Y110474D01*
X299050Y110464D01*
X299026Y110454D01*
X299001Y110450D01*
X298915Y110404D01*
X298826Y110364D01*
X298806Y110347D01*
X298783Y110334D01*
X298716Y110264D01*
X298645Y110198D01*
X298632Y110175D01*
X298614Y110156D01*
X298573Y110068D01*
X298526Y109982D01*
X298521Y109957D01*
X298510Y109933D01*
X298500Y109836D01*
X298482Y109740D01*
X298486Y109714D01*
X298483Y109689D01*
X298504Y109594D01*
X298518Y109497D01*
X298530Y109474D01*
X298536Y109448D01*
X298585Y109365D01*
X298630Y109278D01*
X298648Y109259D01*
X298662Y109237D01*
X298736Y109174D01*
X298805Y109106D01*
X298834Y109090D01*
X298849Y109077D01*
X298879Y109065D01*
X298952Y109025D01*
X299460Y108814D01*
X300101Y108174D01*
X300175Y108121D01*
X300244Y108061D01*
X300274Y108049D01*
X300301Y108030D01*
X300388Y108003D01*
X300472Y107969D01*
X300513Y107965D01*
X300536Y107958D01*
X300568Y107959D01*
X300639Y107951D01*
X458463Y107951D01*
X460797Y106984D01*
X531236Y36546D01*
X531310Y36493D01*
X531379Y36433D01*
X531409Y36421D01*
X531435Y36402D01*
X531522Y36375D01*
X531607Y36341D01*
X531648Y36337D01*
X531670Y36330D01*
X531703Y36331D01*
X531774Y36323D01*
X537924Y36323D01*
X544323Y29924D01*
X544323Y20876D01*
X537924Y14477D01*
X528876Y14477D01*
X522477Y20876D01*
X522477Y27026D01*
X522463Y27116D01*
X522455Y27207D01*
X522443Y27237D01*
X522438Y27269D01*
X522395Y27349D01*
X522359Y27433D01*
X522333Y27466D01*
X522322Y27486D01*
X522299Y27508D01*
X522254Y27564D01*
X520222Y29596D01*
X520164Y29638D01*
X520112Y29688D01*
X520065Y29710D01*
X520023Y29740D01*
X519954Y29761D01*
X519889Y29791D01*
X519837Y29797D01*
X519787Y29812D01*
X519716Y29810D01*
X519645Y29818D01*
X519594Y29807D01*
X519542Y29806D01*
X519474Y29781D01*
X519404Y29766D01*
X519359Y29739D01*
X519311Y29722D01*
X519255Y29677D01*
X519193Y29640D01*
X519159Y29600D01*
X519119Y29568D01*
X519080Y29508D01*
X519033Y29453D01*
X519014Y29405D01*
X518986Y29361D01*
X518968Y29291D01*
X518941Y29225D01*
X518933Y29154D01*
X518925Y29122D01*
X518927Y29099D01*
X518923Y29058D01*
X518923Y20876D01*
X512524Y14477D01*
X503476Y14477D01*
X499127Y18826D01*
X499053Y18879D01*
X498983Y18939D01*
X498953Y18951D01*
X498927Y18970D01*
X498840Y18997D01*
X498755Y19031D01*
X498714Y19035D01*
X498692Y19042D01*
X498660Y19041D01*
X498588Y19049D01*
X481337Y19049D01*
X479003Y20016D01*
X469422Y29596D01*
X469364Y29638D01*
X469312Y29688D01*
X469265Y29710D01*
X469223Y29740D01*
X469154Y29761D01*
X469089Y29791D01*
X469037Y29797D01*
X468987Y29812D01*
X468916Y29810D01*
X468845Y29818D01*
X468794Y29807D01*
X468742Y29806D01*
X468674Y29781D01*
X468604Y29766D01*
X468559Y29739D01*
X468511Y29722D01*
X468455Y29677D01*
X468393Y29640D01*
X468359Y29600D01*
X468319Y29568D01*
X468280Y29508D01*
X468233Y29453D01*
X468214Y29405D01*
X468186Y29361D01*
X468168Y29291D01*
X468141Y29225D01*
X468133Y29154D01*
X468125Y29122D01*
X468127Y29099D01*
X468123Y29058D01*
X468123Y20876D01*
X461724Y14477D01*
X452676Y14477D01*
G37*
%LPD*%
%LPC*%
G36*
X912581Y403351D02*
X912581Y403351D01*
X909220Y404743D01*
X906647Y407316D01*
X905255Y410677D01*
X905255Y421488D01*
X905241Y421578D01*
X905233Y421669D01*
X905221Y421699D01*
X905216Y421731D01*
X905173Y421812D01*
X905137Y421895D01*
X905111Y421928D01*
X905100Y421948D01*
X905077Y421970D01*
X905032Y422026D01*
X899346Y427713D01*
X899327Y427726D01*
X899313Y427744D01*
X899227Y427798D01*
X899146Y427856D01*
X899124Y427863D01*
X899105Y427876D01*
X899007Y427899D01*
X898911Y427929D01*
X898888Y427928D01*
X898866Y427934D01*
X898766Y427925D01*
X898665Y427922D01*
X898643Y427915D01*
X898620Y427913D01*
X898529Y427873D01*
X898434Y427838D01*
X898416Y427824D01*
X898395Y427814D01*
X898321Y427747D01*
X898242Y427684D01*
X898230Y427665D01*
X898212Y427649D01*
X898163Y427562D01*
X898109Y427477D01*
X898103Y427455D01*
X898092Y427435D01*
X898073Y427336D01*
X898049Y427239D01*
X898051Y427216D01*
X898046Y427193D01*
X898061Y427026D01*
X898145Y426605D01*
X898145Y420623D01*
X889762Y420623D01*
X889742Y420620D01*
X889723Y420622D01*
X889621Y420600D01*
X889519Y420583D01*
X889502Y420574D01*
X889482Y420570D01*
X889393Y420517D01*
X889302Y420468D01*
X889288Y420454D01*
X889271Y420444D01*
X889204Y420365D01*
X889133Y420290D01*
X889124Y420272D01*
X889111Y420257D01*
X889073Y420161D01*
X889029Y420067D01*
X889027Y420047D01*
X889019Y420029D01*
X889001Y419862D01*
X889001Y419099D01*
X888999Y419099D01*
X888999Y419862D01*
X888996Y419882D01*
X888998Y419901D01*
X888976Y420003D01*
X888959Y420105D01*
X888950Y420122D01*
X888946Y420142D01*
X888893Y420231D01*
X888844Y420322D01*
X888830Y420336D01*
X888820Y420353D01*
X888741Y420420D01*
X888666Y420491D01*
X888648Y420500D01*
X888633Y420513D01*
X888537Y420552D01*
X888443Y420595D01*
X888423Y420597D01*
X888405Y420605D01*
X888238Y420623D01*
X879855Y420623D01*
X879855Y426605D01*
X879939Y427026D01*
X879940Y427049D01*
X879947Y427071D01*
X879944Y427172D01*
X879947Y427272D01*
X879941Y427294D01*
X879940Y427317D01*
X879906Y427411D01*
X879877Y427508D01*
X879864Y427526D01*
X879856Y427548D01*
X879793Y427626D01*
X879735Y427709D01*
X879717Y427722D01*
X879702Y427740D01*
X879618Y427794D01*
X879537Y427854D01*
X879515Y427861D01*
X879495Y427873D01*
X879398Y427898D01*
X879302Y427928D01*
X879279Y427928D01*
X879257Y427933D01*
X879157Y427925D01*
X879056Y427924D01*
X879034Y427916D01*
X879011Y427914D01*
X878919Y427875D01*
X878824Y427841D01*
X878806Y427827D01*
X878785Y427818D01*
X878654Y427713D01*
X867197Y416256D01*
X864863Y415289D01*
X822237Y415289D01*
X822147Y415275D01*
X822056Y415267D01*
X822026Y415255D01*
X821994Y415250D01*
X821914Y415207D01*
X821830Y415171D01*
X821798Y415145D01*
X821777Y415134D01*
X821755Y415111D01*
X821699Y415066D01*
X816588Y409955D01*
X809012Y409955D01*
X803655Y415312D01*
X803655Y422888D01*
X809012Y428245D01*
X816588Y428245D01*
X816619Y428214D01*
X816693Y428161D01*
X816762Y428101D01*
X816792Y428089D01*
X816819Y428070D01*
X816906Y428043D01*
X816990Y428009D01*
X817031Y428005D01*
X817054Y427998D01*
X817086Y427999D01*
X817157Y427991D01*
X860654Y427991D01*
X860744Y428005D01*
X860835Y428013D01*
X860865Y428025D01*
X860897Y428030D01*
X860978Y428073D01*
X861061Y428109D01*
X861094Y428135D01*
X861114Y428146D01*
X861136Y428169D01*
X861192Y428214D01*
X877448Y444470D01*
X877490Y444528D01*
X877540Y444580D01*
X877562Y444627D01*
X877592Y444669D01*
X877613Y444738D01*
X877643Y444803D01*
X877649Y444855D01*
X877664Y444905D01*
X877662Y444976D01*
X877670Y445047D01*
X877659Y445098D01*
X877658Y445150D01*
X877633Y445218D01*
X877618Y445288D01*
X877591Y445333D01*
X877574Y445381D01*
X877529Y445437D01*
X877492Y445499D01*
X877452Y445533D01*
X877420Y445573D01*
X877360Y445612D01*
X877305Y445659D01*
X877257Y445678D01*
X877213Y445706D01*
X877143Y445724D01*
X877077Y445751D01*
X877006Y445759D01*
X876974Y445767D01*
X876951Y445765D01*
X876910Y445769D01*
X816617Y445769D01*
X814283Y446736D01*
X629616Y631403D01*
X628649Y633737D01*
X628649Y746046D01*
X628635Y746136D01*
X628627Y746227D01*
X628615Y746257D01*
X628610Y746289D01*
X628567Y746369D01*
X628531Y746453D01*
X628505Y746485D01*
X628494Y746506D01*
X628471Y746528D01*
X628426Y746584D01*
X626386Y748624D01*
X624839Y752359D01*
X624839Y771641D01*
X626386Y775376D01*
X629244Y778234D01*
X632979Y779781D01*
X637021Y779781D01*
X640756Y778234D01*
X643614Y775376D01*
X645161Y771641D01*
X645161Y752359D01*
X643614Y748624D01*
X641574Y746584D01*
X641521Y746510D01*
X641461Y746441D01*
X641449Y746411D01*
X641430Y746384D01*
X641403Y746298D01*
X641369Y746213D01*
X641365Y746172D01*
X641358Y746149D01*
X641359Y746117D01*
X641351Y746046D01*
X641351Y637946D01*
X641365Y637856D01*
X641373Y637765D01*
X641385Y637735D01*
X641390Y637703D01*
X641433Y637622D01*
X641469Y637539D01*
X641495Y637506D01*
X641506Y637486D01*
X641529Y637464D01*
X641574Y637408D01*
X728950Y550032D01*
X729008Y549990D01*
X729060Y549940D01*
X729107Y549918D01*
X729149Y549888D01*
X729218Y549867D01*
X729283Y549837D01*
X729335Y549831D01*
X729385Y549816D01*
X729456Y549818D01*
X729527Y549810D01*
X729578Y549821D01*
X729630Y549822D01*
X729698Y549847D01*
X729768Y549862D01*
X729812Y549889D01*
X729861Y549906D01*
X729917Y549951D01*
X729979Y549988D01*
X730013Y550028D01*
X730053Y550060D01*
X730092Y550120D01*
X730139Y550175D01*
X730158Y550223D01*
X730186Y550267D01*
X730204Y550337D01*
X730231Y550403D01*
X730239Y550474D01*
X730247Y550506D01*
X730245Y550529D01*
X730249Y550570D01*
X730249Y746046D01*
X730235Y746136D01*
X730227Y746227D01*
X730215Y746257D01*
X730210Y746289D01*
X730167Y746369D01*
X730131Y746453D01*
X730105Y746485D01*
X730094Y746506D01*
X730071Y746528D01*
X730026Y746584D01*
X727986Y748624D01*
X726439Y752359D01*
X726439Y771641D01*
X727986Y775376D01*
X730844Y778234D01*
X734579Y779781D01*
X738621Y779781D01*
X742356Y778234D01*
X745214Y775376D01*
X746761Y771641D01*
X746761Y752359D01*
X745214Y748624D01*
X743174Y746584D01*
X743121Y746510D01*
X743061Y746441D01*
X743049Y746411D01*
X743030Y746384D01*
X743003Y746298D01*
X742969Y746213D01*
X742965Y746172D01*
X742958Y746149D01*
X742959Y746117D01*
X742951Y746046D01*
X742951Y551586D01*
X742965Y551496D01*
X742973Y551405D01*
X742985Y551375D01*
X742990Y551343D01*
X743033Y551262D01*
X743069Y551179D01*
X743095Y551146D01*
X743106Y551126D01*
X743129Y551104D01*
X743174Y551048D01*
X802356Y491866D01*
X802414Y491824D01*
X802466Y491774D01*
X802513Y491752D01*
X802555Y491722D01*
X802624Y491701D01*
X802689Y491671D01*
X802741Y491665D01*
X802791Y491650D01*
X802862Y491652D01*
X802933Y491644D01*
X802984Y491655D01*
X803036Y491656D01*
X803104Y491681D01*
X803174Y491696D01*
X803219Y491723D01*
X803267Y491740D01*
X803323Y491785D01*
X803385Y491822D01*
X803419Y491862D01*
X803459Y491894D01*
X803498Y491954D01*
X803545Y492009D01*
X803564Y492057D01*
X803592Y492101D01*
X803610Y492171D01*
X803637Y492237D01*
X803645Y492308D01*
X803653Y492340D01*
X803651Y492363D01*
X803655Y492404D01*
X803655Y499088D01*
X809012Y504445D01*
X816588Y504445D01*
X821699Y499334D01*
X821773Y499281D01*
X821842Y499221D01*
X821872Y499209D01*
X821899Y499190D01*
X821986Y499163D01*
X822070Y499129D01*
X822111Y499125D01*
X822134Y499118D01*
X822166Y499119D01*
X822237Y499111D01*
X864863Y499111D01*
X867197Y498144D01*
X878654Y486687D01*
X878673Y486674D01*
X878687Y486656D01*
X878772Y486602D01*
X878854Y486544D01*
X878876Y486537D01*
X878895Y486524D01*
X878993Y486501D01*
X879089Y486471D01*
X879112Y486472D01*
X879134Y486466D01*
X879234Y486475D01*
X879335Y486478D01*
X879357Y486486D01*
X879380Y486487D01*
X879471Y486527D01*
X879566Y486562D01*
X879584Y486576D01*
X879605Y486586D01*
X879680Y486653D01*
X879758Y486716D01*
X879770Y486735D01*
X879788Y486751D01*
X879837Y486838D01*
X879891Y486923D01*
X879897Y486945D01*
X879908Y486965D01*
X879927Y487064D01*
X879951Y487161D01*
X879949Y487184D01*
X879954Y487207D01*
X879939Y487374D01*
X879855Y487795D01*
X879855Y493777D01*
X888238Y493777D01*
X888258Y493780D01*
X888277Y493778D01*
X888379Y493800D01*
X888481Y493817D01*
X888498Y493826D01*
X888518Y493830D01*
X888607Y493883D01*
X888698Y493932D01*
X888712Y493946D01*
X888729Y493956D01*
X888796Y494035D01*
X888867Y494110D01*
X888876Y494128D01*
X888889Y494143D01*
X888927Y494239D01*
X888971Y494333D01*
X888973Y494353D01*
X888981Y494371D01*
X888999Y494538D01*
X888999Y495301D01*
X889001Y495301D01*
X889001Y494538D01*
X889004Y494518D01*
X889002Y494499D01*
X889024Y494397D01*
X889041Y494295D01*
X889050Y494278D01*
X889054Y494258D01*
X889107Y494169D01*
X889156Y494078D01*
X889170Y494064D01*
X889180Y494047D01*
X889259Y493980D01*
X889334Y493909D01*
X889352Y493900D01*
X889367Y493887D01*
X889463Y493848D01*
X889557Y493805D01*
X889577Y493803D01*
X889595Y493795D01*
X889762Y493777D01*
X898145Y493777D01*
X898145Y487795D01*
X898061Y487374D01*
X898060Y487351D01*
X898053Y487329D01*
X898056Y487228D01*
X898053Y487128D01*
X898059Y487106D01*
X898060Y487083D01*
X898094Y486988D01*
X898123Y486892D01*
X898136Y486874D01*
X898144Y486852D01*
X898207Y486773D01*
X898265Y486691D01*
X898283Y486678D01*
X898298Y486660D01*
X898382Y486606D01*
X898463Y486546D01*
X898485Y486539D01*
X898505Y486527D01*
X898602Y486502D01*
X898698Y486472D01*
X898721Y486472D01*
X898743Y486467D01*
X898843Y486475D01*
X898944Y486476D01*
X898966Y486484D01*
X898989Y486486D01*
X899081Y486525D01*
X899176Y486559D01*
X899194Y486573D01*
X899215Y486582D01*
X899346Y486687D01*
X905032Y492374D01*
X905085Y492448D01*
X905145Y492517D01*
X905157Y492547D01*
X905176Y492573D01*
X905203Y492660D01*
X905237Y492745D01*
X905241Y492786D01*
X905248Y492808D01*
X905247Y492841D01*
X905255Y492912D01*
X905255Y503723D01*
X906647Y507084D01*
X909220Y509657D01*
X912581Y511049D01*
X916219Y511049D01*
X919580Y509657D01*
X922153Y507084D01*
X923545Y503723D01*
X923545Y487324D01*
X923556Y487253D01*
X923558Y487181D01*
X923576Y487132D01*
X923584Y487081D01*
X923618Y487018D01*
X923643Y486950D01*
X923675Y486910D01*
X923700Y486864D01*
X923752Y486814D01*
X923796Y486758D01*
X923840Y486730D01*
X923878Y486694D01*
X923943Y486664D01*
X924003Y486625D01*
X924054Y486613D01*
X924101Y486591D01*
X924172Y486583D01*
X924242Y486565D01*
X924294Y486569D01*
X924345Y486564D01*
X924416Y486579D01*
X924487Y486584D01*
X924535Y486605D01*
X924586Y486616D01*
X924647Y486653D01*
X924713Y486681D01*
X924769Y486725D01*
X924797Y486742D01*
X924812Y486760D01*
X924844Y486786D01*
X930432Y492374D01*
X930485Y492448D01*
X930545Y492517D01*
X930557Y492547D01*
X930576Y492573D01*
X930603Y492660D01*
X930637Y492745D01*
X930641Y492786D01*
X930648Y492808D01*
X930647Y492841D01*
X930655Y492912D01*
X930655Y503723D01*
X932047Y507084D01*
X934620Y509657D01*
X937981Y511049D01*
X941172Y511049D01*
X941243Y511060D01*
X941315Y511062D01*
X941364Y511080D01*
X941415Y511088D01*
X941478Y511122D01*
X941546Y511147D01*
X941586Y511179D01*
X941632Y511204D01*
X941682Y511256D01*
X941738Y511300D01*
X941766Y511344D01*
X941802Y511382D01*
X941832Y511447D01*
X941871Y511507D01*
X941883Y511558D01*
X941905Y511605D01*
X941913Y511676D01*
X941931Y511746D01*
X941927Y511798D01*
X941932Y511849D01*
X941917Y511920D01*
X941912Y511991D01*
X941891Y512039D01*
X941880Y512090D01*
X941843Y512151D01*
X941815Y512217D01*
X941771Y512273D01*
X941754Y512301D01*
X941742Y512311D01*
X941739Y512315D01*
X941731Y512323D01*
X941710Y512348D01*
X934416Y519643D01*
X933449Y521977D01*
X933449Y570699D01*
X933435Y570789D01*
X933427Y570880D01*
X933415Y570910D01*
X933410Y570942D01*
X933367Y571022D01*
X933331Y571106D01*
X933305Y571138D01*
X933294Y571159D01*
X933271Y571181D01*
X933226Y571237D01*
X932047Y572416D01*
X930655Y575777D01*
X930655Y592623D01*
X932047Y595984D01*
X934620Y598557D01*
X937981Y599949D01*
X941619Y599949D01*
X944980Y598557D01*
X947553Y595984D01*
X948945Y592623D01*
X948945Y575777D01*
X947553Y572416D01*
X946374Y571237D01*
X946321Y571163D01*
X946261Y571094D01*
X946249Y571064D01*
X946230Y571037D01*
X946203Y570950D01*
X946169Y570866D01*
X946165Y570825D01*
X946158Y570802D01*
X946159Y570770D01*
X946151Y570699D01*
X946151Y526186D01*
X946165Y526096D01*
X946173Y526005D01*
X946185Y525975D01*
X946190Y525943D01*
X946233Y525862D01*
X946269Y525779D01*
X946295Y525746D01*
X946306Y525726D01*
X946329Y525704D01*
X946374Y525648D01*
X960424Y511597D01*
X961391Y509263D01*
X961391Y481337D01*
X960424Y479003D01*
X928157Y446736D01*
X925823Y445769D01*
X901090Y445769D01*
X901019Y445758D01*
X900947Y445756D01*
X900898Y445738D01*
X900847Y445730D01*
X900784Y445696D01*
X900716Y445671D01*
X900676Y445639D01*
X900630Y445614D01*
X900580Y445563D01*
X900524Y445518D01*
X900496Y445474D01*
X900460Y445436D01*
X900430Y445371D01*
X900391Y445311D01*
X900379Y445260D01*
X900357Y445213D01*
X900349Y445142D01*
X900331Y445072D01*
X900335Y445020D01*
X900330Y444969D01*
X900345Y444898D01*
X900350Y444827D01*
X900371Y444779D01*
X900382Y444728D01*
X900419Y444667D01*
X900447Y444601D01*
X900491Y444545D01*
X900508Y444517D01*
X900526Y444502D01*
X900552Y444470D01*
X910518Y434503D01*
X910612Y434435D01*
X910707Y434365D01*
X910713Y434363D01*
X910718Y434359D01*
X910829Y434325D01*
X910941Y434289D01*
X910947Y434289D01*
X910953Y434287D01*
X911070Y434290D01*
X911187Y434291D01*
X911194Y434293D01*
X911199Y434293D01*
X911217Y434300D01*
X911348Y434338D01*
X912581Y434849D01*
X916219Y434849D01*
X919580Y433457D01*
X922153Y430884D01*
X923545Y427523D01*
X923545Y410677D01*
X922153Y407316D01*
X919580Y404743D01*
X916219Y403351D01*
X912581Y403351D01*
G37*
%LPD*%
G36*
X213196Y131483D02*
X213196Y131483D01*
X213248Y131484D01*
X213316Y131509D01*
X213386Y131524D01*
X213431Y131551D01*
X213479Y131568D01*
X213535Y131613D01*
X213597Y131650D01*
X213631Y131690D01*
X213671Y131722D01*
X213710Y131782D01*
X213757Y131837D01*
X213776Y131885D01*
X213804Y131929D01*
X213822Y131999D01*
X213849Y132065D01*
X213857Y132136D01*
X213865Y132168D01*
X213863Y132191D01*
X213867Y132232D01*
X213867Y136487D01*
X215685Y140875D01*
X219043Y144233D01*
X223431Y146051D01*
X228194Y146051D01*
X228284Y146065D01*
X228375Y146073D01*
X228405Y146085D01*
X228437Y146090D01*
X228518Y146133D01*
X228601Y146169D01*
X228634Y146195D01*
X228654Y146206D01*
X228676Y146229D01*
X228732Y146274D01*
X250403Y167944D01*
X252737Y168911D01*
X503397Y168911D01*
X503493Y168926D01*
X503590Y168936D01*
X503614Y168946D01*
X503639Y168950D01*
X503725Y168996D01*
X503814Y169036D01*
X503834Y169053D01*
X503857Y169066D01*
X503924Y169136D01*
X503995Y169202D01*
X504008Y169225D01*
X504026Y169244D01*
X504067Y169332D01*
X504114Y169418D01*
X504119Y169443D01*
X504130Y169467D01*
X504140Y169564D01*
X504158Y169660D01*
X504154Y169686D01*
X504157Y169711D01*
X504136Y169806D01*
X504122Y169903D01*
X504110Y169926D01*
X504104Y169952D01*
X504055Y170035D01*
X504010Y170122D01*
X503992Y170141D01*
X503978Y170163D01*
X503904Y170226D01*
X503835Y170294D01*
X503806Y170310D01*
X503791Y170323D01*
X503761Y170335D01*
X503688Y170375D01*
X503180Y170586D01*
X502539Y171226D01*
X502465Y171279D01*
X502396Y171339D01*
X502366Y171351D01*
X502339Y171370D01*
X502252Y171397D01*
X502168Y171431D01*
X502127Y171435D01*
X502104Y171442D01*
X502072Y171441D01*
X502001Y171449D01*
X389897Y171449D01*
X387563Y172416D01*
X239044Y320934D01*
X238986Y320976D01*
X238934Y321026D01*
X238887Y321048D01*
X238845Y321078D01*
X238776Y321099D01*
X238711Y321129D01*
X238659Y321135D01*
X238609Y321150D01*
X238538Y321148D01*
X238467Y321156D01*
X238416Y321145D01*
X238364Y321144D01*
X238296Y321119D01*
X238226Y321104D01*
X238182Y321077D01*
X238133Y321060D01*
X238077Y321015D01*
X238015Y320978D01*
X237981Y320938D01*
X237941Y320906D01*
X237902Y320846D01*
X237855Y320791D01*
X237836Y320743D01*
X237808Y320699D01*
X237790Y320629D01*
X237763Y320563D01*
X237755Y320492D01*
X237747Y320460D01*
X237749Y320437D01*
X237745Y320396D01*
X237745Y313712D01*
X232388Y308355D01*
X224812Y308355D01*
X219455Y313712D01*
X219455Y321288D01*
X224812Y326645D01*
X231496Y326645D01*
X231567Y326656D01*
X231639Y326658D01*
X231688Y326676D01*
X231739Y326684D01*
X231802Y326718D01*
X231870Y326743D01*
X231910Y326775D01*
X231956Y326800D01*
X232006Y326852D01*
X232062Y326896D01*
X232090Y326940D01*
X232126Y326978D01*
X232156Y327043D01*
X232195Y327103D01*
X232207Y327154D01*
X232229Y327201D01*
X232237Y327272D01*
X232255Y327342D01*
X232251Y327394D01*
X232256Y327445D01*
X232241Y327516D01*
X232236Y327587D01*
X232215Y327635D01*
X232204Y327686D01*
X232167Y327747D01*
X232139Y327813D01*
X232095Y327869D01*
X232078Y327897D01*
X232060Y327912D01*
X232034Y327944D01*
X134752Y425226D01*
X134678Y425279D01*
X134609Y425339D01*
X134579Y425351D01*
X134553Y425370D01*
X134466Y425397D01*
X134381Y425431D01*
X134340Y425435D01*
X134318Y425442D01*
X134285Y425441D01*
X134214Y425449D01*
X133897Y425449D01*
X133807Y425435D01*
X133716Y425427D01*
X133686Y425415D01*
X133654Y425410D01*
X133574Y425367D01*
X133490Y425331D01*
X133458Y425305D01*
X133437Y425294D01*
X133415Y425271D01*
X133359Y425226D01*
X130788Y422655D01*
X126644Y422655D01*
X126573Y422644D01*
X126501Y422642D01*
X126452Y422624D01*
X126401Y422616D01*
X126338Y422582D01*
X126270Y422557D01*
X126230Y422525D01*
X126184Y422500D01*
X126134Y422448D01*
X126078Y422404D01*
X126050Y422360D01*
X126014Y422322D01*
X125984Y422257D01*
X125945Y422197D01*
X125933Y422146D01*
X125911Y422099D01*
X125903Y422028D01*
X125885Y421958D01*
X125889Y421906D01*
X125884Y421855D01*
X125899Y421784D01*
X125904Y421713D01*
X125925Y421665D01*
X125936Y421614D01*
X125973Y421553D01*
X126001Y421487D01*
X126045Y421431D01*
X126062Y421403D01*
X126080Y421388D01*
X126106Y421356D01*
X203504Y343957D01*
X204471Y341623D01*
X204471Y140106D01*
X204485Y140016D01*
X204493Y139925D01*
X204505Y139895D01*
X204510Y139863D01*
X204553Y139782D01*
X204589Y139699D01*
X204615Y139666D01*
X204626Y139646D01*
X204649Y139624D01*
X204694Y139568D01*
X212568Y131694D01*
X212626Y131652D01*
X212678Y131602D01*
X212725Y131580D01*
X212767Y131550D01*
X212836Y131529D01*
X212901Y131499D01*
X212953Y131493D01*
X213003Y131478D01*
X213074Y131480D01*
X213145Y131472D01*
X213196Y131483D01*
G37*
%LPC*%
G36*
X351812Y460755D02*
X351812Y460755D01*
X346701Y465866D01*
X346627Y465919D01*
X346558Y465979D01*
X346528Y465991D01*
X346501Y466010D01*
X346414Y466037D01*
X346330Y466071D01*
X346289Y466075D01*
X346266Y466082D01*
X346234Y466081D01*
X346163Y466089D01*
X323857Y466089D01*
X321523Y467056D01*
X291724Y496854D01*
X291650Y496907D01*
X291581Y496967D01*
X291551Y496979D01*
X291525Y496998D01*
X291438Y497025D01*
X291353Y497059D01*
X291312Y497063D01*
X291290Y497070D01*
X291257Y497069D01*
X291186Y497077D01*
X285036Y497077D01*
X278637Y503476D01*
X278637Y512524D01*
X285036Y518923D01*
X293218Y518923D01*
X293289Y518934D01*
X293361Y518936D01*
X293410Y518954D01*
X293461Y518962D01*
X293524Y518996D01*
X293592Y519021D01*
X293632Y519053D01*
X293678Y519078D01*
X293728Y519130D01*
X293784Y519174D01*
X293812Y519218D01*
X293848Y519256D01*
X293878Y519321D01*
X293917Y519381D01*
X293929Y519432D01*
X293951Y519479D01*
X293959Y519550D01*
X293977Y519620D01*
X293973Y519672D01*
X293978Y519723D01*
X293963Y519794D01*
X293958Y519865D01*
X293937Y519913D01*
X293926Y519964D01*
X293889Y520025D01*
X293861Y520091D01*
X293817Y520147D01*
X293800Y520175D01*
X293782Y520190D01*
X293756Y520222D01*
X251592Y562386D01*
X251518Y562439D01*
X251449Y562499D01*
X251419Y562511D01*
X251393Y562530D01*
X251306Y562557D01*
X251221Y562591D01*
X251180Y562595D01*
X251158Y562602D01*
X251125Y562601D01*
X251054Y562609D01*
X207017Y562609D01*
X204683Y563576D01*
X192872Y575387D01*
X192777Y575455D01*
X192683Y575525D01*
X192677Y575527D01*
X192672Y575530D01*
X192561Y575565D01*
X192449Y575601D01*
X192443Y575601D01*
X192437Y575603D01*
X192320Y575600D01*
X192203Y575599D01*
X192196Y575597D01*
X192191Y575596D01*
X192174Y575590D01*
X192042Y575552D01*
X190375Y574861D01*
X185625Y574861D01*
X181237Y576679D01*
X177879Y580037D01*
X176061Y584425D01*
X176061Y586882D01*
X176050Y586952D01*
X176048Y587023D01*
X176030Y587072D01*
X176022Y587125D01*
X175989Y587187D01*
X175964Y587254D01*
X175931Y587295D01*
X175906Y587342D01*
X175855Y587391D01*
X175811Y587446D01*
X175767Y587475D01*
X175728Y587512D01*
X175664Y587541D01*
X175605Y587580D01*
X175553Y587593D01*
X175505Y587615D01*
X175435Y587623D01*
X175366Y587641D01*
X175313Y587637D01*
X175261Y587642D01*
X175191Y587627D01*
X175121Y587622D01*
X175072Y587601D01*
X175020Y587590D01*
X174960Y587554D01*
X174894Y587526D01*
X174855Y587491D01*
X174809Y587464D01*
X174763Y587410D01*
X174710Y587363D01*
X174670Y587302D01*
X174649Y587277D01*
X174641Y587256D01*
X174619Y587223D01*
X174592Y587135D01*
X174557Y587049D01*
X174553Y587009D01*
X174546Y586988D01*
X174547Y586955D01*
X174539Y586882D01*
X174539Y584425D01*
X172721Y580037D01*
X169363Y576679D01*
X164975Y574861D01*
X160225Y574861D01*
X155837Y576679D01*
X152479Y580037D01*
X150661Y584425D01*
X150661Y589175D01*
X152479Y593563D01*
X155837Y596921D01*
X160225Y598739D01*
X164975Y598739D01*
X166727Y598013D01*
X166841Y597986D01*
X166954Y597958D01*
X166960Y597958D01*
X166966Y597957D01*
X167083Y597968D01*
X167199Y597977D01*
X167205Y597979D01*
X167211Y597980D01*
X167319Y598028D01*
X167426Y598073D01*
X167432Y598078D01*
X167436Y598080D01*
X167450Y598093D01*
X167557Y598178D01*
X179283Y609904D01*
X181617Y610871D01*
X276454Y610871D01*
X276544Y610885D01*
X276635Y610893D01*
X276665Y610905D01*
X276697Y610910D01*
X276778Y610953D01*
X276861Y610989D01*
X276894Y611015D01*
X276914Y611026D01*
X276936Y611049D01*
X276992Y611094D01*
X409011Y743112D01*
X409015Y743118D01*
X409022Y743123D01*
X409087Y743219D01*
X409154Y743312D01*
X409156Y743319D01*
X409161Y743326D01*
X409193Y743437D01*
X409226Y743547D01*
X409226Y743555D01*
X409228Y743562D01*
X409223Y743678D01*
X409220Y743793D01*
X409217Y743800D01*
X409217Y743808D01*
X409175Y743915D01*
X409136Y744024D01*
X409131Y744030D01*
X409128Y744037D01*
X409054Y744126D01*
X408982Y744216D01*
X408975Y744220D01*
X408970Y744226D01*
X408872Y744286D01*
X408775Y744349D01*
X408767Y744351D01*
X408760Y744355D01*
X408648Y744381D01*
X408536Y744409D01*
X408529Y744408D01*
X408521Y744410D01*
X408353Y744402D01*
X407923Y744334D01*
X407923Y760477D01*
X416561Y760477D01*
X416561Y753580D01*
X416378Y752427D01*
X416378Y752419D01*
X416376Y752411D01*
X416379Y752296D01*
X416379Y752181D01*
X416382Y752173D01*
X416382Y752165D01*
X416422Y752057D01*
X416459Y751948D01*
X416464Y751942D01*
X416467Y751934D01*
X416539Y751844D01*
X416609Y751753D01*
X416615Y751749D01*
X416620Y751742D01*
X416717Y751680D01*
X416813Y751616D01*
X416820Y751614D01*
X416827Y751609D01*
X416939Y751581D01*
X417050Y751551D01*
X417058Y751551D01*
X417066Y751549D01*
X417180Y751558D01*
X417295Y751565D01*
X417303Y751568D01*
X417311Y751568D01*
X417416Y751613D01*
X417524Y751656D01*
X417530Y751662D01*
X417537Y751665D01*
X417668Y751769D01*
X443443Y777544D01*
X445777Y778511D01*
X498563Y778511D01*
X498653Y778525D01*
X498744Y778533D01*
X498774Y778545D01*
X498806Y778550D01*
X498886Y778593D01*
X498970Y778629D01*
X499002Y778655D01*
X499023Y778666D01*
X499045Y778689D01*
X499101Y778734D01*
X504212Y783845D01*
X511788Y783845D01*
X517145Y778488D01*
X517145Y770912D01*
X511788Y765555D01*
X504212Y765555D01*
X504181Y765586D01*
X504107Y765639D01*
X504038Y765699D01*
X504008Y765711D01*
X503981Y765730D01*
X503894Y765757D01*
X503810Y765791D01*
X503769Y765795D01*
X503746Y765802D01*
X503714Y765801D01*
X503643Y765809D01*
X449986Y765809D01*
X449896Y765795D01*
X449805Y765787D01*
X449775Y765775D01*
X449743Y765770D01*
X449662Y765727D01*
X449579Y765691D01*
X449546Y765665D01*
X449526Y765654D01*
X449504Y765631D01*
X449448Y765586D01*
X282997Y599136D01*
X280663Y598169D01*
X271552Y598169D01*
X271482Y598158D01*
X271410Y598156D01*
X271361Y598138D01*
X271310Y598130D01*
X271246Y598096D01*
X271179Y598071D01*
X271138Y598039D01*
X271092Y598014D01*
X271043Y597962D01*
X270987Y597918D01*
X270959Y597874D01*
X270923Y597836D01*
X270893Y597771D01*
X270854Y597711D01*
X270841Y597660D01*
X270819Y597613D01*
X270811Y597542D01*
X270794Y597472D01*
X270798Y597420D01*
X270792Y597369D01*
X270807Y597298D01*
X270813Y597227D01*
X270833Y597179D01*
X270844Y597128D01*
X270881Y597067D01*
X270909Y597001D01*
X270954Y596945D01*
X270971Y596917D01*
X270988Y596902D01*
X271014Y596870D01*
X274321Y593563D01*
X276139Y589175D01*
X276139Y584425D01*
X274321Y580037D01*
X270963Y576679D01*
X266575Y574861D01*
X261825Y574861D01*
X257437Y576679D01*
X254079Y580037D01*
X252261Y584425D01*
X252261Y589175D01*
X254079Y593563D01*
X257386Y596870D01*
X257428Y596928D01*
X257477Y596980D01*
X257499Y597027D01*
X257529Y597069D01*
X257550Y597138D01*
X257581Y597203D01*
X257586Y597255D01*
X257602Y597305D01*
X257600Y597376D01*
X257608Y597447D01*
X257597Y597498D01*
X257595Y597550D01*
X257571Y597618D01*
X257556Y597688D01*
X257529Y597733D01*
X257511Y597781D01*
X257466Y597837D01*
X257429Y597899D01*
X257390Y597933D01*
X257357Y597973D01*
X257297Y598012D01*
X257242Y598059D01*
X257194Y598078D01*
X257150Y598106D01*
X257081Y598124D01*
X257014Y598151D01*
X256943Y598159D01*
X256912Y598167D01*
X256888Y598165D01*
X256848Y598169D01*
X246152Y598169D01*
X246082Y598158D01*
X246010Y598156D01*
X245961Y598138D01*
X245910Y598130D01*
X245846Y598096D01*
X245779Y598071D01*
X245738Y598039D01*
X245692Y598014D01*
X245643Y597962D01*
X245587Y597918D01*
X245559Y597874D01*
X245523Y597836D01*
X245493Y597771D01*
X245454Y597711D01*
X245441Y597660D01*
X245419Y597613D01*
X245411Y597542D01*
X245394Y597472D01*
X245398Y597420D01*
X245392Y597369D01*
X245407Y597298D01*
X245413Y597227D01*
X245433Y597179D01*
X245444Y597128D01*
X245481Y597067D01*
X245509Y597001D01*
X245554Y596945D01*
X245571Y596917D01*
X245588Y596902D01*
X245614Y596870D01*
X248921Y593563D01*
X250739Y589175D01*
X250739Y584425D01*
X248921Y580037D01*
X245494Y576610D01*
X245452Y576552D01*
X245403Y576500D01*
X245381Y576453D01*
X245351Y576411D01*
X245330Y576342D01*
X245299Y576277D01*
X245294Y576225D01*
X245278Y576175D01*
X245280Y576104D01*
X245272Y576033D01*
X245283Y575982D01*
X245285Y575930D01*
X245309Y575862D01*
X245324Y575792D01*
X245351Y575747D01*
X245369Y575699D01*
X245414Y575643D01*
X245451Y575581D01*
X245490Y575547D01*
X245523Y575507D01*
X245583Y575468D01*
X245638Y575421D01*
X245686Y575402D01*
X245730Y575374D01*
X245799Y575356D01*
X245866Y575329D01*
X245937Y575321D01*
X245968Y575313D01*
X245992Y575315D01*
X246032Y575311D01*
X255263Y575311D01*
X257597Y574344D01*
X312796Y519146D01*
X312870Y519093D01*
X312939Y519033D01*
X312969Y519021D01*
X312995Y519002D01*
X313082Y518975D01*
X313167Y518941D01*
X313208Y518937D01*
X313230Y518930D01*
X313263Y518931D01*
X313334Y518923D01*
X319484Y518923D01*
X325883Y512524D01*
X325883Y503476D01*
X319484Y497077D01*
X311302Y497077D01*
X311231Y497066D01*
X311159Y497064D01*
X311110Y497046D01*
X311059Y497038D01*
X310996Y497004D01*
X310928Y496979D01*
X310888Y496947D01*
X310842Y496922D01*
X310792Y496870D01*
X310736Y496826D01*
X310708Y496782D01*
X310672Y496744D01*
X310642Y496679D01*
X310603Y496619D01*
X310591Y496568D01*
X310569Y496521D01*
X310561Y496450D01*
X310543Y496380D01*
X310547Y496328D01*
X310542Y496277D01*
X310557Y496206D01*
X310562Y496135D01*
X310583Y496087D01*
X310594Y496036D01*
X310631Y495975D01*
X310659Y495909D01*
X310703Y495853D01*
X310720Y495825D01*
X310738Y495810D01*
X310764Y495778D01*
X327528Y479014D01*
X327602Y478961D01*
X327671Y478901D01*
X327701Y478889D01*
X327727Y478870D01*
X327814Y478843D01*
X327899Y478809D01*
X327940Y478805D01*
X327962Y478798D01*
X327995Y478799D01*
X328066Y478791D01*
X351243Y478791D01*
X351333Y478805D01*
X351424Y478813D01*
X351454Y478825D01*
X351486Y478830D01*
X351566Y478873D01*
X351650Y478909D01*
X351682Y478935D01*
X351703Y478946D01*
X351725Y478969D01*
X351781Y479014D01*
X351812Y479045D01*
X359388Y479045D01*
X364745Y473688D01*
X364745Y466112D01*
X359388Y460755D01*
X351812Y460755D01*
G37*
%LPD*%
%LPC*%
G36*
X123212Y308355D02*
X123212Y308355D01*
X117855Y313712D01*
X117855Y321288D01*
X120426Y323859D01*
X120479Y323933D01*
X120539Y324002D01*
X120551Y324032D01*
X120570Y324059D01*
X120597Y324146D01*
X120631Y324230D01*
X120635Y324271D01*
X120642Y324294D01*
X120641Y324326D01*
X120649Y324397D01*
X120649Y357734D01*
X120635Y357824D01*
X120627Y357915D01*
X120615Y357945D01*
X120610Y357977D01*
X120567Y358058D01*
X120531Y358141D01*
X120505Y358174D01*
X120494Y358194D01*
X120471Y358216D01*
X120426Y358272D01*
X20016Y458683D01*
X19049Y461017D01*
X19049Y746046D01*
X19035Y746136D01*
X19027Y746227D01*
X19015Y746257D01*
X19010Y746289D01*
X18967Y746369D01*
X18931Y746453D01*
X18905Y746485D01*
X18894Y746506D01*
X18871Y746528D01*
X18826Y746584D01*
X16786Y748624D01*
X15239Y752359D01*
X15239Y771641D01*
X16786Y775376D01*
X19644Y778234D01*
X23379Y779781D01*
X27421Y779781D01*
X31156Y778234D01*
X34014Y775376D01*
X35561Y771641D01*
X35561Y752359D01*
X34014Y748624D01*
X31974Y746584D01*
X31921Y746510D01*
X31861Y746441D01*
X31849Y746411D01*
X31830Y746385D01*
X31803Y746298D01*
X31769Y746213D01*
X31765Y746172D01*
X31758Y746149D01*
X31759Y746117D01*
X31751Y746046D01*
X31751Y465226D01*
X31765Y465136D01*
X31773Y465045D01*
X31785Y465015D01*
X31790Y464983D01*
X31833Y464902D01*
X31869Y464819D01*
X31895Y464786D01*
X31906Y464766D01*
X31929Y464744D01*
X31974Y464688D01*
X116556Y380106D01*
X116614Y380064D01*
X116666Y380014D01*
X116713Y379992D01*
X116755Y379962D01*
X116824Y379941D01*
X116889Y379911D01*
X116941Y379905D01*
X116991Y379890D01*
X117062Y379892D01*
X117133Y379884D01*
X117184Y379895D01*
X117236Y379896D01*
X117304Y379921D01*
X117374Y379936D01*
X117418Y379963D01*
X117467Y379980D01*
X117523Y380025D01*
X117585Y380062D01*
X117619Y380102D01*
X117659Y380134D01*
X117698Y380194D01*
X117745Y380249D01*
X117764Y380297D01*
X117792Y380341D01*
X117810Y380411D01*
X117837Y380477D01*
X117845Y380548D01*
X117853Y380580D01*
X117851Y380603D01*
X117855Y380644D01*
X117855Y384788D01*
X123212Y390145D01*
X130788Y390145D01*
X136145Y384788D01*
X136145Y377212D01*
X130788Y371855D01*
X126644Y371855D01*
X126573Y371844D01*
X126501Y371842D01*
X126452Y371824D01*
X126401Y371816D01*
X126338Y371782D01*
X126270Y371757D01*
X126230Y371725D01*
X126184Y371700D01*
X126134Y371648D01*
X126078Y371604D01*
X126050Y371560D01*
X126014Y371522D01*
X125984Y371457D01*
X125945Y371397D01*
X125933Y371346D01*
X125911Y371299D01*
X125903Y371228D01*
X125885Y371158D01*
X125889Y371106D01*
X125884Y371055D01*
X125899Y370984D01*
X125904Y370913D01*
X125925Y370865D01*
X125936Y370814D01*
X125973Y370753D01*
X126001Y370687D01*
X126045Y370631D01*
X126062Y370603D01*
X126080Y370588D01*
X126106Y370556D01*
X132384Y364277D01*
X133351Y361943D01*
X133351Y324397D01*
X133365Y324307D01*
X133373Y324216D01*
X133385Y324186D01*
X133390Y324154D01*
X133433Y324074D01*
X133469Y323990D01*
X133495Y323958D01*
X133506Y323937D01*
X133529Y323915D01*
X133574Y323859D01*
X136145Y321288D01*
X136145Y313712D01*
X130788Y308355D01*
X123212Y308355D01*
G37*
%LPD*%
%LPC*%
G36*
X786137Y730249D02*
X786137Y730249D01*
X783803Y731216D01*
X769042Y745976D01*
X769026Y745988D01*
X769014Y746004D01*
X768926Y746060D01*
X768843Y746120D01*
X768824Y746126D01*
X768807Y746137D01*
X768706Y746162D01*
X768608Y746192D01*
X768588Y746192D01*
X768568Y746197D01*
X768465Y746189D01*
X768362Y746186D01*
X768343Y746179D01*
X768323Y746177D01*
X768228Y746137D01*
X768131Y746101D01*
X768115Y746089D01*
X768097Y746081D01*
X767966Y745976D01*
X767756Y745766D01*
X764021Y744219D01*
X759979Y744219D01*
X756244Y745766D01*
X753386Y748624D01*
X751839Y752359D01*
X751839Y771641D01*
X753386Y775376D01*
X756244Y778234D01*
X759979Y779781D01*
X764021Y779781D01*
X767756Y778234D01*
X770614Y775376D01*
X772161Y771641D01*
X772161Y761136D01*
X772175Y761046D01*
X772183Y760955D01*
X772195Y760925D01*
X772200Y760893D01*
X772243Y760812D01*
X772279Y760729D01*
X772305Y760696D01*
X772316Y760676D01*
X772339Y760654D01*
X772384Y760598D01*
X789808Y743174D01*
X789882Y743121D01*
X789951Y743061D01*
X789981Y743049D01*
X790007Y743030D01*
X790094Y743003D01*
X790179Y742969D01*
X790220Y742965D01*
X790242Y742958D01*
X790275Y742959D01*
X790346Y742951D01*
X848114Y742951D01*
X848210Y742966D01*
X848307Y742976D01*
X848331Y742986D01*
X848357Y742990D01*
X848443Y743036D01*
X848532Y743076D01*
X848551Y743093D01*
X848575Y743106D01*
X848642Y743176D01*
X848713Y743242D01*
X848726Y743265D01*
X848744Y743284D01*
X848785Y743372D01*
X848832Y743458D01*
X848837Y743483D01*
X848848Y743507D01*
X848858Y743604D01*
X848876Y743700D01*
X848872Y743726D01*
X848875Y743751D01*
X848854Y743847D01*
X848840Y743943D01*
X848828Y743966D01*
X848822Y743992D01*
X848772Y744075D01*
X848728Y744162D01*
X848710Y744181D01*
X848696Y744203D01*
X848622Y744266D01*
X848553Y744334D01*
X848524Y744350D01*
X848509Y744363D01*
X848479Y744375D01*
X848406Y744415D01*
X845144Y745766D01*
X842286Y748624D01*
X840739Y752359D01*
X840739Y771641D01*
X842286Y775376D01*
X845144Y778234D01*
X848879Y779781D01*
X852921Y779781D01*
X856656Y778234D01*
X859514Y775376D01*
X861061Y771641D01*
X861061Y755040D01*
X861072Y754969D01*
X861074Y754897D01*
X861092Y754848D01*
X861100Y754797D01*
X861134Y754734D01*
X861159Y754666D01*
X861191Y754626D01*
X861216Y754580D01*
X861268Y754530D01*
X861312Y754474D01*
X861356Y754446D01*
X861394Y754410D01*
X861459Y754380D01*
X861519Y754341D01*
X861570Y754329D01*
X861617Y754307D01*
X861688Y754299D01*
X861758Y754281D01*
X861810Y754285D01*
X861861Y754280D01*
X861932Y754295D01*
X862003Y754300D01*
X862051Y754321D01*
X862102Y754332D01*
X862163Y754369D01*
X862229Y754397D01*
X862285Y754442D01*
X862313Y754458D01*
X862328Y754476D01*
X862360Y754502D01*
X865916Y758058D01*
X865969Y758132D01*
X866029Y758201D01*
X866041Y758231D01*
X866060Y758257D01*
X866087Y758345D01*
X866121Y758429D01*
X866125Y758470D01*
X866132Y758492D01*
X866131Y758525D01*
X866139Y758596D01*
X866139Y771641D01*
X867686Y775376D01*
X870544Y778234D01*
X874279Y779781D01*
X878321Y779781D01*
X882056Y778234D01*
X884914Y775376D01*
X886461Y771641D01*
X886461Y769112D01*
X886463Y769098D01*
X886462Y769088D01*
X886463Y769082D01*
X886462Y769073D01*
X886484Y768971D01*
X886500Y768869D01*
X886510Y768852D01*
X886514Y768832D01*
X886567Y768743D01*
X886616Y768652D01*
X886630Y768638D01*
X886640Y768621D01*
X886719Y768554D01*
X886794Y768482D01*
X886812Y768474D01*
X886827Y768461D01*
X886923Y768422D01*
X887017Y768379D01*
X887037Y768377D01*
X887055Y768369D01*
X887222Y768351D01*
X925823Y768351D01*
X928157Y767384D01*
X941040Y754502D01*
X941098Y754460D01*
X941150Y754410D01*
X941197Y754388D01*
X941239Y754358D01*
X941308Y754337D01*
X941373Y754307D01*
X941425Y754301D01*
X941475Y754286D01*
X941546Y754288D01*
X941617Y754280D01*
X941668Y754291D01*
X941720Y754292D01*
X941788Y754317D01*
X941858Y754332D01*
X941903Y754359D01*
X941951Y754376D01*
X942007Y754421D01*
X942069Y754458D01*
X942103Y754498D01*
X942143Y754530D01*
X942182Y754590D01*
X942229Y754645D01*
X942248Y754693D01*
X942276Y754737D01*
X942294Y754807D01*
X942321Y754873D01*
X942329Y754944D01*
X942337Y754976D01*
X942335Y754999D01*
X942339Y755040D01*
X942339Y771641D01*
X943886Y775376D01*
X946744Y778234D01*
X950479Y779781D01*
X954521Y779781D01*
X958256Y778234D01*
X961114Y775376D01*
X962661Y771641D01*
X962661Y755040D01*
X962672Y754969D01*
X962674Y754897D01*
X962692Y754848D01*
X962700Y754797D01*
X962734Y754734D01*
X962759Y754666D01*
X962791Y754626D01*
X962816Y754580D01*
X962868Y754530D01*
X962912Y754474D01*
X962956Y754446D01*
X962994Y754410D01*
X963059Y754380D01*
X963119Y754341D01*
X963170Y754329D01*
X963217Y754307D01*
X963288Y754299D01*
X963358Y754281D01*
X963410Y754285D01*
X963461Y754280D01*
X963532Y754295D01*
X963603Y754300D01*
X963651Y754321D01*
X963702Y754332D01*
X963763Y754369D01*
X963829Y754397D01*
X963885Y754442D01*
X963913Y754458D01*
X963928Y754476D01*
X963960Y754502D01*
X967516Y758058D01*
X967569Y758132D01*
X967629Y758201D01*
X967641Y758231D01*
X967660Y758257D01*
X967687Y758345D01*
X967721Y758429D01*
X967725Y758470D01*
X967732Y758492D01*
X967731Y758525D01*
X967739Y758596D01*
X967739Y771641D01*
X969286Y775376D01*
X972144Y778234D01*
X975879Y779781D01*
X979921Y779781D01*
X983656Y778234D01*
X986514Y775376D01*
X988061Y771641D01*
X988061Y752359D01*
X986514Y748624D01*
X983656Y745766D01*
X979921Y744219D01*
X975879Y744219D01*
X973352Y745266D01*
X973238Y745293D01*
X973125Y745321D01*
X973118Y745321D01*
X973112Y745322D01*
X972996Y745311D01*
X972880Y745302D01*
X972874Y745300D01*
X972868Y745299D01*
X972760Y745251D01*
X972653Y745206D01*
X972647Y745201D01*
X972643Y745199D01*
X972629Y745186D01*
X972522Y745101D01*
X958637Y731216D01*
X956303Y730249D01*
X948697Y730249D01*
X946363Y731216D01*
X922152Y755426D01*
X922078Y755479D01*
X922009Y755539D01*
X921979Y755551D01*
X921953Y755570D01*
X921866Y755597D01*
X921781Y755631D01*
X921740Y755635D01*
X921718Y755642D01*
X921685Y755641D01*
X921614Y755649D01*
X887222Y755649D01*
X887202Y755646D01*
X887183Y755648D01*
X887081Y755626D01*
X886979Y755610D01*
X886962Y755600D01*
X886942Y755596D01*
X886853Y755543D01*
X886762Y755494D01*
X886748Y755480D01*
X886731Y755470D01*
X886664Y755391D01*
X886592Y755316D01*
X886584Y755298D01*
X886571Y755283D01*
X886532Y755187D01*
X886489Y755093D01*
X886487Y755073D01*
X886479Y755055D01*
X886461Y754888D01*
X886461Y752359D01*
X884914Y748624D01*
X882056Y745766D01*
X878321Y744219D01*
X874279Y744219D01*
X871752Y745266D01*
X871638Y745293D01*
X871525Y745321D01*
X871518Y745321D01*
X871512Y745322D01*
X871396Y745311D01*
X871280Y745302D01*
X871274Y745300D01*
X871268Y745299D01*
X871160Y745251D01*
X871053Y745206D01*
X871047Y745201D01*
X871043Y745199D01*
X871029Y745186D01*
X870922Y745101D01*
X858931Y733110D01*
X857037Y731216D01*
X854703Y730249D01*
X786137Y730249D01*
G37*
%LPD*%
%LPC*%
G36*
X216747Y728090D02*
X216747Y728090D01*
X213620Y729386D01*
X211226Y731780D01*
X209930Y734907D01*
X209930Y738293D01*
X211226Y741420D01*
X213620Y743814D01*
X216747Y745110D01*
X220133Y745110D01*
X223260Y743814D01*
X223901Y743174D01*
X223975Y743121D01*
X224044Y743061D01*
X224074Y743049D01*
X224101Y743030D01*
X224188Y743003D01*
X224272Y742969D01*
X224313Y742965D01*
X224336Y742958D01*
X224368Y742959D01*
X224439Y742951D01*
X251214Y742951D01*
X251310Y742966D01*
X251407Y742976D01*
X251431Y742986D01*
X251457Y742990D01*
X251543Y743036D01*
X251632Y743076D01*
X251651Y743093D01*
X251675Y743106D01*
X251742Y743176D01*
X251813Y743242D01*
X251826Y743265D01*
X251844Y743284D01*
X251885Y743372D01*
X251932Y743458D01*
X251937Y743483D01*
X251948Y743507D01*
X251958Y743604D01*
X251976Y743700D01*
X251972Y743726D01*
X251975Y743751D01*
X251954Y743847D01*
X251940Y743943D01*
X251928Y743966D01*
X251922Y743992D01*
X251872Y744075D01*
X251828Y744162D01*
X251810Y744181D01*
X251796Y744203D01*
X251722Y744266D01*
X251653Y744334D01*
X251624Y744350D01*
X251609Y744363D01*
X251579Y744375D01*
X251506Y744415D01*
X248244Y745766D01*
X245386Y748624D01*
X243839Y752359D01*
X243839Y771641D01*
X245386Y775376D01*
X248244Y778234D01*
X251979Y779781D01*
X256021Y779781D01*
X259756Y778234D01*
X262614Y775376D01*
X264161Y771641D01*
X264161Y752359D01*
X262614Y748624D01*
X259756Y745766D01*
X256494Y744415D01*
X256411Y744364D01*
X256325Y744318D01*
X256307Y744299D01*
X256285Y744286D01*
X256223Y744211D01*
X256156Y744140D01*
X256145Y744116D01*
X256128Y744096D01*
X256094Y744005D01*
X256052Y743917D01*
X256050Y743891D01*
X256040Y743867D01*
X256036Y743769D01*
X256025Y743673D01*
X256031Y743647D01*
X256030Y743621D01*
X256057Y743527D01*
X256078Y743432D01*
X256091Y743410D01*
X256098Y743385D01*
X256154Y743305D01*
X256204Y743221D01*
X256224Y743204D01*
X256239Y743183D01*
X256317Y743124D01*
X256391Y743061D01*
X256415Y743051D01*
X256436Y743036D01*
X256528Y743006D01*
X256619Y742969D01*
X256651Y742966D01*
X256670Y742960D01*
X256703Y742960D01*
X256786Y742951D01*
X276937Y742951D01*
X277000Y742961D01*
X277064Y742961D01*
X277121Y742981D01*
X277180Y742990D01*
X277236Y743020D01*
X277297Y743041D01*
X277344Y743078D01*
X277397Y743106D01*
X277441Y743152D01*
X277492Y743191D01*
X277525Y743240D01*
X277567Y743284D01*
X277593Y743342D01*
X277629Y743395D01*
X277645Y743453D01*
X277670Y743507D01*
X277677Y743570D01*
X277694Y743632D01*
X277691Y743692D01*
X277697Y743751D01*
X277684Y743814D01*
X277680Y743878D01*
X277658Y743933D01*
X277645Y743992D01*
X277612Y744047D01*
X277588Y744106D01*
X277549Y744152D01*
X277519Y744203D01*
X277470Y744244D01*
X277429Y744293D01*
X277377Y744324D01*
X277332Y744363D01*
X277273Y744387D01*
X277218Y744420D01*
X277134Y744442D01*
X277104Y744455D01*
X277079Y744457D01*
X277056Y744464D01*
X277021Y744469D01*
X275500Y744964D01*
X274075Y745690D01*
X272781Y746630D01*
X271650Y747761D01*
X270710Y749055D01*
X269984Y750480D01*
X269489Y752001D01*
X269239Y753580D01*
X269239Y760477D01*
X278638Y760477D01*
X278658Y760480D01*
X278677Y760478D01*
X278779Y760500D01*
X278881Y760517D01*
X278898Y760526D01*
X278918Y760530D01*
X279007Y760583D01*
X279098Y760632D01*
X279112Y760646D01*
X279129Y760656D01*
X279196Y760735D01*
X279267Y760810D01*
X279276Y760828D01*
X279289Y760843D01*
X279327Y760939D01*
X279371Y761033D01*
X279373Y761053D01*
X279381Y761071D01*
X279399Y761238D01*
X279399Y762001D01*
X279401Y762001D01*
X279401Y761238D01*
X279404Y761218D01*
X279402Y761199D01*
X279424Y761097D01*
X279441Y760995D01*
X279450Y760978D01*
X279454Y760958D01*
X279507Y760869D01*
X279556Y760778D01*
X279570Y760764D01*
X279580Y760747D01*
X279659Y760680D01*
X279734Y760609D01*
X279752Y760600D01*
X279767Y760587D01*
X279863Y760548D01*
X279957Y760505D01*
X279977Y760503D01*
X279995Y760495D01*
X280162Y760477D01*
X289561Y760477D01*
X289561Y753580D01*
X289311Y752001D01*
X288816Y750480D01*
X288090Y749055D01*
X287150Y747761D01*
X286019Y746630D01*
X284725Y745690D01*
X283300Y744964D01*
X281779Y744469D01*
X281744Y744464D01*
X281683Y744444D01*
X281620Y744433D01*
X281567Y744406D01*
X281510Y744387D01*
X281459Y744348D01*
X281403Y744318D01*
X281362Y744275D01*
X281314Y744239D01*
X281277Y744186D01*
X281233Y744140D01*
X281208Y744086D01*
X281174Y744036D01*
X281157Y743975D01*
X281130Y743917D01*
X281123Y743858D01*
X281107Y743800D01*
X281110Y743736D01*
X281103Y743673D01*
X281115Y743614D01*
X281118Y743554D01*
X281141Y743495D01*
X281155Y743432D01*
X281186Y743381D01*
X281207Y743325D01*
X281248Y743276D01*
X281281Y743221D01*
X281327Y743182D01*
X281365Y743136D01*
X281419Y743103D01*
X281468Y743061D01*
X281524Y743039D01*
X281575Y743007D01*
X281637Y742993D01*
X281696Y742969D01*
X281782Y742960D01*
X281814Y742952D01*
X281839Y742953D01*
X281863Y742951D01*
X352654Y742951D01*
X352744Y742965D01*
X352835Y742973D01*
X352865Y742985D01*
X352897Y742990D01*
X352978Y743033D01*
X353061Y743069D01*
X353094Y743095D01*
X353114Y743106D01*
X353136Y743129D01*
X353192Y743174D01*
X370616Y760598D01*
X370669Y760672D01*
X370729Y760741D01*
X370741Y760771D01*
X370760Y760797D01*
X370787Y760884D01*
X370821Y760969D01*
X370825Y761010D01*
X370832Y761032D01*
X370831Y761065D01*
X370839Y761136D01*
X370839Y771641D01*
X372386Y775376D01*
X375244Y778234D01*
X378979Y779781D01*
X383021Y779781D01*
X386756Y778234D01*
X389614Y775376D01*
X391161Y771641D01*
X391161Y752359D01*
X389614Y748624D01*
X386756Y745766D01*
X383021Y744219D01*
X378979Y744219D01*
X375244Y745766D01*
X375034Y745976D01*
X375018Y745988D01*
X375006Y746004D01*
X374918Y746060D01*
X374835Y746120D01*
X374815Y746126D01*
X374799Y746137D01*
X374698Y746162D01*
X374599Y746192D01*
X374579Y746192D01*
X374560Y746197D01*
X374457Y746189D01*
X374354Y746186D01*
X374335Y746179D01*
X374315Y746177D01*
X374220Y746137D01*
X374123Y746101D01*
X374107Y746089D01*
X374089Y746081D01*
X373958Y745976D01*
X359197Y731216D01*
X356863Y730249D01*
X224439Y730249D01*
X224349Y730235D01*
X224258Y730227D01*
X224228Y730215D01*
X224196Y730210D01*
X224116Y730167D01*
X224032Y730131D01*
X224000Y730105D01*
X223979Y730094D01*
X223957Y730071D01*
X223901Y730026D01*
X223260Y729386D01*
X220133Y728090D01*
X216747Y728090D01*
G37*
%LPD*%
%LPC*%
G36*
X912581Y301751D02*
X912581Y301751D01*
X909220Y303143D01*
X906647Y305716D01*
X905255Y309077D01*
X905255Y319888D01*
X905241Y319978D01*
X905233Y320069D01*
X905221Y320099D01*
X905216Y320131D01*
X905173Y320212D01*
X905137Y320295D01*
X905111Y320328D01*
X905100Y320348D01*
X905077Y320370D01*
X905032Y320426D01*
X899346Y326113D01*
X899327Y326126D01*
X899313Y326144D01*
X899227Y326198D01*
X899146Y326256D01*
X899124Y326263D01*
X899105Y326276D01*
X899007Y326299D01*
X898911Y326329D01*
X898888Y326328D01*
X898866Y326334D01*
X898766Y326325D01*
X898665Y326322D01*
X898643Y326315D01*
X898620Y326313D01*
X898529Y326273D01*
X898434Y326238D01*
X898416Y326224D01*
X898395Y326214D01*
X898321Y326147D01*
X898242Y326084D01*
X898230Y326065D01*
X898212Y326049D01*
X898163Y325962D01*
X898109Y325877D01*
X898103Y325855D01*
X898092Y325835D01*
X898073Y325736D01*
X898049Y325639D01*
X898051Y325616D01*
X898046Y325593D01*
X898061Y325426D01*
X898145Y325005D01*
X898145Y319023D01*
X889762Y319023D01*
X889742Y319020D01*
X889723Y319022D01*
X889621Y319000D01*
X889519Y318983D01*
X889502Y318974D01*
X889482Y318970D01*
X889393Y318917D01*
X889302Y318868D01*
X889288Y318854D01*
X889271Y318844D01*
X889204Y318765D01*
X889133Y318690D01*
X889124Y318672D01*
X889111Y318657D01*
X889073Y318561D01*
X889029Y318467D01*
X889027Y318447D01*
X889019Y318429D01*
X889001Y318262D01*
X889001Y317499D01*
X888999Y317499D01*
X888999Y318262D01*
X888996Y318282D01*
X888998Y318301D01*
X888976Y318403D01*
X888959Y318505D01*
X888950Y318522D01*
X888946Y318542D01*
X888893Y318631D01*
X888844Y318722D01*
X888830Y318736D01*
X888820Y318753D01*
X888741Y318820D01*
X888666Y318891D01*
X888648Y318900D01*
X888633Y318913D01*
X888537Y318952D01*
X888443Y318995D01*
X888423Y318997D01*
X888405Y319005D01*
X888238Y319023D01*
X879855Y319023D01*
X879855Y325005D01*
X879939Y325426D01*
X879940Y325449D01*
X879947Y325471D01*
X879944Y325572D01*
X879947Y325672D01*
X879941Y325694D01*
X879940Y325717D01*
X879906Y325811D01*
X879877Y325908D01*
X879864Y325926D01*
X879856Y325948D01*
X879793Y326026D01*
X879735Y326109D01*
X879717Y326122D01*
X879702Y326140D01*
X879618Y326194D01*
X879537Y326254D01*
X879515Y326261D01*
X879495Y326273D01*
X879398Y326298D01*
X879302Y326328D01*
X879279Y326328D01*
X879257Y326333D01*
X879157Y326325D01*
X879056Y326324D01*
X879034Y326316D01*
X879011Y326314D01*
X878919Y326275D01*
X878824Y326241D01*
X878806Y326227D01*
X878785Y326218D01*
X878654Y326113D01*
X867197Y314656D01*
X864863Y313689D01*
X822237Y313689D01*
X822147Y313675D01*
X822056Y313667D01*
X822026Y313655D01*
X821994Y313650D01*
X821914Y313607D01*
X821830Y313571D01*
X821798Y313545D01*
X821777Y313534D01*
X821755Y313511D01*
X821699Y313466D01*
X816588Y308355D01*
X809012Y308355D01*
X803655Y313712D01*
X803655Y321288D01*
X809012Y326645D01*
X816588Y326645D01*
X816619Y326614D01*
X816693Y326561D01*
X816762Y326501D01*
X816792Y326489D01*
X816819Y326470D01*
X816906Y326443D01*
X816990Y326409D01*
X817031Y326405D01*
X817054Y326398D01*
X817086Y326399D01*
X817157Y326391D01*
X860654Y326391D01*
X860744Y326405D01*
X860835Y326413D01*
X860865Y326425D01*
X860897Y326430D01*
X860978Y326473D01*
X861061Y326509D01*
X861094Y326535D01*
X861114Y326546D01*
X861136Y326569D01*
X861192Y326614D01*
X880323Y345744D01*
X882657Y346711D01*
X895343Y346711D01*
X897677Y345744D01*
X910518Y332903D01*
X910612Y332835D01*
X910707Y332765D01*
X910713Y332763D01*
X910718Y332759D01*
X910829Y332725D01*
X910941Y332689D01*
X910947Y332689D01*
X910953Y332687D01*
X911070Y332690D01*
X911187Y332691D01*
X911194Y332693D01*
X911199Y332693D01*
X911216Y332700D01*
X911348Y332738D01*
X912581Y333249D01*
X916219Y333249D01*
X919580Y331857D01*
X922153Y329284D01*
X923545Y325923D01*
X923545Y309077D01*
X922153Y305716D01*
X919580Y303143D01*
X916219Y301751D01*
X912581Y301751D01*
G37*
%LPD*%
%LPC*%
G36*
X912581Y568451D02*
X912581Y568451D01*
X909220Y569843D01*
X906647Y572416D01*
X905255Y575777D01*
X905255Y584048D01*
X905241Y584138D01*
X905233Y584229D01*
X905221Y584259D01*
X905216Y584291D01*
X905173Y584372D01*
X905137Y584455D01*
X905111Y584488D01*
X905100Y584508D01*
X905077Y584530D01*
X905032Y584586D01*
X899444Y590174D01*
X899386Y590216D01*
X899334Y590266D01*
X899287Y590288D01*
X899245Y590318D01*
X899176Y590339D01*
X899111Y590369D01*
X899059Y590375D01*
X899009Y590390D01*
X898938Y590388D01*
X898867Y590396D01*
X898816Y590385D01*
X898764Y590384D01*
X898696Y590359D01*
X898626Y590344D01*
X898581Y590317D01*
X898533Y590300D01*
X898477Y590255D01*
X898415Y590218D01*
X898381Y590178D01*
X898341Y590146D01*
X898302Y590086D01*
X898255Y590031D01*
X898236Y589983D01*
X898208Y589939D01*
X898190Y589869D01*
X898163Y589803D01*
X898155Y589732D01*
X898147Y589700D01*
X898149Y589677D01*
X898145Y589636D01*
X898145Y585723D01*
X889762Y585723D01*
X889742Y585720D01*
X889723Y585722D01*
X889621Y585700D01*
X889519Y585683D01*
X889502Y585674D01*
X889482Y585670D01*
X889393Y585617D01*
X889302Y585568D01*
X889288Y585554D01*
X889271Y585544D01*
X889204Y585465D01*
X889133Y585390D01*
X889124Y585372D01*
X889111Y585357D01*
X889073Y585261D01*
X889029Y585167D01*
X889027Y585147D01*
X889019Y585129D01*
X889001Y584962D01*
X889001Y584199D01*
X888999Y584199D01*
X888999Y584962D01*
X888996Y584982D01*
X888998Y585001D01*
X888976Y585103D01*
X888959Y585205D01*
X888950Y585222D01*
X888946Y585242D01*
X888893Y585331D01*
X888844Y585422D01*
X888830Y585436D01*
X888820Y585453D01*
X888741Y585520D01*
X888666Y585591D01*
X888648Y585600D01*
X888633Y585613D01*
X888537Y585652D01*
X888443Y585695D01*
X888423Y585697D01*
X888405Y585705D01*
X888238Y585723D01*
X879855Y585723D01*
X879855Y589636D01*
X879844Y589707D01*
X879842Y589779D01*
X879824Y589828D01*
X879816Y589879D01*
X879782Y589942D01*
X879757Y590010D01*
X879725Y590050D01*
X879700Y590096D01*
X879648Y590146D01*
X879604Y590202D01*
X879560Y590230D01*
X879522Y590266D01*
X879457Y590296D01*
X879397Y590335D01*
X879346Y590347D01*
X879299Y590369D01*
X879228Y590377D01*
X879158Y590395D01*
X879106Y590391D01*
X879055Y590396D01*
X878984Y590381D01*
X878913Y590376D01*
X878865Y590355D01*
X878814Y590344D01*
X878753Y590307D01*
X878687Y590279D01*
X878631Y590235D01*
X878603Y590218D01*
X878588Y590200D01*
X878556Y590174D01*
X867197Y578816D01*
X864863Y577849D01*
X819697Y577849D01*
X819607Y577835D01*
X819516Y577827D01*
X819486Y577815D01*
X819454Y577810D01*
X819374Y577767D01*
X819290Y577731D01*
X819258Y577705D01*
X819237Y577694D01*
X819215Y577671D01*
X819159Y577626D01*
X816588Y575055D01*
X809012Y575055D01*
X803655Y580412D01*
X803655Y587988D01*
X809012Y593345D01*
X816588Y593345D01*
X819159Y590774D01*
X819233Y590721D01*
X819302Y590661D01*
X819332Y590649D01*
X819359Y590630D01*
X819446Y590603D01*
X819530Y590569D01*
X819571Y590565D01*
X819594Y590558D01*
X819626Y590559D01*
X819697Y590551D01*
X860654Y590551D01*
X860744Y590565D01*
X860835Y590573D01*
X860865Y590585D01*
X860897Y590590D01*
X860978Y590633D01*
X861061Y590669D01*
X861094Y590695D01*
X861114Y590706D01*
X861136Y590729D01*
X861192Y590774D01*
X880323Y609904D01*
X882657Y610871D01*
X895343Y610871D01*
X897677Y609904D01*
X908722Y598859D01*
X908816Y598792D01*
X908911Y598721D01*
X908917Y598719D01*
X908922Y598716D01*
X909033Y598681D01*
X909145Y598645D01*
X909151Y598645D01*
X909157Y598643D01*
X909274Y598646D01*
X909391Y598647D01*
X909398Y598649D01*
X909403Y598650D01*
X909421Y598656D01*
X909552Y598694D01*
X912581Y599949D01*
X916219Y599949D01*
X919580Y598557D01*
X922153Y595984D01*
X923545Y592623D01*
X923545Y575777D01*
X922153Y572416D01*
X919580Y569843D01*
X916219Y568451D01*
X912581Y568451D01*
G37*
%LPD*%
G36*
X498678Y31765D02*
X498678Y31765D01*
X498769Y31773D01*
X498799Y31785D01*
X498831Y31790D01*
X498912Y31833D01*
X498996Y31869D01*
X499028Y31895D01*
X499048Y31906D01*
X499071Y31929D01*
X499127Y31974D01*
X503476Y36323D01*
X511658Y36323D01*
X511729Y36334D01*
X511801Y36336D01*
X511850Y36354D01*
X511901Y36362D01*
X511964Y36396D01*
X512032Y36421D01*
X512072Y36453D01*
X512118Y36478D01*
X512168Y36530D01*
X512224Y36574D01*
X512252Y36618D01*
X512288Y36656D01*
X512318Y36721D01*
X512357Y36781D01*
X512369Y36832D01*
X512391Y36879D01*
X512399Y36950D01*
X512417Y37020D01*
X512413Y37072D01*
X512418Y37123D01*
X512403Y37194D01*
X512398Y37265D01*
X512377Y37313D01*
X512366Y37364D01*
X512329Y37425D01*
X512301Y37491D01*
X512257Y37547D01*
X512240Y37575D01*
X512222Y37590D01*
X512196Y37622D01*
X454792Y95026D01*
X454718Y95079D01*
X454649Y95139D01*
X454619Y95151D01*
X454593Y95170D01*
X454506Y95197D01*
X454421Y95231D01*
X454380Y95235D01*
X454358Y95242D01*
X454325Y95241D01*
X454254Y95249D01*
X365283Y95249D01*
X365187Y95234D01*
X365090Y95224D01*
X365066Y95214D01*
X365041Y95210D01*
X364955Y95164D01*
X364866Y95124D01*
X364846Y95107D01*
X364823Y95094D01*
X364756Y95024D01*
X364685Y94958D01*
X364672Y94935D01*
X364654Y94916D01*
X364613Y94828D01*
X364566Y94742D01*
X364561Y94717D01*
X364550Y94693D01*
X364540Y94596D01*
X364522Y94500D01*
X364526Y94474D01*
X364523Y94449D01*
X364544Y94354D01*
X364558Y94257D01*
X364570Y94234D01*
X364576Y94208D01*
X364625Y94125D01*
X364670Y94038D01*
X364688Y94019D01*
X364702Y93997D01*
X364776Y93934D01*
X364845Y93866D01*
X364874Y93850D01*
X364889Y93837D01*
X364919Y93825D01*
X364992Y93785D01*
X365500Y93574D01*
X366141Y92934D01*
X366215Y92881D01*
X366284Y92821D01*
X366314Y92809D01*
X366341Y92790D01*
X366428Y92763D01*
X366512Y92729D01*
X366553Y92725D01*
X366576Y92718D01*
X366608Y92719D01*
X366679Y92711D01*
X422903Y92711D01*
X425237Y91744D01*
X485008Y31974D01*
X485082Y31921D01*
X485151Y31861D01*
X485181Y31849D01*
X485207Y31830D01*
X485294Y31803D01*
X485379Y31769D01*
X485420Y31765D01*
X485442Y31758D01*
X485475Y31759D01*
X485546Y31751D01*
X498588Y31751D01*
X498678Y31765D01*
G37*
%LPC*%
G36*
X452676Y497077D02*
X452676Y497077D01*
X446277Y503476D01*
X446277Y512524D01*
X450626Y516873D01*
X450679Y516947D01*
X450739Y517017D01*
X450751Y517047D01*
X450770Y517073D01*
X450797Y517160D01*
X450831Y517245D01*
X450835Y517286D01*
X450842Y517308D01*
X450841Y517340D01*
X450849Y517412D01*
X450849Y571094D01*
X450835Y571184D01*
X450827Y571275D01*
X450815Y571305D01*
X450810Y571337D01*
X450767Y571418D01*
X450731Y571501D01*
X450705Y571534D01*
X450694Y571554D01*
X450671Y571576D01*
X450626Y571632D01*
X446872Y575387D01*
X446777Y575455D01*
X446683Y575525D01*
X446677Y575527D01*
X446672Y575530D01*
X446561Y575565D01*
X446449Y575601D01*
X446443Y575601D01*
X446437Y575603D01*
X446320Y575600D01*
X446203Y575599D01*
X446196Y575597D01*
X446191Y575596D01*
X446174Y575590D01*
X446042Y575552D01*
X444375Y574861D01*
X439625Y574861D01*
X435237Y576679D01*
X431879Y580037D01*
X430061Y584425D01*
X430061Y589175D01*
X431879Y593563D01*
X435237Y596921D01*
X439625Y598739D01*
X444375Y598739D01*
X448763Y596921D01*
X452121Y593563D01*
X453939Y589175D01*
X453939Y586598D01*
X453953Y586508D01*
X453961Y586417D01*
X453973Y586387D01*
X453978Y586355D01*
X454021Y586274D01*
X454057Y586191D01*
X454083Y586158D01*
X454094Y586138D01*
X454117Y586116D01*
X454162Y586060D01*
X454220Y586018D01*
X454272Y585968D01*
X454319Y585946D01*
X454361Y585916D01*
X454430Y585895D01*
X454495Y585865D01*
X454547Y585859D01*
X454597Y585844D01*
X454668Y585846D01*
X454739Y585838D01*
X454790Y585849D01*
X454842Y585850D01*
X454910Y585875D01*
X454980Y585890D01*
X455024Y585917D01*
X455073Y585934D01*
X455129Y585979D01*
X455191Y586016D01*
X455225Y586056D01*
X455265Y586088D01*
X455304Y586148D01*
X455351Y586203D01*
X455370Y586251D01*
X455398Y586295D01*
X455416Y586365D01*
X455443Y586431D01*
X455451Y586502D01*
X455459Y586534D01*
X455457Y586557D01*
X455461Y586598D01*
X455461Y589175D01*
X457279Y593563D01*
X460637Y596921D01*
X465025Y598739D01*
X469775Y598739D01*
X474163Y596921D01*
X477521Y593563D01*
X479339Y589175D01*
X479339Y584425D01*
X477521Y580037D01*
X474163Y576679D01*
X469775Y574861D01*
X465025Y574861D01*
X464603Y575036D01*
X464559Y575047D01*
X464517Y575066D01*
X464440Y575074D01*
X464364Y575092D01*
X464318Y575088D01*
X464273Y575093D01*
X464196Y575076D01*
X464119Y575069D01*
X464077Y575050D01*
X464032Y575041D01*
X463965Y575001D01*
X463894Y574969D01*
X463860Y574938D01*
X463821Y574915D01*
X463770Y574855D01*
X463713Y574803D01*
X463691Y574762D01*
X463661Y574728D01*
X463632Y574655D01*
X463595Y574587D01*
X463586Y574542D01*
X463569Y574499D01*
X463554Y574363D01*
X463551Y574345D01*
X463552Y574340D01*
X463551Y574333D01*
X463551Y517412D01*
X463565Y517322D01*
X463573Y517231D01*
X463585Y517201D01*
X463590Y517169D01*
X463633Y517088D01*
X463669Y517004D01*
X463695Y516972D01*
X463706Y516952D01*
X463729Y516929D01*
X463774Y516873D01*
X468123Y512524D01*
X468123Y503476D01*
X461724Y497077D01*
X452676Y497077D01*
G37*
%LPD*%
%LPC*%
G36*
X224812Y371855D02*
X224812Y371855D01*
X219455Y377212D01*
X219455Y384788D01*
X222026Y387359D01*
X222079Y387433D01*
X222139Y387502D01*
X222151Y387532D01*
X222170Y387559D01*
X222197Y387646D01*
X222231Y387730D01*
X222235Y387771D01*
X222242Y387794D01*
X222241Y387826D01*
X222249Y387897D01*
X222249Y424903D01*
X222235Y424993D01*
X222227Y425084D01*
X222215Y425114D01*
X222210Y425146D01*
X222167Y425226D01*
X222131Y425310D01*
X222105Y425342D01*
X222094Y425363D01*
X222071Y425385D01*
X222026Y425441D01*
X219455Y428012D01*
X219455Y435588D01*
X222026Y438159D01*
X222079Y438233D01*
X222139Y438302D01*
X222151Y438332D01*
X222170Y438359D01*
X222197Y438446D01*
X222231Y438530D01*
X222235Y438571D01*
X222242Y438594D01*
X222241Y438626D01*
X222249Y438697D01*
X222249Y475703D01*
X222235Y475793D01*
X222227Y475884D01*
X222215Y475914D01*
X222210Y475946D01*
X222167Y476026D01*
X222131Y476110D01*
X222105Y476142D01*
X222094Y476163D01*
X222071Y476185D01*
X222026Y476241D01*
X219455Y478812D01*
X219455Y486388D01*
X224812Y491745D01*
X232388Y491745D01*
X237745Y486388D01*
X237745Y478812D01*
X235174Y476241D01*
X235121Y476167D01*
X235061Y476098D01*
X235049Y476068D01*
X235030Y476041D01*
X235003Y475954D01*
X234969Y475870D01*
X234965Y475829D01*
X234958Y475806D01*
X234959Y475774D01*
X234951Y475703D01*
X234951Y438697D01*
X234965Y438607D01*
X234973Y438516D01*
X234985Y438486D01*
X234990Y438454D01*
X235033Y438374D01*
X235069Y438290D01*
X235095Y438258D01*
X235106Y438237D01*
X235129Y438215D01*
X235174Y438159D01*
X237745Y435588D01*
X237745Y428012D01*
X235174Y425441D01*
X235121Y425367D01*
X235061Y425298D01*
X235049Y425268D01*
X235030Y425241D01*
X235003Y425154D01*
X234969Y425070D01*
X234965Y425029D01*
X234958Y425006D01*
X234959Y424974D01*
X234951Y424903D01*
X234951Y387897D01*
X234965Y387807D01*
X234973Y387716D01*
X234985Y387686D01*
X234990Y387654D01*
X235033Y387574D01*
X235069Y387490D01*
X235095Y387458D01*
X235106Y387437D01*
X235129Y387415D01*
X235174Y387359D01*
X237745Y384788D01*
X237745Y377212D01*
X232388Y371855D01*
X224812Y371855D01*
G37*
%LPD*%
%LPC*%
G36*
X361236Y497077D02*
X361236Y497077D01*
X354837Y503476D01*
X354837Y512524D01*
X359186Y516873D01*
X359239Y516947D01*
X359299Y517017D01*
X359311Y517047D01*
X359330Y517073D01*
X359357Y517160D01*
X359391Y517245D01*
X359395Y517286D01*
X359402Y517308D01*
X359401Y517340D01*
X359409Y517412D01*
X359409Y576016D01*
X359390Y576131D01*
X359373Y576247D01*
X359370Y576253D01*
X359370Y576259D01*
X359316Y576361D01*
X359262Y576467D01*
X359257Y576471D01*
X359254Y576476D01*
X359170Y576557D01*
X359086Y576639D01*
X359080Y576642D01*
X359076Y576646D01*
X359066Y576650D01*
X355679Y580037D01*
X353861Y584425D01*
X353861Y589175D01*
X355679Y593563D01*
X359037Y596921D01*
X363425Y598739D01*
X368175Y598739D01*
X372563Y596921D01*
X375921Y593563D01*
X377739Y589175D01*
X377739Y584425D01*
X375921Y580037D01*
X372553Y576669D01*
X372481Y576625D01*
X372381Y576565D01*
X372377Y576560D01*
X372372Y576557D01*
X372297Y576467D01*
X372221Y576378D01*
X372219Y576372D01*
X372215Y576367D01*
X372173Y576259D01*
X372129Y576150D01*
X372128Y576142D01*
X372127Y576138D01*
X372126Y576119D01*
X372111Y575983D01*
X372111Y517412D01*
X372125Y517322D01*
X372133Y517231D01*
X372145Y517201D01*
X372150Y517169D01*
X372193Y517088D01*
X372229Y517004D01*
X372255Y516972D01*
X372266Y516952D01*
X372289Y516929D01*
X372334Y516873D01*
X376683Y512524D01*
X376683Y503476D01*
X370284Y497077D01*
X361236Y497077D01*
G37*
%LPD*%
%LPC*%
G36*
X386636Y497077D02*
X386636Y497077D01*
X380237Y503476D01*
X380237Y512524D01*
X384586Y516873D01*
X384639Y516947D01*
X384699Y517017D01*
X384711Y517047D01*
X384730Y517073D01*
X384757Y517160D01*
X384791Y517245D01*
X384795Y517286D01*
X384802Y517308D01*
X384801Y517340D01*
X384809Y517412D01*
X384809Y576016D01*
X384790Y576131D01*
X384773Y576247D01*
X384770Y576253D01*
X384770Y576259D01*
X384716Y576361D01*
X384662Y576467D01*
X384657Y576471D01*
X384654Y576476D01*
X384570Y576557D01*
X384486Y576639D01*
X384480Y576642D01*
X384476Y576646D01*
X384466Y576650D01*
X381079Y580037D01*
X379261Y584425D01*
X379261Y589175D01*
X381079Y593563D01*
X384437Y596921D01*
X388825Y598739D01*
X393575Y598739D01*
X397963Y596921D01*
X401321Y593563D01*
X403139Y589175D01*
X403139Y584425D01*
X401321Y580037D01*
X397953Y576669D01*
X397881Y576625D01*
X397781Y576565D01*
X397777Y576560D01*
X397772Y576557D01*
X397697Y576467D01*
X397621Y576378D01*
X397619Y576372D01*
X397615Y576367D01*
X397573Y576259D01*
X397529Y576150D01*
X397528Y576142D01*
X397527Y576138D01*
X397526Y576119D01*
X397511Y575983D01*
X397511Y517412D01*
X397525Y517322D01*
X397533Y517231D01*
X397545Y517201D01*
X397550Y517169D01*
X397593Y517088D01*
X397629Y517004D01*
X397655Y516972D01*
X397666Y516952D01*
X397689Y516929D01*
X397734Y516873D01*
X402083Y512524D01*
X402083Y503476D01*
X395684Y497077D01*
X386636Y497077D01*
G37*
%LPD*%
%LPC*%
G36*
X412036Y497077D02*
X412036Y497077D01*
X405637Y503476D01*
X405637Y512524D01*
X409986Y516873D01*
X410039Y516947D01*
X410099Y517017D01*
X410111Y517047D01*
X410130Y517073D01*
X410157Y517160D01*
X410191Y517245D01*
X410195Y517286D01*
X410202Y517308D01*
X410201Y517340D01*
X410209Y517412D01*
X410209Y576016D01*
X410190Y576131D01*
X410173Y576247D01*
X410170Y576253D01*
X410170Y576259D01*
X410116Y576361D01*
X410062Y576467D01*
X410057Y576471D01*
X410054Y576476D01*
X409970Y576557D01*
X409886Y576639D01*
X409880Y576642D01*
X409876Y576646D01*
X409866Y576650D01*
X406479Y580037D01*
X404661Y584425D01*
X404661Y589175D01*
X406479Y593563D01*
X409837Y596921D01*
X414225Y598739D01*
X418975Y598739D01*
X423363Y596921D01*
X426721Y593563D01*
X428539Y589175D01*
X428539Y584425D01*
X426721Y580037D01*
X423353Y576669D01*
X423281Y576625D01*
X423181Y576565D01*
X423177Y576560D01*
X423172Y576557D01*
X423097Y576467D01*
X423021Y576378D01*
X423019Y576372D01*
X423015Y576367D01*
X422973Y576259D01*
X422929Y576150D01*
X422928Y576142D01*
X422927Y576138D01*
X422926Y576119D01*
X422911Y575983D01*
X422911Y517412D01*
X422925Y517322D01*
X422933Y517231D01*
X422945Y517201D01*
X422950Y517169D01*
X422993Y517088D01*
X423029Y517004D01*
X423055Y516972D01*
X423066Y516952D01*
X423089Y516929D01*
X423134Y516873D01*
X427483Y512524D01*
X427483Y503476D01*
X421084Y497077D01*
X412036Y497077D01*
G37*
%LPD*%
G36*
X876981Y468642D02*
X876981Y468642D01*
X877053Y468644D01*
X877102Y468662D01*
X877153Y468670D01*
X877216Y468704D01*
X877284Y468729D01*
X877324Y468761D01*
X877370Y468786D01*
X877420Y468838D01*
X877476Y468882D01*
X877504Y468926D01*
X877540Y468964D01*
X877570Y469029D01*
X877609Y469089D01*
X877621Y469140D01*
X877643Y469187D01*
X877651Y469258D01*
X877669Y469328D01*
X877665Y469380D01*
X877670Y469431D01*
X877655Y469502D01*
X877650Y469573D01*
X877629Y469621D01*
X877618Y469672D01*
X877581Y469733D01*
X877553Y469799D01*
X877509Y469855D01*
X877492Y469883D01*
X877474Y469898D01*
X877448Y469930D01*
X861192Y486186D01*
X861118Y486239D01*
X861049Y486299D01*
X861019Y486311D01*
X860993Y486330D01*
X860906Y486357D01*
X860821Y486391D01*
X860780Y486395D01*
X860758Y486402D01*
X860725Y486401D01*
X860654Y486409D01*
X817157Y486409D01*
X817067Y486395D01*
X816976Y486387D01*
X816946Y486375D01*
X816914Y486370D01*
X816834Y486327D01*
X816750Y486291D01*
X816718Y486265D01*
X816697Y486254D01*
X816675Y486231D01*
X816619Y486186D01*
X816588Y486155D01*
X809904Y486155D01*
X809833Y486144D01*
X809761Y486142D01*
X809712Y486124D01*
X809661Y486116D01*
X809598Y486082D01*
X809530Y486057D01*
X809490Y486025D01*
X809444Y486000D01*
X809394Y485948D01*
X809338Y485904D01*
X809310Y485860D01*
X809274Y485822D01*
X809244Y485757D01*
X809205Y485697D01*
X809193Y485646D01*
X809171Y485599D01*
X809163Y485528D01*
X809145Y485458D01*
X809149Y485406D01*
X809144Y485355D01*
X809159Y485284D01*
X809164Y485213D01*
X809185Y485165D01*
X809196Y485114D01*
X809233Y485053D01*
X809261Y484987D01*
X809305Y484931D01*
X809322Y484903D01*
X809340Y484888D01*
X809366Y484856D01*
X825368Y468854D01*
X825442Y468801D01*
X825511Y468741D01*
X825541Y468729D01*
X825567Y468710D01*
X825654Y468683D01*
X825739Y468649D01*
X825780Y468645D01*
X825802Y468638D01*
X825835Y468639D01*
X825906Y468631D01*
X876910Y468631D01*
X876981Y468642D01*
G37*
G36*
X627978Y463461D02*
X627978Y463461D01*
X628030Y463462D01*
X628098Y463487D01*
X628168Y463502D01*
X628212Y463529D01*
X628261Y463546D01*
X628317Y463591D01*
X628379Y463628D01*
X628413Y463668D01*
X628453Y463700D01*
X628492Y463760D01*
X628539Y463815D01*
X628558Y463863D01*
X628586Y463907D01*
X628604Y463977D01*
X628631Y464043D01*
X628639Y464114D01*
X628647Y464146D01*
X628645Y464169D01*
X628649Y464210D01*
X628649Y498588D01*
X628635Y498678D01*
X628627Y498769D01*
X628615Y498799D01*
X628610Y498831D01*
X628567Y498912D01*
X628531Y498996D01*
X628505Y499028D01*
X628494Y499048D01*
X628471Y499071D01*
X628426Y499127D01*
X624077Y503476D01*
X624077Y512524D01*
X627143Y515590D01*
X627185Y515648D01*
X627234Y515700D01*
X627256Y515747D01*
X627286Y515789D01*
X627307Y515858D01*
X627338Y515923D01*
X627343Y515975D01*
X627359Y516025D01*
X627357Y516096D01*
X627365Y516167D01*
X627354Y516218D01*
X627352Y516270D01*
X627328Y516338D01*
X627312Y516408D01*
X627286Y516453D01*
X627268Y516501D01*
X627223Y516557D01*
X627186Y516619D01*
X627147Y516653D01*
X627114Y516693D01*
X627054Y516732D01*
X626999Y516779D01*
X626951Y516798D01*
X626907Y516826D01*
X626838Y516844D01*
X626771Y516871D01*
X626700Y516879D01*
X626669Y516887D01*
X626645Y516885D01*
X626604Y516889D01*
X617996Y516889D01*
X617925Y516878D01*
X617853Y516876D01*
X617804Y516858D01*
X617753Y516850D01*
X617690Y516816D01*
X617622Y516791D01*
X617582Y516759D01*
X617535Y516734D01*
X617486Y516682D01*
X617430Y516638D01*
X617402Y516594D01*
X617366Y516556D01*
X617336Y516491D01*
X617297Y516431D01*
X617284Y516380D01*
X617262Y516333D01*
X617255Y516262D01*
X617237Y516192D01*
X617241Y516140D01*
X617235Y516089D01*
X617251Y516018D01*
X617256Y515947D01*
X617277Y515899D01*
X617288Y515848D01*
X617324Y515787D01*
X617353Y515721D01*
X617397Y515665D01*
X617414Y515637D01*
X617432Y515622D01*
X617457Y515590D01*
X620523Y512524D01*
X620523Y503476D01*
X614124Y497077D01*
X605076Y497077D01*
X598677Y503476D01*
X598677Y512524D01*
X601743Y515590D01*
X601785Y515648D01*
X601834Y515700D01*
X601856Y515747D01*
X601886Y515789D01*
X601907Y515858D01*
X601938Y515923D01*
X601943Y515975D01*
X601959Y516025D01*
X601957Y516096D01*
X601965Y516167D01*
X601954Y516218D01*
X601952Y516270D01*
X601928Y516338D01*
X601912Y516408D01*
X601886Y516453D01*
X601868Y516501D01*
X601823Y516557D01*
X601786Y516619D01*
X601747Y516653D01*
X601714Y516693D01*
X601654Y516732D01*
X601599Y516779D01*
X601551Y516798D01*
X601507Y516826D01*
X601438Y516844D01*
X601371Y516871D01*
X601300Y516879D01*
X601269Y516887D01*
X601245Y516885D01*
X601204Y516889D01*
X592596Y516889D01*
X592525Y516878D01*
X592453Y516876D01*
X592404Y516858D01*
X592353Y516850D01*
X592290Y516816D01*
X592222Y516791D01*
X592182Y516759D01*
X592135Y516734D01*
X592086Y516682D01*
X592030Y516638D01*
X592002Y516594D01*
X591966Y516556D01*
X591936Y516491D01*
X591897Y516431D01*
X591884Y516380D01*
X591862Y516333D01*
X591855Y516262D01*
X591837Y516192D01*
X591841Y516140D01*
X591835Y516089D01*
X591851Y516018D01*
X591856Y515947D01*
X591877Y515899D01*
X591888Y515848D01*
X591924Y515787D01*
X591953Y515721D01*
X591997Y515665D01*
X592014Y515637D01*
X592032Y515622D01*
X592057Y515590D01*
X595123Y512524D01*
X595123Y503476D01*
X591872Y500225D01*
X591861Y500209D01*
X591845Y500197D01*
X591789Y500110D01*
X591729Y500026D01*
X591723Y500007D01*
X591712Y499990D01*
X591687Y499889D01*
X591657Y499791D01*
X591657Y499771D01*
X591652Y499751D01*
X591660Y499648D01*
X591663Y499545D01*
X591670Y499526D01*
X591671Y499506D01*
X591712Y499411D01*
X591747Y499314D01*
X591760Y499298D01*
X591768Y499280D01*
X591872Y499149D01*
X627350Y463672D01*
X627408Y463630D01*
X627460Y463580D01*
X627507Y463558D01*
X627549Y463528D01*
X627618Y463507D01*
X627683Y463477D01*
X627735Y463471D01*
X627785Y463456D01*
X627856Y463458D01*
X627927Y463450D01*
X627978Y463461D01*
G37*
%LPC*%
G36*
X658379Y744219D02*
X658379Y744219D01*
X654644Y745766D01*
X651786Y748624D01*
X650239Y752359D01*
X650239Y771641D01*
X651786Y775376D01*
X654644Y778234D01*
X658379Y779781D01*
X662421Y779781D01*
X666156Y778234D01*
X669014Y775376D01*
X670561Y771641D01*
X670561Y752359D01*
X669014Y748624D01*
X666156Y745766D01*
X662421Y744219D01*
X658379Y744219D01*
G37*
%LPD*%
%LPC*%
G36*
X937981Y301751D02*
X937981Y301751D01*
X934620Y303143D01*
X932047Y305716D01*
X930655Y309077D01*
X930655Y325923D01*
X932047Y329284D01*
X934620Y331857D01*
X937981Y333249D01*
X941619Y333249D01*
X944980Y331857D01*
X947553Y329284D01*
X948945Y325923D01*
X948945Y309077D01*
X947553Y305716D01*
X944980Y303143D01*
X941619Y301751D01*
X937981Y301751D01*
G37*
%LPD*%
%LPC*%
G36*
X937981Y403351D02*
X937981Y403351D01*
X934620Y404743D01*
X932047Y407316D01*
X930655Y410677D01*
X930655Y427523D01*
X932047Y430884D01*
X934620Y433457D01*
X937981Y434849D01*
X941619Y434849D01*
X944980Y433457D01*
X947553Y430884D01*
X948945Y427523D01*
X948945Y410677D01*
X947553Y407316D01*
X944980Y404743D01*
X941619Y403351D01*
X937981Y403351D01*
G37*
%LPD*%
%LPC*%
G36*
X178219Y57149D02*
X178219Y57149D01*
X173831Y58967D01*
X170473Y62325D01*
X168655Y66713D01*
X168655Y71463D01*
X170473Y75851D01*
X173831Y79209D01*
X178219Y81027D01*
X182969Y81027D01*
X187357Y79209D01*
X190715Y75851D01*
X192533Y71463D01*
X192533Y66713D01*
X190715Y62325D01*
X187357Y58967D01*
X182969Y57149D01*
X178219Y57149D01*
G37*
%LPD*%
%LPC*%
G36*
X223431Y57149D02*
X223431Y57149D01*
X219043Y58967D01*
X215685Y62325D01*
X213867Y66713D01*
X213867Y71463D01*
X215685Y75851D01*
X219043Y79209D01*
X223431Y81027D01*
X228181Y81027D01*
X232569Y79209D01*
X235927Y75851D01*
X237745Y71463D01*
X237745Y66713D01*
X235927Y62325D01*
X232569Y58967D01*
X228181Y57149D01*
X223431Y57149D01*
G37*
%LPD*%
%LPC*%
G36*
X571919Y57149D02*
X571919Y57149D01*
X567531Y58967D01*
X564173Y62325D01*
X562355Y66713D01*
X562355Y71463D01*
X564173Y75851D01*
X567531Y79209D01*
X571919Y81027D01*
X576669Y81027D01*
X581057Y79209D01*
X584415Y75851D01*
X586233Y71463D01*
X586233Y66713D01*
X584415Y62325D01*
X581057Y58967D01*
X576669Y57149D01*
X571919Y57149D01*
G37*
%LPD*%
%LPC*%
G36*
X617131Y57149D02*
X617131Y57149D01*
X612743Y58967D01*
X609385Y62325D01*
X607567Y66713D01*
X607567Y71463D01*
X609385Y75851D01*
X612743Y79209D01*
X617131Y81027D01*
X621881Y81027D01*
X626269Y79209D01*
X629627Y75851D01*
X631445Y71463D01*
X631445Y66713D01*
X629627Y62325D01*
X626269Y58967D01*
X621881Y57149D01*
X617131Y57149D01*
G37*
%LPD*%
%LPC*%
G36*
X338025Y574861D02*
X338025Y574861D01*
X333637Y576679D01*
X330279Y580037D01*
X328461Y584425D01*
X328461Y589175D01*
X330279Y593563D01*
X333637Y596921D01*
X338025Y598739D01*
X342775Y598739D01*
X347163Y596921D01*
X350521Y593563D01*
X352339Y589175D01*
X352339Y584425D01*
X350521Y580037D01*
X347163Y576679D01*
X342775Y574861D01*
X338025Y574861D01*
G37*
%LPD*%
%LPC*%
G36*
X312625Y574861D02*
X312625Y574861D01*
X308237Y576679D01*
X304879Y580037D01*
X303061Y584425D01*
X303061Y589175D01*
X304879Y593563D01*
X308237Y596921D01*
X312625Y598739D01*
X317375Y598739D01*
X321763Y596921D01*
X325121Y593563D01*
X326939Y589175D01*
X326939Y584425D01*
X325121Y580037D01*
X321763Y576679D01*
X317375Y574861D01*
X312625Y574861D01*
G37*
%LPD*%
%LPC*%
G36*
X287225Y574861D02*
X287225Y574861D01*
X282837Y576679D01*
X279479Y580037D01*
X277661Y584425D01*
X277661Y589175D01*
X279479Y593563D01*
X282837Y596921D01*
X287225Y598739D01*
X291975Y598739D01*
X296363Y596921D01*
X299721Y593563D01*
X301539Y589175D01*
X301539Y584425D01*
X299721Y580037D01*
X296363Y576679D01*
X291975Y574861D01*
X287225Y574861D01*
G37*
%LPD*%
%LPC*%
G36*
X134825Y574861D02*
X134825Y574861D01*
X130437Y576679D01*
X127079Y580037D01*
X125261Y584425D01*
X125261Y589175D01*
X127079Y593563D01*
X130437Y596921D01*
X134825Y598739D01*
X139575Y598739D01*
X143963Y596921D01*
X147321Y593563D01*
X149139Y589175D01*
X149139Y584425D01*
X147321Y580037D01*
X143963Y576679D01*
X139575Y574861D01*
X134825Y574861D01*
G37*
%LPD*%
%LPC*%
G36*
X605076Y14477D02*
X605076Y14477D01*
X598677Y20876D01*
X598677Y29924D01*
X605076Y36323D01*
X614124Y36323D01*
X620523Y29924D01*
X620523Y20876D01*
X614124Y14477D01*
X605076Y14477D01*
G37*
%LPD*%
%LPC*%
G36*
X335836Y497077D02*
X335836Y497077D01*
X329437Y503476D01*
X329437Y512524D01*
X335836Y518923D01*
X344884Y518923D01*
X351283Y512524D01*
X351283Y503476D01*
X344884Y497077D01*
X335836Y497077D01*
G37*
%LPD*%
%LPC*%
G36*
X478076Y497077D02*
X478076Y497077D01*
X471677Y503476D01*
X471677Y512524D01*
X478076Y518923D01*
X487124Y518923D01*
X493523Y512524D01*
X493523Y503476D01*
X487124Y497077D01*
X478076Y497077D01*
G37*
%LPD*%
%LPC*%
G36*
X325676Y14477D02*
X325676Y14477D01*
X319277Y20876D01*
X319277Y29924D01*
X325676Y36323D01*
X334724Y36323D01*
X341123Y29924D01*
X341123Y20876D01*
X334724Y14477D01*
X325676Y14477D01*
G37*
%LPD*%
%LPC*%
G36*
X351076Y14477D02*
X351076Y14477D01*
X344677Y20876D01*
X344677Y29924D01*
X351076Y36323D01*
X360124Y36323D01*
X366523Y29924D01*
X366523Y20876D01*
X360124Y14477D01*
X351076Y14477D01*
G37*
%LPD*%
%LPC*%
G36*
X376476Y14477D02*
X376476Y14477D01*
X370077Y20876D01*
X370077Y29924D01*
X376476Y36323D01*
X385524Y36323D01*
X391923Y29924D01*
X391923Y20876D01*
X385524Y14477D01*
X376476Y14477D01*
G37*
%LPD*%
%LPC*%
G36*
X630476Y14477D02*
X630476Y14477D01*
X624077Y20876D01*
X624077Y29924D01*
X630476Y36323D01*
X639524Y36323D01*
X645923Y29924D01*
X645923Y20876D01*
X639524Y14477D01*
X630476Y14477D01*
G37*
%LPD*%
%LPC*%
G36*
X234236Y497077D02*
X234236Y497077D01*
X227837Y503476D01*
X227837Y512524D01*
X234236Y518923D01*
X243284Y518923D01*
X249683Y512524D01*
X249683Y503476D01*
X243284Y497077D01*
X234236Y497077D01*
G37*
%LPD*%
%LPC*%
G36*
X453412Y460755D02*
X453412Y460755D01*
X448055Y466112D01*
X448055Y473688D01*
X453412Y479045D01*
X460988Y479045D01*
X466345Y473688D01*
X466345Y466112D01*
X460988Y460755D01*
X453412Y460755D01*
G37*
%LPD*%
%LPC*%
G36*
X707412Y409955D02*
X707412Y409955D01*
X702055Y415312D01*
X702055Y422888D01*
X707412Y428245D01*
X714988Y428245D01*
X720345Y422888D01*
X720345Y415312D01*
X714988Y409955D01*
X707412Y409955D01*
G37*
%LPD*%
%LPC*%
G36*
X478812Y740155D02*
X478812Y740155D01*
X473455Y745512D01*
X473455Y753088D01*
X478812Y758445D01*
X486388Y758445D01*
X491745Y753088D01*
X491745Y745512D01*
X486388Y740155D01*
X478812Y740155D01*
G37*
%LPD*%
%LPC*%
G36*
X707412Y575055D02*
X707412Y575055D01*
X702055Y580412D01*
X702055Y587988D01*
X707412Y593345D01*
X714988Y593345D01*
X720345Y587988D01*
X720345Y580412D01*
X714988Y575055D01*
X707412Y575055D01*
G37*
%LPD*%
G36*
X231638Y575322D02*
X231638Y575322D01*
X231710Y575324D01*
X231759Y575342D01*
X231810Y575350D01*
X231874Y575384D01*
X231941Y575409D01*
X231982Y575441D01*
X232028Y575466D01*
X232077Y575518D01*
X232133Y575562D01*
X232161Y575606D01*
X232197Y575644D01*
X232227Y575709D01*
X232266Y575769D01*
X232279Y575820D01*
X232301Y575867D01*
X232309Y575938D01*
X232326Y576008D01*
X232322Y576060D01*
X232328Y576111D01*
X232313Y576182D01*
X232307Y576253D01*
X232287Y576301D01*
X232276Y576352D01*
X232239Y576413D01*
X232211Y576479D01*
X232166Y576535D01*
X232149Y576563D01*
X232132Y576578D01*
X232106Y576610D01*
X228679Y580037D01*
X226861Y584425D01*
X226861Y589175D01*
X228679Y593563D01*
X231986Y596870D01*
X232028Y596928D01*
X232077Y596980D01*
X232099Y597027D01*
X232129Y597069D01*
X232150Y597138D01*
X232181Y597203D01*
X232186Y597255D01*
X232202Y597305D01*
X232200Y597376D01*
X232208Y597447D01*
X232197Y597498D01*
X232195Y597550D01*
X232171Y597618D01*
X232156Y597688D01*
X232129Y597733D01*
X232111Y597781D01*
X232066Y597837D01*
X232029Y597899D01*
X231990Y597933D01*
X231957Y597973D01*
X231897Y598012D01*
X231842Y598059D01*
X231794Y598078D01*
X231750Y598106D01*
X231681Y598124D01*
X231614Y598151D01*
X231543Y598159D01*
X231512Y598167D01*
X231488Y598165D01*
X231448Y598169D01*
X220406Y598169D01*
X220398Y598168D01*
X220390Y598169D01*
X220277Y598148D01*
X220163Y598130D01*
X220156Y598126D01*
X220148Y598124D01*
X220047Y598068D01*
X219946Y598014D01*
X219940Y598009D01*
X219933Y598005D01*
X219856Y597920D01*
X219776Y597836D01*
X219773Y597829D01*
X219768Y597823D01*
X219722Y597718D01*
X219673Y597613D01*
X219672Y597605D01*
X219669Y597598D01*
X219658Y597483D01*
X219646Y597369D01*
X219647Y597361D01*
X219647Y597353D01*
X219673Y597241D01*
X219698Y597128D01*
X219702Y597121D01*
X219704Y597114D01*
X219765Y597016D01*
X219824Y596917D01*
X219830Y596912D01*
X219834Y596905D01*
X219958Y596792D01*
X221178Y595906D01*
X222506Y594578D01*
X223611Y593057D01*
X224464Y591383D01*
X225045Y589596D01*
X225246Y588323D01*
X214162Y588323D01*
X214142Y588320D01*
X214123Y588322D01*
X214021Y588300D01*
X213919Y588283D01*
X213902Y588274D01*
X213882Y588270D01*
X213793Y588217D01*
X213702Y588168D01*
X213688Y588154D01*
X213671Y588144D01*
X213604Y588065D01*
X213533Y587990D01*
X213524Y587972D01*
X213511Y587957D01*
X213473Y587861D01*
X213429Y587767D01*
X213427Y587747D01*
X213419Y587729D01*
X213401Y587562D01*
X213401Y586038D01*
X213404Y586018D01*
X213402Y585999D01*
X213424Y585897D01*
X213441Y585795D01*
X213450Y585778D01*
X213454Y585758D01*
X213507Y585669D01*
X213556Y585578D01*
X213570Y585564D01*
X213580Y585547D01*
X213659Y585480D01*
X213734Y585409D01*
X213752Y585400D01*
X213767Y585387D01*
X213863Y585348D01*
X213957Y585305D01*
X213977Y585303D01*
X213995Y585295D01*
X214162Y585277D01*
X225246Y585277D01*
X225045Y584004D01*
X224464Y582217D01*
X223611Y580543D01*
X222506Y579022D01*
X221178Y577694D01*
X219793Y576688D01*
X219788Y576682D01*
X219781Y576678D01*
X219701Y576595D01*
X219620Y576513D01*
X219617Y576506D01*
X219611Y576500D01*
X219563Y576396D01*
X219512Y576292D01*
X219511Y576284D01*
X219508Y576277D01*
X219495Y576163D01*
X219480Y576048D01*
X219481Y576040D01*
X219480Y576033D01*
X219505Y575920D01*
X219527Y575807D01*
X219531Y575800D01*
X219533Y575792D01*
X219592Y575694D01*
X219649Y575593D01*
X219655Y575588D01*
X219659Y575581D01*
X219746Y575506D01*
X219832Y575429D01*
X219840Y575426D01*
X219846Y575421D01*
X219953Y575378D01*
X220059Y575333D01*
X220066Y575332D01*
X220074Y575329D01*
X220241Y575311D01*
X231568Y575311D01*
X231638Y575322D01*
G37*
G36*
X921704Y458485D02*
X921704Y458485D01*
X921795Y458493D01*
X921825Y458505D01*
X921857Y458510D01*
X921938Y458553D01*
X922021Y458589D01*
X922054Y458615D01*
X922074Y458626D01*
X922096Y458649D01*
X922152Y458694D01*
X941710Y478252D01*
X941752Y478310D01*
X941802Y478362D01*
X941824Y478409D01*
X941854Y478451D01*
X941875Y478520D01*
X941905Y478585D01*
X941911Y478637D01*
X941926Y478687D01*
X941924Y478758D01*
X941932Y478829D01*
X941921Y478880D01*
X941920Y478932D01*
X941895Y479000D01*
X941880Y479070D01*
X941853Y479115D01*
X941836Y479163D01*
X941791Y479219D01*
X941754Y479281D01*
X941714Y479315D01*
X941682Y479355D01*
X941622Y479394D01*
X941567Y479441D01*
X941519Y479460D01*
X941475Y479488D01*
X941405Y479506D01*
X941339Y479533D01*
X941268Y479541D01*
X941236Y479549D01*
X941213Y479547D01*
X941172Y479551D01*
X937981Y479551D01*
X936748Y480062D01*
X936634Y480089D01*
X936521Y480117D01*
X936515Y480117D01*
X936508Y480118D01*
X936392Y480107D01*
X936276Y480098D01*
X936270Y480096D01*
X936264Y480095D01*
X936156Y480047D01*
X936049Y480002D01*
X936043Y479997D01*
X936039Y479995D01*
X936025Y479982D01*
X935918Y479897D01*
X915792Y459770D01*
X915750Y459712D01*
X915700Y459660D01*
X915678Y459613D01*
X915648Y459571D01*
X915627Y459502D01*
X915597Y459437D01*
X915591Y459385D01*
X915576Y459335D01*
X915578Y459264D01*
X915570Y459193D01*
X915581Y459142D01*
X915582Y459090D01*
X915607Y459022D01*
X915622Y458952D01*
X915649Y458907D01*
X915666Y458859D01*
X915711Y458803D01*
X915748Y458741D01*
X915788Y458707D01*
X915820Y458667D01*
X915880Y458628D01*
X915935Y458581D01*
X915983Y458562D01*
X916027Y458534D01*
X916097Y458516D01*
X916163Y458489D01*
X916234Y458481D01*
X916266Y458473D01*
X916289Y458475D01*
X916330Y458471D01*
X921614Y458471D01*
X921704Y458485D01*
G37*
%LPC*%
G36*
X407923Y763523D02*
X407923Y763523D01*
X407923Y779666D01*
X408779Y779531D01*
X410300Y779036D01*
X411725Y778310D01*
X413019Y777370D01*
X414150Y776239D01*
X415090Y774945D01*
X415816Y773520D01*
X416311Y771999D01*
X416561Y770420D01*
X416561Y763523D01*
X407923Y763523D01*
G37*
%LPD*%
%LPC*%
G36*
X153923Y763523D02*
X153923Y763523D01*
X153923Y779666D01*
X154779Y779531D01*
X156300Y779036D01*
X157725Y778310D01*
X159019Y777370D01*
X160150Y776239D01*
X161090Y774945D01*
X161816Y773520D01*
X162311Y771999D01*
X162561Y770420D01*
X162561Y763523D01*
X153923Y763523D01*
G37*
%LPD*%
%LPC*%
G36*
X52323Y763523D02*
X52323Y763523D01*
X52323Y779666D01*
X53179Y779531D01*
X54700Y779036D01*
X56125Y778310D01*
X57419Y777370D01*
X58550Y776239D01*
X59490Y774945D01*
X60216Y773520D01*
X60711Y771999D01*
X60961Y770420D01*
X60961Y763523D01*
X52323Y763523D01*
G37*
%LPD*%
%LPC*%
G36*
X280923Y763523D02*
X280923Y763523D01*
X280923Y779666D01*
X281779Y779531D01*
X283300Y779036D01*
X284725Y778310D01*
X286019Y777370D01*
X287150Y776239D01*
X288090Y774945D01*
X288816Y773520D01*
X289311Y771999D01*
X289561Y770420D01*
X289561Y763523D01*
X280923Y763523D01*
G37*
%LPD*%
%LPC*%
G36*
X153923Y760477D02*
X153923Y760477D01*
X162561Y760477D01*
X162561Y753580D01*
X162311Y752001D01*
X161816Y750480D01*
X161090Y749055D01*
X160150Y747761D01*
X159019Y746630D01*
X157725Y745690D01*
X156300Y744964D01*
X154779Y744469D01*
X153923Y744334D01*
X153923Y760477D01*
G37*
%LPD*%
%LPC*%
G36*
X52323Y760477D02*
X52323Y760477D01*
X60961Y760477D01*
X60961Y753580D01*
X60711Y752001D01*
X60216Y750480D01*
X59490Y749055D01*
X58550Y747761D01*
X57419Y746630D01*
X56125Y745690D01*
X54700Y744964D01*
X53179Y744469D01*
X52323Y744334D01*
X52323Y760477D01*
G37*
%LPD*%
%LPC*%
G36*
X269239Y763523D02*
X269239Y763523D01*
X269239Y770420D01*
X269489Y771999D01*
X269984Y773520D01*
X270710Y774945D01*
X271650Y776239D01*
X272781Y777370D01*
X274075Y778310D01*
X275500Y779036D01*
X277021Y779531D01*
X277877Y779666D01*
X277877Y763523D01*
X269239Y763523D01*
G37*
%LPD*%
%LPC*%
G36*
X142239Y763523D02*
X142239Y763523D01*
X142239Y770420D01*
X142489Y771999D01*
X142984Y773520D01*
X143710Y774945D01*
X144650Y776239D01*
X145781Y777370D01*
X147075Y778310D01*
X148500Y779036D01*
X150021Y779531D01*
X150877Y779666D01*
X150877Y763523D01*
X142239Y763523D01*
G37*
%LPD*%
%LPC*%
G36*
X40639Y763523D02*
X40639Y763523D01*
X40639Y770420D01*
X40889Y771999D01*
X41384Y773520D01*
X42110Y774945D01*
X43050Y776239D01*
X44181Y777370D01*
X45475Y778310D01*
X46900Y779036D01*
X48421Y779531D01*
X49277Y779666D01*
X49277Y763523D01*
X40639Y763523D01*
G37*
%LPD*%
%LPC*%
G36*
X396239Y763523D02*
X396239Y763523D01*
X396239Y770420D01*
X396489Y771999D01*
X396984Y773520D01*
X397710Y774945D01*
X398650Y776239D01*
X399781Y777370D01*
X401075Y778310D01*
X402500Y779036D01*
X404021Y779531D01*
X404877Y779666D01*
X404877Y763523D01*
X396239Y763523D01*
G37*
%LPD*%
%LPC*%
G36*
X404021Y744469D02*
X404021Y744469D01*
X402500Y744964D01*
X401075Y745690D01*
X399781Y746630D01*
X398650Y747761D01*
X397710Y749055D01*
X396984Y750480D01*
X396489Y752001D01*
X396239Y753580D01*
X396239Y760477D01*
X404877Y760477D01*
X404877Y744334D01*
X404021Y744469D01*
G37*
%LPD*%
%LPC*%
G36*
X150021Y744469D02*
X150021Y744469D01*
X148500Y744964D01*
X147075Y745690D01*
X145781Y746630D01*
X144650Y747761D01*
X143710Y749055D01*
X142984Y750480D01*
X142489Y752001D01*
X142239Y753580D01*
X142239Y760477D01*
X150877Y760477D01*
X150877Y744334D01*
X150021Y744469D01*
G37*
%LPD*%
%LPC*%
G36*
X48421Y744469D02*
X48421Y744469D01*
X46900Y744964D01*
X45475Y745690D01*
X44181Y746630D01*
X43050Y747761D01*
X42110Y749055D01*
X41384Y750480D01*
X40889Y752001D01*
X40639Y753580D01*
X40639Y760477D01*
X49277Y760477D01*
X49277Y744334D01*
X48421Y744469D01*
G37*
%LPD*%
%LPC*%
G36*
X113323Y588323D02*
X113323Y588323D01*
X113323Y598739D01*
X121532Y598739D01*
X122179Y598566D01*
X122758Y598231D01*
X123231Y597758D01*
X123566Y597179D01*
X123739Y596532D01*
X123739Y588323D01*
X113323Y588323D01*
G37*
%LPD*%
%LPC*%
G36*
X99861Y588323D02*
X99861Y588323D01*
X99861Y596532D01*
X100034Y597179D01*
X100369Y597758D01*
X100842Y598231D01*
X101421Y598566D01*
X102068Y598739D01*
X110277Y598739D01*
X110277Y588323D01*
X99861Y588323D01*
G37*
%LPD*%
%LPC*%
G36*
X113323Y574861D02*
X113323Y574861D01*
X113323Y585277D01*
X123739Y585277D01*
X123739Y577068D01*
X123566Y576421D01*
X123231Y575842D01*
X122758Y575369D01*
X122179Y575034D01*
X121532Y574861D01*
X113323Y574861D01*
G37*
%LPD*%
G36*
X212658Y585280D02*
X212658Y585280D01*
X212677Y585278D01*
X212779Y585300D01*
X212881Y585317D01*
X212898Y585326D01*
X212918Y585330D01*
X213007Y585383D01*
X213098Y585432D01*
X213112Y585446D01*
X213129Y585456D01*
X213196Y585535D01*
X213267Y585610D01*
X213276Y585628D01*
X213289Y585643D01*
X213327Y585739D01*
X213371Y585833D01*
X213373Y585853D01*
X213381Y585871D01*
X213399Y586038D01*
X213399Y587562D01*
X213396Y587582D01*
X213398Y587601D01*
X213376Y587703D01*
X213359Y587805D01*
X213350Y587822D01*
X213346Y587842D01*
X213293Y587931D01*
X213244Y588022D01*
X213230Y588036D01*
X213220Y588053D01*
X213141Y588120D01*
X213066Y588191D01*
X213048Y588200D01*
X213033Y588213D01*
X212937Y588252D01*
X212843Y588295D01*
X212823Y588297D01*
X212805Y588305D01*
X212638Y588323D01*
X201554Y588323D01*
X201755Y589596D01*
X202336Y591383D01*
X203189Y593057D01*
X204294Y594578D01*
X205622Y595906D01*
X206842Y596792D01*
X206847Y596798D01*
X206854Y596802D01*
X206934Y596885D01*
X207015Y596967D01*
X207018Y596974D01*
X207024Y596980D01*
X207072Y597084D01*
X207123Y597188D01*
X207124Y597196D01*
X207127Y597203D01*
X207140Y597317D01*
X207155Y597432D01*
X207154Y597440D01*
X207154Y597447D01*
X207130Y597560D01*
X207108Y597673D01*
X207104Y597680D01*
X207102Y597688D01*
X207043Y597786D01*
X206986Y597887D01*
X206980Y597892D01*
X206976Y597899D01*
X206889Y597973D01*
X206802Y598051D01*
X206795Y598054D01*
X206789Y598059D01*
X206682Y598102D01*
X206576Y598147D01*
X206568Y598148D01*
X206561Y598151D01*
X206394Y598169D01*
X195352Y598169D01*
X195282Y598158D01*
X195210Y598156D01*
X195161Y598138D01*
X195110Y598130D01*
X195046Y598096D01*
X194979Y598071D01*
X194938Y598039D01*
X194892Y598014D01*
X194843Y597962D01*
X194787Y597918D01*
X194759Y597874D01*
X194723Y597836D01*
X194693Y597771D01*
X194654Y597711D01*
X194641Y597660D01*
X194619Y597613D01*
X194611Y597542D01*
X194594Y597472D01*
X194598Y597420D01*
X194592Y597369D01*
X194607Y597298D01*
X194613Y597227D01*
X194633Y597179D01*
X194644Y597128D01*
X194681Y597067D01*
X194709Y597001D01*
X194754Y596945D01*
X194771Y596917D01*
X194788Y596902D01*
X194814Y596870D01*
X198121Y593563D01*
X199939Y589175D01*
X199939Y586598D01*
X199953Y586508D01*
X199961Y586417D01*
X199973Y586387D01*
X199978Y586355D01*
X200021Y586274D01*
X200057Y586191D01*
X200083Y586158D01*
X200094Y586138D01*
X200117Y586116D01*
X200162Y586060D01*
X200722Y585500D01*
X200796Y585447D01*
X200865Y585387D01*
X200895Y585375D01*
X200921Y585356D01*
X201008Y585329D01*
X201093Y585295D01*
X201134Y585291D01*
X201156Y585284D01*
X201189Y585285D01*
X201260Y585277D01*
X212638Y585277D01*
X212658Y585280D01*
G37*
%LPC*%
G36*
X890523Y496823D02*
X890523Y496823D01*
X890523Y510925D01*
X891667Y510697D01*
X893332Y510008D01*
X894830Y509007D01*
X896103Y507734D01*
X897104Y506236D01*
X897793Y504571D01*
X898145Y502805D01*
X898145Y496823D01*
X890523Y496823D01*
G37*
%LPD*%
%LPC*%
G36*
X890523Y315977D02*
X890523Y315977D01*
X898145Y315977D01*
X898145Y309995D01*
X897793Y308229D01*
X897104Y306564D01*
X896103Y305066D01*
X894830Y303793D01*
X893332Y302792D01*
X891667Y302103D01*
X890523Y301875D01*
X890523Y315977D01*
G37*
%LPD*%
%LPC*%
G36*
X890523Y417577D02*
X890523Y417577D01*
X898145Y417577D01*
X898145Y411595D01*
X897793Y409829D01*
X897104Y408164D01*
X896103Y406666D01*
X894830Y405393D01*
X893332Y404392D01*
X891667Y403703D01*
X890523Y403475D01*
X890523Y417577D01*
G37*
%LPD*%
%LPC*%
G36*
X890523Y582677D02*
X890523Y582677D01*
X898145Y582677D01*
X898145Y576695D01*
X897793Y574929D01*
X897104Y573264D01*
X896103Y571766D01*
X894830Y570493D01*
X893332Y569492D01*
X891667Y568803D01*
X890523Y568575D01*
X890523Y582677D01*
G37*
%LPD*%
%LPC*%
G36*
X879855Y496823D02*
X879855Y496823D01*
X879855Y502805D01*
X880207Y504571D01*
X880896Y506236D01*
X881897Y507734D01*
X883170Y509007D01*
X884668Y510008D01*
X886333Y510697D01*
X887477Y510925D01*
X887477Y496823D01*
X879855Y496823D01*
G37*
%LPD*%
%LPC*%
G36*
X886333Y403703D02*
X886333Y403703D01*
X884668Y404392D01*
X883170Y405393D01*
X881897Y406666D01*
X880896Y408164D01*
X880207Y409829D01*
X879855Y411595D01*
X879855Y417577D01*
X887477Y417577D01*
X887477Y403475D01*
X886333Y403703D01*
G37*
%LPD*%
%LPC*%
G36*
X886333Y568803D02*
X886333Y568803D01*
X884668Y569492D01*
X883170Y570493D01*
X881897Y571766D01*
X880896Y573264D01*
X880207Y574929D01*
X879855Y576695D01*
X879855Y582677D01*
X887477Y582677D01*
X887477Y568575D01*
X886333Y568803D01*
G37*
%LPD*%
%LPC*%
G36*
X886333Y302103D02*
X886333Y302103D01*
X884668Y302792D01*
X883170Y303793D01*
X881897Y305066D01*
X880896Y306564D01*
X880207Y308229D01*
X879855Y309995D01*
X879855Y315977D01*
X887477Y315977D01*
X887477Y301875D01*
X886333Y302103D01*
G37*
%LPD*%
G36*
X906464Y468645D02*
X906464Y468645D01*
X906555Y468653D01*
X906585Y468665D01*
X906617Y468670D01*
X906698Y468713D01*
X906781Y468749D01*
X906814Y468775D01*
X906834Y468786D01*
X906856Y468809D01*
X906912Y468854D01*
X916310Y478252D01*
X916352Y478310D01*
X916402Y478362D01*
X916424Y478409D01*
X916454Y478451D01*
X916475Y478520D01*
X916505Y478585D01*
X916511Y478637D01*
X916526Y478687D01*
X916524Y478758D01*
X916532Y478829D01*
X916521Y478880D01*
X916520Y478932D01*
X916495Y479000D01*
X916480Y479070D01*
X916453Y479115D01*
X916436Y479163D01*
X916391Y479219D01*
X916354Y479281D01*
X916314Y479315D01*
X916282Y479355D01*
X916222Y479394D01*
X916167Y479441D01*
X916119Y479460D01*
X916075Y479488D01*
X916005Y479506D01*
X915939Y479533D01*
X915868Y479541D01*
X915836Y479549D01*
X915813Y479547D01*
X915772Y479551D01*
X912581Y479551D01*
X911348Y480062D01*
X911234Y480089D01*
X911121Y480117D01*
X911115Y480117D01*
X911108Y480118D01*
X910992Y480107D01*
X910876Y480098D01*
X910870Y480096D01*
X910864Y480095D01*
X910756Y480047D01*
X910649Y480002D01*
X910643Y479997D01*
X910639Y479995D01*
X910625Y479982D01*
X910518Y479897D01*
X900552Y469930D01*
X900510Y469872D01*
X900460Y469820D01*
X900438Y469773D01*
X900408Y469731D01*
X900387Y469662D01*
X900357Y469597D01*
X900351Y469545D01*
X900336Y469495D01*
X900338Y469424D01*
X900330Y469353D01*
X900341Y469302D01*
X900342Y469250D01*
X900367Y469182D01*
X900382Y469112D01*
X900409Y469068D01*
X900426Y469019D01*
X900471Y468963D01*
X900508Y468901D01*
X900548Y468867D01*
X900580Y468827D01*
X900640Y468788D01*
X900695Y468741D01*
X900743Y468722D01*
X900787Y468694D01*
X900857Y468676D01*
X900923Y468649D01*
X900994Y468641D01*
X901026Y468633D01*
X901049Y468635D01*
X901090Y468631D01*
X906374Y468631D01*
X906464Y468645D01*
G37*
G36*
X719418Y322632D02*
X719418Y322632D01*
X719470Y322633D01*
X719538Y322658D01*
X719608Y322673D01*
X719653Y322700D01*
X719701Y322718D01*
X719757Y322763D01*
X719819Y322799D01*
X719853Y322839D01*
X719893Y322871D01*
X719932Y322932D01*
X719979Y322986D01*
X719998Y323034D01*
X720026Y323078D01*
X720044Y323148D01*
X720071Y323214D01*
X720079Y323286D01*
X720087Y323317D01*
X720085Y323340D01*
X720089Y323381D01*
X720089Y352654D01*
X720075Y352744D01*
X720067Y352835D01*
X720055Y352865D01*
X720050Y352897D01*
X720007Y352977D01*
X719971Y353061D01*
X719945Y353094D01*
X719934Y353114D01*
X719911Y353136D01*
X719866Y353192D01*
X718850Y354208D01*
X718792Y354250D01*
X718740Y354300D01*
X718693Y354322D01*
X718651Y354352D01*
X718582Y354373D01*
X718517Y354403D01*
X718465Y354409D01*
X718415Y354424D01*
X718344Y354422D01*
X718273Y354430D01*
X718222Y354419D01*
X718170Y354418D01*
X718102Y354393D01*
X718032Y354378D01*
X717987Y354351D01*
X717939Y354334D01*
X717883Y354289D01*
X717821Y354252D01*
X717787Y354212D01*
X717747Y354180D01*
X717708Y354120D01*
X717661Y354065D01*
X717642Y354017D01*
X717614Y353973D01*
X717596Y353903D01*
X717569Y353837D01*
X717561Y353766D01*
X717553Y353734D01*
X717555Y353711D01*
X717551Y353670D01*
X717551Y324397D01*
X717565Y324307D01*
X717573Y324216D01*
X717585Y324186D01*
X717590Y324154D01*
X717633Y324074D01*
X717669Y323990D01*
X717695Y323958D01*
X717706Y323937D01*
X717729Y323915D01*
X717774Y323859D01*
X718790Y322843D01*
X718848Y322801D01*
X718900Y322752D01*
X718947Y322730D01*
X718989Y322699D01*
X719058Y322678D01*
X719123Y322648D01*
X719175Y322642D01*
X719225Y322627D01*
X719296Y322629D01*
X719367Y322621D01*
X719418Y322632D01*
G37*
%LPC*%
G36*
X575817Y135635D02*
X575817Y135635D01*
X575817Y145958D01*
X577090Y145757D01*
X578877Y145176D01*
X580551Y144323D01*
X582072Y143218D01*
X583400Y141890D01*
X584505Y140369D01*
X585358Y138695D01*
X585939Y136908D01*
X586140Y135635D01*
X575817Y135635D01*
G37*
%LPD*%
%LPC*%
G36*
X372617Y135635D02*
X372617Y135635D01*
X372617Y145958D01*
X373890Y145757D01*
X375677Y145176D01*
X377351Y144323D01*
X378872Y143218D01*
X380200Y141890D01*
X381305Y140369D01*
X382158Y138695D01*
X382739Y136908D01*
X382940Y135635D01*
X372617Y135635D01*
G37*
%LPD*%
%LPC*%
G36*
X494323Y588323D02*
X494323Y588323D01*
X494323Y598646D01*
X495596Y598445D01*
X497383Y597864D01*
X499057Y597011D01*
X500578Y595906D01*
X501906Y594578D01*
X503011Y593057D01*
X503864Y591383D01*
X504445Y589596D01*
X504646Y588323D01*
X494323Y588323D01*
G37*
%LPD*%
%LPC*%
G36*
X168748Y135635D02*
X168748Y135635D01*
X168949Y136908D01*
X169530Y138695D01*
X170383Y140369D01*
X171488Y141890D01*
X172816Y143218D01*
X174337Y144323D01*
X176011Y145176D01*
X177798Y145757D01*
X179071Y145958D01*
X179071Y135635D01*
X168748Y135635D01*
G37*
%LPD*%
%LPC*%
G36*
X359248Y135635D02*
X359248Y135635D01*
X359449Y136908D01*
X360030Y138695D01*
X360883Y140369D01*
X361988Y141890D01*
X363316Y143218D01*
X364837Y144323D01*
X366511Y145176D01*
X368298Y145757D01*
X369571Y145958D01*
X369571Y135635D01*
X359248Y135635D01*
G37*
%LPD*%
%LPC*%
G36*
X575817Y132589D02*
X575817Y132589D01*
X586140Y132589D01*
X585939Y131316D01*
X585358Y129529D01*
X584505Y127855D01*
X583400Y126334D01*
X582072Y125006D01*
X580551Y123901D01*
X578877Y123048D01*
X577090Y122467D01*
X575817Y122266D01*
X575817Y132589D01*
G37*
%LPD*%
%LPC*%
G36*
X480954Y588323D02*
X480954Y588323D01*
X481155Y589596D01*
X481736Y591383D01*
X482589Y593057D01*
X483694Y594578D01*
X485022Y595906D01*
X486543Y597011D01*
X488217Y597864D01*
X490004Y598445D01*
X491277Y598646D01*
X491277Y588323D01*
X480954Y588323D01*
G37*
%LPD*%
%LPC*%
G36*
X494323Y585277D02*
X494323Y585277D01*
X504646Y585277D01*
X504445Y584004D01*
X503864Y582217D01*
X503011Y580543D01*
X501906Y579022D01*
X500578Y577694D01*
X499057Y576589D01*
X497383Y575736D01*
X495596Y575155D01*
X494323Y574954D01*
X494323Y585277D01*
G37*
%LPD*%
%LPC*%
G36*
X562448Y135635D02*
X562448Y135635D01*
X562649Y136908D01*
X563230Y138695D01*
X564083Y140369D01*
X565188Y141890D01*
X566516Y143218D01*
X568037Y144323D01*
X569711Y145176D01*
X571498Y145757D01*
X572771Y145958D01*
X572771Y135635D01*
X562448Y135635D01*
G37*
%LPD*%
%LPC*%
G36*
X490004Y575155D02*
X490004Y575155D01*
X488217Y575736D01*
X486543Y576589D01*
X485022Y577694D01*
X483694Y579022D01*
X482589Y580543D01*
X481736Y582217D01*
X481155Y584004D01*
X480954Y585277D01*
X491277Y585277D01*
X491277Y574954D01*
X490004Y575155D01*
G37*
%LPD*%
%LPC*%
G36*
X177798Y122467D02*
X177798Y122467D01*
X176011Y123048D01*
X174337Y123901D01*
X172816Y125006D01*
X171488Y126334D01*
X170383Y127855D01*
X169530Y129529D01*
X168949Y131316D01*
X168748Y132589D01*
X179071Y132589D01*
X179071Y122266D01*
X177798Y122467D01*
G37*
%LPD*%
%LPC*%
G36*
X571498Y122467D02*
X571498Y122467D01*
X569711Y123048D01*
X568037Y123901D01*
X566516Y125006D01*
X565188Y126334D01*
X564083Y127855D01*
X563230Y129529D01*
X562649Y131316D01*
X562448Y132589D01*
X572771Y132589D01*
X572771Y122266D01*
X571498Y122467D01*
G37*
%LPD*%
%LPC*%
G36*
X433323Y26923D02*
X433323Y26923D01*
X433323Y36323D01*
X436324Y36323D01*
X442723Y29924D01*
X442723Y26923D01*
X433323Y26923D01*
G37*
%LPD*%
%LPC*%
G36*
X407923Y26923D02*
X407923Y26923D01*
X407923Y36323D01*
X410924Y36323D01*
X417323Y29924D01*
X417323Y26923D01*
X407923Y26923D01*
G37*
%LPD*%
%LPC*%
G36*
X265683Y509523D02*
X265683Y509523D01*
X265683Y518923D01*
X268684Y518923D01*
X275083Y512524D01*
X275083Y509523D01*
X265683Y509523D01*
G37*
%LPD*%
%LPC*%
G36*
X265683Y497077D02*
X265683Y497077D01*
X265683Y506477D01*
X275083Y506477D01*
X275083Y503476D01*
X268684Y497077D01*
X265683Y497077D01*
G37*
%LPD*%
%LPC*%
G36*
X395477Y26923D02*
X395477Y26923D01*
X395477Y29924D01*
X401876Y36323D01*
X404877Y36323D01*
X404877Y26923D01*
X395477Y26923D01*
G37*
%LPD*%
%LPC*%
G36*
X253237Y509523D02*
X253237Y509523D01*
X253237Y512524D01*
X259636Y518923D01*
X262637Y518923D01*
X262637Y509523D01*
X253237Y509523D01*
G37*
%LPD*%
%LPC*%
G36*
X420877Y26923D02*
X420877Y26923D01*
X420877Y29924D01*
X427276Y36323D01*
X430277Y36323D01*
X430277Y26923D01*
X420877Y26923D01*
G37*
%LPD*%
%LPC*%
G36*
X433323Y14477D02*
X433323Y14477D01*
X433323Y23877D01*
X442723Y23877D01*
X442723Y20876D01*
X436324Y14477D01*
X433323Y14477D01*
G37*
%LPD*%
%LPC*%
G36*
X407923Y14477D02*
X407923Y14477D01*
X407923Y23877D01*
X417323Y23877D01*
X417323Y20876D01*
X410924Y14477D01*
X407923Y14477D01*
G37*
%LPD*%
%LPC*%
G36*
X259636Y497077D02*
X259636Y497077D01*
X253237Y503476D01*
X253237Y506477D01*
X262637Y506477D01*
X262637Y497077D01*
X259636Y497077D01*
G37*
%LPD*%
%LPC*%
G36*
X427276Y14477D02*
X427276Y14477D01*
X420877Y20876D01*
X420877Y23877D01*
X430277Y23877D01*
X430277Y14477D01*
X427276Y14477D01*
G37*
%LPD*%
%LPC*%
G36*
X401876Y14477D02*
X401876Y14477D01*
X395477Y20876D01*
X395477Y23877D01*
X404877Y23877D01*
X404877Y14477D01*
X401876Y14477D01*
G37*
%LPD*%
G36*
X572606Y503593D02*
X572606Y503593D01*
X572658Y503594D01*
X572726Y503619D01*
X572796Y503634D01*
X572840Y503661D01*
X572889Y503678D01*
X572945Y503723D01*
X573007Y503760D01*
X573041Y503800D01*
X573081Y503832D01*
X573120Y503892D01*
X573167Y503947D01*
X573186Y503995D01*
X573214Y504039D01*
X573232Y504109D01*
X573259Y504175D01*
X573267Y504246D01*
X573275Y504278D01*
X573273Y504301D01*
X573277Y504342D01*
X573277Y512524D01*
X576343Y515590D01*
X576385Y515648D01*
X576434Y515700D01*
X576456Y515747D01*
X576486Y515789D01*
X576507Y515858D01*
X576538Y515923D01*
X576543Y515975D01*
X576559Y516025D01*
X576557Y516096D01*
X576565Y516167D01*
X576554Y516218D01*
X576552Y516270D01*
X576528Y516338D01*
X576512Y516408D01*
X576486Y516453D01*
X576468Y516501D01*
X576423Y516557D01*
X576386Y516619D01*
X576347Y516653D01*
X576314Y516693D01*
X576254Y516732D01*
X576199Y516779D01*
X576151Y516798D01*
X576107Y516826D01*
X576038Y516844D01*
X575971Y516871D01*
X575900Y516879D01*
X575869Y516887D01*
X575845Y516885D01*
X575804Y516889D01*
X567196Y516889D01*
X567125Y516878D01*
X567053Y516876D01*
X567004Y516858D01*
X566953Y516850D01*
X566890Y516816D01*
X566822Y516791D01*
X566782Y516759D01*
X566735Y516734D01*
X566686Y516682D01*
X566630Y516638D01*
X566602Y516594D01*
X566566Y516556D01*
X566536Y516491D01*
X566497Y516431D01*
X566484Y516380D01*
X566462Y516333D01*
X566455Y516262D01*
X566437Y516192D01*
X566441Y516140D01*
X566435Y516089D01*
X566451Y516018D01*
X566456Y515947D01*
X566477Y515899D01*
X566488Y515848D01*
X566524Y515787D01*
X566553Y515721D01*
X566597Y515665D01*
X566614Y515637D01*
X566632Y515622D01*
X566657Y515590D01*
X569723Y512524D01*
X569723Y506374D01*
X569737Y506284D01*
X569745Y506193D01*
X569757Y506163D01*
X569762Y506131D01*
X569805Y506050D01*
X569841Y505967D01*
X569867Y505934D01*
X569878Y505914D01*
X569901Y505892D01*
X569946Y505836D01*
X571978Y503804D01*
X572036Y503762D01*
X572088Y503712D01*
X572135Y503690D01*
X572177Y503660D01*
X572246Y503639D01*
X572311Y503609D01*
X572363Y503603D01*
X572413Y503588D01*
X572484Y503590D01*
X572555Y503582D01*
X572606Y503593D01*
G37*
%LPC*%
G36*
X534923Y750823D02*
X534923Y750823D01*
X534923Y758445D01*
X537188Y758445D01*
X542545Y753088D01*
X542545Y750823D01*
X534923Y750823D01*
G37*
%LPD*%
%LPC*%
G36*
X524255Y750823D02*
X524255Y750823D01*
X524255Y753088D01*
X529612Y758445D01*
X531877Y758445D01*
X531877Y750823D01*
X524255Y750823D01*
G37*
%LPD*%
%LPC*%
G36*
X534923Y740155D02*
X534923Y740155D01*
X534923Y747777D01*
X542545Y747777D01*
X542545Y745512D01*
X537188Y740155D01*
X534923Y740155D01*
G37*
%LPD*%
%LPC*%
G36*
X529612Y740155D02*
X529612Y740155D01*
X524255Y745512D01*
X524255Y747777D01*
X531877Y747777D01*
X531877Y740155D01*
X529612Y740155D01*
G37*
%LPD*%
G36*
X303366Y503593D02*
X303366Y503593D01*
X303418Y503594D01*
X303486Y503619D01*
X303556Y503634D01*
X303601Y503661D01*
X303649Y503678D01*
X303705Y503723D01*
X303767Y503760D01*
X303801Y503800D01*
X303841Y503832D01*
X303880Y503892D01*
X303927Y503947D01*
X303946Y503995D01*
X303974Y504039D01*
X303992Y504109D01*
X304019Y504175D01*
X304027Y504246D01*
X304035Y504278D01*
X304033Y504301D01*
X304037Y504342D01*
X304037Y509626D01*
X304023Y509716D01*
X304015Y509807D01*
X304003Y509837D01*
X303998Y509869D01*
X303955Y509949D01*
X303919Y510033D01*
X303893Y510066D01*
X303882Y510086D01*
X303859Y510108D01*
X303814Y510164D01*
X301782Y512196D01*
X301724Y512238D01*
X301672Y512288D01*
X301625Y512310D01*
X301583Y512340D01*
X301514Y512361D01*
X301449Y512391D01*
X301397Y512397D01*
X301347Y512412D01*
X301276Y512410D01*
X301205Y512418D01*
X301154Y512407D01*
X301102Y512406D01*
X301034Y512381D01*
X300964Y512366D01*
X300919Y512339D01*
X300871Y512322D01*
X300815Y512277D01*
X300753Y512240D01*
X300719Y512200D01*
X300679Y512168D01*
X300640Y512108D01*
X300593Y512053D01*
X300574Y512005D01*
X300546Y511961D01*
X300528Y511891D01*
X300501Y511825D01*
X300493Y511754D01*
X300485Y511722D01*
X300487Y511699D01*
X300483Y511658D01*
X300483Y506374D01*
X300497Y506284D01*
X300505Y506193D01*
X300517Y506163D01*
X300522Y506131D01*
X300565Y506051D01*
X300601Y505967D01*
X300627Y505934D01*
X300638Y505914D01*
X300661Y505892D01*
X300706Y505836D01*
X302738Y503804D01*
X302796Y503762D01*
X302848Y503712D01*
X302895Y503690D01*
X302937Y503660D01*
X303006Y503639D01*
X303071Y503609D01*
X303123Y503603D01*
X303173Y503588D01*
X303244Y503590D01*
X303315Y503582D01*
X303366Y503593D01*
G37*
%LPC*%
G36*
X152399Y761999D02*
X152399Y761999D01*
X152399Y762001D01*
X152401Y762001D01*
X152401Y761999D01*
X152399Y761999D01*
G37*
%LPD*%
%LPC*%
G36*
X50799Y761999D02*
X50799Y761999D01*
X50799Y762001D01*
X50801Y762001D01*
X50801Y761999D01*
X50799Y761999D01*
G37*
%LPD*%
%LPC*%
G36*
X406399Y761999D02*
X406399Y761999D01*
X406399Y762001D01*
X406401Y762001D01*
X406401Y761999D01*
X406399Y761999D01*
G37*
%LPD*%
%LPC*%
G36*
X492799Y586799D02*
X492799Y586799D01*
X492799Y586801D01*
X492801Y586801D01*
X492801Y586799D01*
X492799Y586799D01*
G37*
%LPD*%
%LPC*%
G36*
X574293Y134111D02*
X574293Y134111D01*
X574293Y134113D01*
X574295Y134113D01*
X574295Y134111D01*
X574293Y134111D01*
G37*
%LPD*%
%LPC*%
G36*
X111799Y586799D02*
X111799Y586799D01*
X111799Y586801D01*
X111801Y586801D01*
X111801Y586799D01*
X111799Y586799D01*
G37*
%LPD*%
%LPC*%
G36*
X264159Y507999D02*
X264159Y507999D01*
X264159Y508001D01*
X264161Y508001D01*
X264161Y507999D01*
X264159Y507999D01*
G37*
%LPD*%
%LPC*%
G36*
X533399Y749299D02*
X533399Y749299D01*
X533399Y749301D01*
X533401Y749301D01*
X533401Y749299D01*
X533399Y749299D01*
G37*
%LPD*%
%LPC*%
G36*
X431799Y25399D02*
X431799Y25399D01*
X431799Y25401D01*
X431801Y25401D01*
X431801Y25399D01*
X431799Y25399D01*
G37*
%LPD*%
%LPC*%
G36*
X406399Y25399D02*
X406399Y25399D01*
X406399Y25401D01*
X406401Y25401D01*
X406401Y25399D01*
X406399Y25399D01*
G37*
%LPD*%
D10*
X25400Y754380D02*
X25400Y769620D01*
X50800Y769620D02*
X50800Y754380D01*
X952500Y754380D02*
X952500Y769620D01*
X977900Y769620D02*
X977900Y754380D01*
X381000Y754380D02*
X381000Y769620D01*
X406400Y769620D02*
X406400Y754380D01*
X254000Y754380D02*
X254000Y769620D01*
X279400Y769620D02*
X279400Y754380D01*
X127000Y754380D02*
X127000Y769620D01*
X152400Y769620D02*
X152400Y754380D01*
X635000Y754380D02*
X635000Y769620D01*
X660400Y769620D02*
X660400Y754380D01*
X736600Y754380D02*
X736600Y769620D01*
X762000Y769620D02*
X762000Y754380D01*
X850900Y754380D02*
X850900Y769620D01*
X876300Y769620D02*
X876300Y754380D01*
D11*
X111800Y586800D03*
D12*
X137200Y586800D03*
X162600Y586800D03*
X188000Y586800D03*
X213400Y586800D03*
X238800Y586800D03*
X264200Y586800D03*
X289600Y586800D03*
X315000Y586800D03*
X340400Y586800D03*
X365800Y586800D03*
X391200Y586800D03*
X416600Y586800D03*
X442000Y586800D03*
X467400Y586800D03*
X492800Y586800D03*
D13*
X355600Y469900D03*
X457200Y469900D03*
X482600Y749300D03*
X533400Y749300D03*
X508000Y774700D03*
X711200Y584200D03*
X812800Y584200D03*
X711200Y495300D03*
X812800Y495300D03*
X711200Y419100D03*
X812800Y419100D03*
X711200Y317500D03*
X812800Y317500D03*
X127000Y317500D03*
X228600Y317500D03*
X127000Y381000D03*
X228600Y381000D03*
X127000Y431800D03*
X228600Y431800D03*
X127000Y482600D03*
X228600Y482600D03*
D12*
X225806Y134112D03*
X225806Y69088D03*
X180594Y134112D03*
X180594Y69088D03*
X416306Y134112D03*
X416306Y69088D03*
X371094Y134112D03*
X371094Y69088D03*
X619506Y134112D03*
X619506Y69088D03*
X574294Y134112D03*
X574294Y69088D03*
D14*
X889000Y577596D02*
X889000Y590804D01*
X939800Y590804D02*
X939800Y577596D01*
X914400Y577596D02*
X914400Y590804D01*
X889000Y501904D02*
X889000Y488696D01*
X939800Y488696D02*
X939800Y501904D01*
X914400Y501904D02*
X914400Y488696D01*
X889000Y425704D02*
X889000Y412496D01*
X939800Y412496D02*
X939800Y425704D01*
X914400Y425704D02*
X914400Y412496D01*
X889000Y324104D02*
X889000Y310896D01*
X939800Y310896D02*
X939800Y324104D01*
X914400Y324104D02*
X914400Y310896D01*
D15*
X533400Y508000D03*
X508000Y25400D03*
X558800Y508000D03*
X584200Y508000D03*
X609600Y508000D03*
X635000Y508000D03*
X508000Y508000D03*
X482600Y508000D03*
X457200Y508000D03*
X416560Y508000D03*
X391160Y508000D03*
X365760Y508000D03*
X340360Y508000D03*
X314960Y508000D03*
X289560Y508000D03*
X264160Y508000D03*
X238760Y508000D03*
X533400Y25400D03*
X558800Y25400D03*
X584200Y25400D03*
X609600Y25400D03*
X635000Y25400D03*
X457200Y25400D03*
X431800Y25400D03*
X406400Y25400D03*
X381000Y25400D03*
X355600Y25400D03*
X330200Y25400D03*
D16*
X365760Y508000D02*
X365760Y584200D01*
X365800Y586800D01*
X391160Y584200D02*
X391160Y508000D01*
X391160Y584200D02*
X391200Y586800D01*
X416560Y584200D02*
X416560Y508000D01*
X416560Y584200D02*
X416600Y586800D01*
X457200Y574040D02*
X457200Y508000D01*
X457200Y574040D02*
X447040Y584200D01*
X442000Y586800D01*
X314960Y508000D02*
X254000Y568960D01*
X208280Y568960D01*
X193040Y584200D01*
X188000Y586800D01*
X228600Y482600D02*
X228600Y431800D01*
X228600Y381000D01*
X447040Y772160D02*
X508000Y772160D01*
X447040Y772160D02*
X279400Y604520D01*
X182880Y604520D01*
X167640Y589280D01*
X508000Y772160D02*
X508000Y774700D01*
X167640Y589280D02*
X162600Y586800D01*
X325120Y472440D02*
X355600Y472440D01*
X325120Y472440D02*
X289560Y508000D01*
X355600Y472440D02*
X355600Y469900D01*
X584200Y497840D02*
X584200Y508000D01*
X584200Y497840D02*
X726440Y355600D01*
X726440Y309880D01*
X579120Y162560D01*
X254000Y162560D01*
X228600Y137160D01*
X225806Y134112D01*
X670560Y497840D02*
X711200Y497840D01*
X670560Y497840D02*
X645160Y523240D01*
X523240Y523240D01*
X508000Y508000D01*
X711200Y497840D02*
X711200Y495300D01*
X711200Y355600D02*
X711200Y317500D01*
X711200Y355600D02*
X558800Y508000D01*
X635000Y508000D02*
X635000Y462280D01*
X736600Y360680D01*
X736600Y254000D01*
X619760Y137160D01*
X619506Y134112D01*
X939800Y523240D02*
X939800Y584200D01*
X939800Y523240D02*
X955040Y508000D01*
X955040Y482600D01*
X924560Y452120D01*
X817880Y452120D01*
X635000Y635000D01*
X635000Y762000D01*
X812800Y584200D02*
X863600Y584200D01*
X883920Y604520D01*
X894080Y604520D01*
X914400Y584200D01*
X177800Y523240D02*
X116840Y584200D01*
X177800Y523240D02*
X248920Y523240D01*
X264160Y508000D01*
X116840Y584200D02*
X111800Y586800D01*
X152400Y624840D02*
X152400Y762000D01*
X152400Y624840D02*
X116840Y589280D01*
X111800Y586800D01*
X889000Y584200D02*
X889000Y495300D01*
X431800Y25400D02*
X406400Y25400D01*
X228600Y86360D02*
X182880Y132080D01*
X228600Y86360D02*
X330200Y86360D01*
X375920Y40640D01*
X391160Y40640D01*
X406400Y25400D01*
X182880Y132080D02*
X180594Y134112D01*
X436880Y137160D02*
X574040Y137160D01*
X436880Y137160D02*
X421640Y152400D01*
X391160Y152400D01*
X375920Y137160D01*
X574040Y137160D02*
X574294Y134112D01*
X375920Y137160D02*
X371094Y134112D01*
X876300Y762000D02*
X924560Y762000D01*
X949960Y736600D01*
X955040Y736600D01*
X980440Y762000D01*
X977900Y762000D01*
X873760Y762000D02*
X873760Y756920D01*
X853440Y736600D01*
X787400Y736600D01*
X762000Y762000D01*
X873760Y762000D02*
X876300Y762000D01*
X939800Y492760D02*
X909320Y462280D01*
X822960Y462280D01*
X736600Y548640D01*
X736600Y762000D01*
X939800Y495300D02*
X939800Y492760D01*
X863600Y492760D02*
X812800Y492760D01*
X863600Y492760D02*
X883920Y472440D01*
X894080Y472440D01*
X914400Y492760D01*
X812800Y492760D02*
X812800Y495300D01*
X914400Y495300D02*
X914400Y492760D01*
X863600Y421640D02*
X812800Y421640D01*
X863600Y421640D02*
X883920Y441960D01*
X894080Y441960D01*
X914400Y421640D01*
X812800Y421640D02*
X812800Y419100D01*
X914400Y419100D02*
X914400Y421640D01*
X863600Y320040D02*
X812800Y320040D01*
X863600Y320040D02*
X883920Y340360D01*
X894080Y340360D01*
X914400Y320040D01*
X812800Y320040D02*
X812800Y317500D01*
X914400Y317500D02*
X914400Y320040D01*
X127000Y317500D02*
X127000Y360680D01*
X25400Y462280D01*
X25400Y762000D01*
X482600Y25400D02*
X508000Y25400D01*
X482600Y25400D02*
X421640Y86360D01*
X360680Y86360D01*
D17*
X360680Y86360D03*
D16*
X355600Y736600D02*
X218440Y736600D01*
X355600Y736600D02*
X381000Y762000D01*
X457200Y101600D02*
X533400Y25400D01*
X457200Y101600D02*
X294640Y101600D01*
D17*
X218440Y736600D03*
X294640Y101600D03*
D16*
X391160Y177800D02*
X508000Y177800D01*
X391160Y177800D02*
X137160Y431800D01*
X127000Y431800D01*
D17*
X508000Y177800D03*
D16*
X127000Y482600D02*
X127000Y543560D01*
X91440Y579120D01*
X91440Y726440D01*
X127000Y762000D01*
X492760Y116840D02*
X584200Y25400D01*
X492760Y116840D02*
X218440Y116840D01*
X198120Y137160D01*
X198120Y340360D01*
X111760Y426720D01*
X111760Y467360D01*
X127000Y482600D01*
M02*
