M48
;GenerationSoftware,Autodesk,EAGLE,9.1.3*%
;CreationDate,2018-12-04T07:58:25Z*%
FMAT,2
ICI,OFF
METRIC,TZ,000.000
T4C0.787
T3C0.813
T2C1.000
T1C1.016
%
G90
M71
T1
X60960Y76200
X56159Y11989
X3810Y76200
X6350Y76200
X95250Y76200
X92710Y76200
X16510Y76200
X13970Y76200
X26670Y76200
X24130Y76200
X38100Y76200
X35560Y76200
X63500Y76200
X31500Y44710
X73660Y76200
X71120Y76200
X83820Y76200
X81280Y76200
X11180Y44710
X13720Y44710
X16260Y44710
X18800Y44710
X21340Y44710
X23880Y44710
X26420Y44710
X28960Y44710
X37109Y11989
X34040Y44710
X36580Y44710
X39120Y44710
X41660Y44710
X44200Y44710
X46740Y44710
X49280Y44710
X37109Y18491
X41631Y11989
X41631Y18491
X25121Y18491
X25121Y11989
X20599Y18491
X60681Y18491
X20599Y11989
X60681Y11989
X56159Y18491
T2
X58420Y6350
X60960Y6350
X63500Y6350
X45720Y6350
X43180Y6350
X40640Y6350
X38100Y6350
X35560Y6350
X33020Y6350
X28956Y54610
X53340Y54610
X50800Y6350
X55880Y54610
X58420Y54610
X60960Y54610
X63500Y54610
X50800Y54610
X48260Y54610
X45720Y54610
X41656Y54610
X39116Y54610
X36576Y54610
X34036Y54610
X31496Y54610
X26416Y54610
X23876Y54610
X53340Y6350
X55880Y6350
T3
X66040Y29210
X11430Y39370
X35560Y39370
X45720Y39370
X48260Y74930
X53340Y74930
X50800Y77470
X66040Y39370
X66040Y34290
X21590Y34290
X11430Y29210
X21590Y29210
X11430Y24130
X21590Y24130
X76200Y24130
X66040Y24130
X76200Y29210
X11430Y34290
X76200Y34290
X21590Y39370
X87630Y43180
X76200Y39370
X92710Y43180
X90170Y43180
X87630Y34290
X92710Y34290
X90170Y34290
X87630Y24130
X92710Y24130
X90170Y24130
X87630Y16510
X92710Y16510
X90170Y16510
T4
X16256Y67564
X24384Y73660
M30