M48
;GenerationSoftware,Autodesk,EAGLE,9.1.3*%
;CreationDate,2018-12-12T10:38:31Z*%
FMAT,2
ICI,OFF
METRIC,TZ,000.000
T4C0.787
T3C0.813
T2C1.000
T1C1.016
%
G90
M71
T1
X15240Y76200
X61951Y6909
X61951Y13411
X37109Y6909
X2540Y76200
X5080Y76200
X95250Y76200
X97790Y76200
X38100Y76200
X40640Y76200
X25400Y76200
X27940Y76200
X12700Y76200
X26420Y58680
X63500Y76200
X66040Y76200
X73660Y76200
X76200Y76200
X85090Y76200
X87630Y76200
X11180Y58680
X13720Y58680
X16260Y58680
X18800Y58680
X21340Y58680
X23880Y58680
X37109Y13411
X28960Y58680
X31500Y58680
X34040Y58680
X36580Y58680
X39120Y58680
X41660Y58680
X44200Y58680
X46740Y58680
X49280Y58680
X41631Y6909
X41631Y13411
X18059Y6909
X18059Y13411
X22581Y6909
X57429Y13411
X22581Y13411
X57429Y6909
T2
X55880Y2540
X58420Y2540
X60960Y2540
X63500Y2540
X45720Y2540
X43180Y2540
X40640Y2540
X38100Y2540
X35560Y2540
X33020Y2540
X28956Y50800
X53340Y50800
X50800Y2540
X55880Y50800
X58420Y50800
X60960Y50800
X63500Y50800
X50800Y50800
X48260Y50800
X45720Y50800
X41656Y50800
X39116Y50800
X36576Y50800
X34036Y50800
X31496Y50800
X26416Y50800
X23876Y50800
X53340Y2540
T3
X81280Y41910
X88900Y31750
X93980Y31750
X91440Y31750
X35560Y46990
X45720Y46990
X48260Y74930
X53340Y74930
X50800Y77470
X81280Y58420
X22860Y48260
X12700Y43180
X22860Y38100
X12700Y38100
X22860Y31750
X12700Y31750
X81280Y31750
X71120Y31750
X12700Y48260
X71120Y41910
X81280Y49530
X22860Y43180
X71120Y49530
X71120Y58420
X88900Y58420
X93980Y58420
X91440Y58420
X88900Y49530
X93980Y49530
X91440Y49530
X88900Y41910
X93980Y41910
X91440Y41910
T4
X29464Y10160
X50800Y17780
X36068Y8636
X21844Y73660
M30